<svg width="24" height="24" viewBox="0 0 24 24" fill="none" xmlns="http://www.w3.org/2000/svg">
<path fill-rule="evenodd" clip-rule="evenodd" d="M5.46967 5.46967C5.76256 5.17678 6.23744 5.17678 6.53033 5.46967L9.53033 8.46967C9.82322 8.76256 9.82322 9.23744 9.53033 9.53033L6.53033 12.5303C6.23744 12.8232 5.76256 12.8232 5.46967 12.5303L2.46967 9.53033C2.17678 9.23744 2.17678 8.76256 2.46967 8.46967L5.46967 5.46967ZM11.25 6C11.25 5.58579 11.5858 5.25 12 5.25L20 5.25C20.4142 5.25 20.75 5.58579 20.75 6C20.75 6.41421 20.4142 6.75 20 6.75L12 6.75C11.5858 6.75 11.25 6.41421 11.25 6ZM4.06066 9L6 10.9393L7.93934 9L6 7.06066L4.06066 9ZM11.25 12C11.25 11.5858 11.5858 11.25 12 11.25L20 11.25C20.4142 11.25 20.75 11.5858 20.75 12C20.75 12.4142 20.4142 12.75 20 12.75L12 12.75C11.5858 12.75 11.25 12.4142 11.25 12ZM4.25 18C4.25 17.5858 4.58579 17.25 5 17.25L20 17.25C20.4142 17.25 20.75 17.5858 20.75 18C20.75 18.4142 20.4142 18.75 20 18.75L5 18.75C4.58579 18.75 4.25 18.4142 4.25 18Z" fill="black"/>
</svg>
