<svg width="24" height="24" viewBox="0 0 24 24" fill="none" xmlns="http://www.w3.org/2000/svg">
  <path fill-rule="evenodd" clip-rule="evenodd"
        d="M5.64645 5.64645C5.84171 5.45118 6.15829 5.45118 6.35355 5.64645L9.35355 8.64645C9.54882 8.84171 9.54882 9.15829 9.35355 9.35355L6.35355 12.3536C6.15829 12.5488 5.84171 12.5488 5.64645 12.3536L2.64645 9.35355C2.45118 9.15829 2.45118 8.84171 2.64645 8.64645L5.64645 5.64645ZM11.5 6C11.5 5.72386 11.7239 5.5 12 5.5L20 5.5C20.2761 5.5 20.5 5.72386 20.5 6C20.5 6.27614 20.2761 6.5 20 6.5L12 6.5C11.7239 6.5 11.5 6.27614 11.5 6ZM3.70711 9L6 11.2929L8.29289 9L6 6.70711L3.70711 9ZM11.5 12C11.5 11.7239 11.7239 11.5 12 11.5L20 11.5C20.2761 11.5 20.5 11.7239 20.5 12C20.5 12.2761 20.2761 12.5 20 12.5L12 12.5C11.7239 12.5 11.5 12.2761 11.5 12ZM4.5 18C4.5 17.7239 4.72386 17.5 5 17.5L20 17.5C20.2761 17.5 20.5 17.7239 20.5 18C20.5 18.2761 20.2761 18.5 20 18.5L5 18.5C4.72386 18.5 4.5 18.2761 4.5 18Z"
        fill="black"/>
</svg>
