<svg width="24" height="24" viewBox="0 0 24 24" fill="none"
     xmlns="http://www.w3.org/2000/svg">
  <path fill-rule="evenodd" clip-rule="evenodd"
        d="M2.25 7C2.25 4.92893 3.92893 3.25 6 3.25L18 3.25C20.0711 3.25 21.75 4.92893 21.75 7L21.75 16.5C21.75 18.5711 20.0711 20.25 18 20.25L5.5 20.25C3.70507 20.25 2.25 18.7949 2.25 17L2.25 7ZM6 4.75C4.75736 4.75 3.75 5.75736 3.75 7L3.75 15.4395L7.53148 12.4143C7.75991 12.2316 8.07376 12.1984 8.33541 12.3292L12.8519 14.5874L16.9697 10.4697C17.2468 10.1926 17.6905 10.1755 17.9881 10.4306L20.25 12.3693V7C20.25 5.75736 19.2426 4.75 18 4.75L6 4.75ZM20.25 14.345L17.5392 12.0214L13.5303 16.0303C13.3021 16.2586 12.9533 16.3152 12.6646 16.1708L8.0938 13.8854L3.782 17.3349C3.93825 18.1412 4.64803 18.75 5.5 18.75H18C19.2426 18.75 20.25 17.7426 20.25 16.5V14.345ZM7.5 6.75C7.08579 6.75 6.75 7.08579 6.75 7.5C6.75 7.91421 7.08579 8.25 7.5 8.25C7.91421 8.25 8.25 7.91421 8.25 7.5C8.25 7.08579 7.91421 6.75 7.5 6.75ZM5.25 7.5C5.25 6.25736 6.25736 5.25 7.5 5.25C8.74264 5.25 9.75 6.25736 9.75 7.5C9.75 8.74264 8.74264 9.75 7.5 9.75C6.25736 9.75 5.25 8.74264 5.25 7.5Z"
        fill="black"/>
</svg>
