<svg width="24" height="24" viewBox="0 0 24 24" fill="none" xmlns="http://www.w3.org/2000/svg">
  <path fill-rule="evenodd" clip-rule="evenodd"
        d="M2.5 7C2.5 5.067 4.067 3.5 6 3.5L18 3.5C19.933 3.5 21.5 5.067 21.5 7L21.5 16.5C21.5 18.433 19.933 20 18 20L5.5 20C3.84315 20 2.5 18.6569 2.5 17L2.5 7ZM6 4.5C4.61929 4.5 3.5 5.61929 3.5 7L3.5 15.9597L7.68765 12.6096C7.83994 12.4877 8.04917 12.4656 8.22361 12.5528L12.9013 14.8916L17.1464 10.6464C17.3312 10.4617 17.627 10.4503 17.8254 10.6204L20.5 12.9129V7C20.5 5.61929 19.3807 4.5 18 4.5L6 4.5ZM20.5 14.23L17.5262 11.681L13.3536 15.8536C13.2014 16.0057 12.9689 16.0435 12.7764 15.9472L8.06254 13.5903L3.51307 17.2299C3.62707 18.2262 4.47317 19 5.5 19H18C19.3807 19 20.5 17.8807 20.5 16.5L20.5 14.23ZM7.5 6.5C6.94772 6.5 6.5 6.94772 6.5 7.5C6.5 8.05228 6.94772 8.5 7.5 8.5C8.05228 8.5 8.5 8.05228 8.5 7.5C8.5 6.94772 8.05228 6.5 7.5 6.5ZM7.5 5.5C6.39543 5.5 5.5 6.39543 5.5 7.5C5.5 8.60457 6.39543 9.5 7.5 9.5C8.60457 9.5 9.5 8.60457 9.5 7.5C9.5 6.39543 8.60457 5.5 7.5 5.5Z"
        fill="black"/>
</svg>
