<svg width="24" height="24" viewBox="0 0 24 24" fill="none"
     xmlns="http://www.w3.org/2000/svg">
  <path fill-rule="evenodd" clip-rule="evenodd"
        d="M12 2.5C6.75329 2.5 2.5 6.75329 2.5 12C2.5 17.2467 6.75329 21.5 12 21.5C17.2467 21.5 21.5 17.2467 21.5 12C21.5 10.8186 21.2846 9.68868 20.8913 8.64657C20.7938 8.38821 20.9243 8.09974 21.1826 8.00224C21.441 7.90475 21.7295 8.03516 21.8269 8.29352C22.2621 9.44673 22.5 10.6962 22.5 12C22.5 17.799 17.799 22.5 12 22.5C6.20101 22.5 1.5 17.799 1.5 12C1.5 6.20101 6.20101 1.5 12 1.5C15.7666 1.5 19.0696 3.48367 20.9217 6.46092C21.0676 6.6954 20.9958 7.00372 20.7613 7.14959C20.5268 7.29546 20.2185 7.22363 20.0726 6.98915C18.3953 4.29297 15.4068 2.5 12 2.5ZM12.6539 4.50001L12.7397 4.5006L12.8255 4.50209L12.9114 4.50444L12.9973 4.50767L13.0833 4.51176L13.1693 4.51673L13.2552 4.52257L13.3412 4.52929L13.4272 4.53688L13.5132 4.54534L13.5991 4.55468L13.6851 4.5649L13.7709 4.57599L13.8568 4.58796L13.9425 4.60081L14.0282 4.61453L14.1138 4.62913L14.1994 4.6446L14.2848 4.66095L14.3702 4.67818L14.4554 4.69628L14.5405 4.71526L14.6255 4.73511L14.7103 4.75583L14.795 4.77742L14.8795 4.79989L14.9639 4.82323L15.0481 4.84743L15.1321 4.87251L15.2159 4.89845L15.2995 4.92526L15.3829 4.95293L15.4661 4.98147L15.549 5.01086L15.6317 5.04112L15.7142 5.07223L15.7964 5.1042L15.8784 5.13702L15.96 5.17069L16.0414 5.20521L16.1226 5.24058L16.2034 5.27679L16.2839 5.31385L16.364 5.35174L16.4439 5.39048L16.5234 5.43004L16.6026 5.47044L16.6815 5.51167L16.7599 5.55372L16.838 5.59659L16.9158 5.64028L16.9931 5.68479L17.0701 5.73011L17.1466 5.77624L17.2228 5.82318L17.2985 5.87092L17.3738 5.91945L17.4487 5.96878L17.5231 6.0189L17.5971 6.06981L17.6706 6.1215L17.7436 6.17396L17.8121 6.22423C18.0348 6.38752 18.0829 6.70042 17.9196 6.92311C17.7563 7.14579 17.4434 7.19394 17.2208 7.03065L17.1542 6.98187L17.0894 6.9353L17.0242 6.88947L16.9584 6.84425L16.8924 6.79982L16.8259 6.75603L16.7591 6.71297L16.6919 6.67063L16.6243 6.62899L16.5564 6.58811L16.4881 6.54792L16.4194 6.50845L16.3505 6.46972L16.2812 6.43171L16.2116 6.39444L16.1417 6.35792L16.0715 6.32211L16.001 6.28708L15.9302 6.25276L15.8591 6.21918L15.7878 6.18638L15.7161 6.1543L15.6443 6.123L15.5722 6.09244L15.4998 6.06264L15.4272 6.03357L15.3544 6.0053L15.2814 5.97777L15.2081 5.951L15.1347 5.925L15.061 5.89975L14.9873 5.8753L14.9132 5.85159L14.839 5.82865L14.7647 5.80648L14.6902 5.7851L14.6156 5.76447L14.5408 5.74462L14.4659 5.72554L14.3909 5.70723L14.3158 5.68971L14.2405 5.67295L14.1651 5.65697L14.0897 5.64176L14.0142 5.62733L13.9386 5.61368L13.8629 5.6008L13.7872 5.5887L13.7114 5.57737L13.6356 5.56682L13.5598 5.55705L13.4839 5.54805L13.408 5.53982L13.332 5.53237L13.2561 5.52569L13.1802 5.51978L13.1043 5.51465L13.0284 5.51028L12.9526 5.50669L12.8767 5.50387L12.8009 5.50181L12.7252 5.50053L12.6495 5.50001L12.5739 5.50025L12.4984 5.50126L12.4229 5.50302L12.3475 5.50555L12.2723 5.50884L12.1971 5.51288L12.122 5.51768L12.0471 5.52324L11.9722 5.52954L11.8976 5.5366L11.823 5.5444L11.7486 5.55295L11.6744 5.56224L11.6003 5.57227L11.5264 5.58304L11.4526 5.59455L11.3791 5.60679L11.3057 5.61977L11.2326 5.63347L11.1596 5.6479L11.0869 5.66305L11.0144 5.67892L10.9421 5.69551L10.87 5.71281L10.7982 5.73082L10.7266 5.74956L10.6554 5.76898L10.5819 5.7898C10.3162 5.86508 10.0398 5.71072 9.96449 5.44504C9.88922 5.17935 10.0436 4.90295 10.3093 4.82767L10.39 4.80479L10.4711 4.78273L10.5524 4.76147L10.6341 4.74102L10.716 4.72138L10.7981 4.70256L10.8805 4.68455L10.9631 4.66736L11.046 4.651L11.1291 4.63546L11.2124 4.62075L11.2959 4.60688L11.3797 4.59384L11.4636 4.58163L11.5477 4.57027L11.632 4.55975L11.7164 4.55007L11.801 4.54124L11.8858 4.53326L11.9707 4.52613L12.0557 4.51986L12.1408 4.51444L12.2261 4.50988L12.3115 4.50617L12.397 4.50333L12.4825 4.50135L12.5682 4.50024L12.6539 4.50001ZM9.15666 5.78805C9.29592 6.02651 9.21551 6.33271 8.97706 6.47197L8.9125 6.50967L8.85051 6.54672L8.789 6.58433L8.72792 6.62253L8.66724 6.66133L8.60706 6.70068L8.54731 6.74061L8.48799 6.78113L8.42921 6.82215L8.37081 6.86379L8.31292 6.90596L8.25552 6.94865L8.19863 6.99188L8.14215 7.03569L8.08624 7.07997L8.03078 7.12481L7.97583 7.17016L7.92141 7.21601L7.86749 7.26237L7.81413 7.3092L7.76121 7.35658L7.70885 7.40443L7.65704 7.45275L7.60578 7.50153L7.55502 7.55081L7.50482 7.60055L7.45517 7.65073L7.40609 7.70137L7.35753 7.75247L7.30954 7.80401L7.26212 7.85598L7.21527 7.90838L7.16899 7.96118L7.1233 8.01441L7.07816 8.06807L7.03363 8.1221L6.98967 8.17654L6.9463 8.23138L6.90352 8.2866L6.86136 8.34218L6.81979 8.39813L6.7788 8.45448L6.73843 8.51117L6.69867 8.5682L6.65954 8.62556L6.62098 8.68332L6.58309 8.74134L6.5458 8.79971L6.50913 8.85841L6.47307 8.91744L6.43766 8.97674L6.40287 9.03635L6.36872 9.09625L6.3352 9.15644L6.30231 9.21692L6.27007 9.27765L6.23848 9.33865L6.20754 9.39988L6.17722 9.46141L6.14755 9.5232L6.11856 9.58514L6.0902 9.64736L6.06249 9.70982L6.03545 9.77246L6.00904 9.83535L5.98331 9.89841L5.95822 9.96172L5.93381 10.0252L5.91006 10.0888L5.88696 10.1526L5.86454 10.2166L5.84277 10.2808L5.82168 10.345L5.80125 10.4095L5.78148 10.4741L5.76239 10.5388L5.74398 10.6036L5.72621 10.6686L5.70913 10.7337L5.69272 10.7988L5.67697 10.8641L5.6619 10.9295L5.64751 10.9949L5.63378 11.0605L5.62073 11.1261L5.60834 11.1918L5.59663 11.2575L5.5856 11.3232L5.57523 11.3891L5.56553 11.4549L5.55651 11.5208L5.54816 11.5867L5.54047 11.6526L5.53346 11.7186L5.52712 11.7845L5.52144 11.8504L5.51644 11.9163L5.5121 11.9822L5.50842 12.0481L5.50541 12.1139L5.50307 12.1797L5.50139 12.2455L5.50037 12.3111L5.50001 12.3768L5.50031 12.4424L5.50126 12.5079L5.50288 12.5733L5.50515 12.6386L5.50807 12.7039L5.51165 12.769L5.51587 12.834L5.52075 12.8989L5.52627 12.9637L5.53243 13.0284L5.53924 13.0929L5.54669 13.1574L5.55478 13.2216L5.5635 13.2857L5.57286 13.3497L5.58285 13.4134L5.59347 13.4771L5.60472 13.5405L5.61659 13.6038L5.62909 13.6668L5.6422 13.7297L5.65593 13.7924L5.67027 13.8548L5.68523 13.9171L5.7008 13.9791L5.71697 14.0409L5.73376 14.1025L5.75113 14.1638L5.76909 14.2249L5.78767 14.2858L5.80682 14.3463L5.82657 14.4067L5.84689 14.4667L5.86781 14.5265L5.88929 14.586L5.91135 14.6452L5.93399 14.7042L5.95718 14.7628L5.98095 14.8212L6.00527 14.8792L6.03015 14.937L6.05557 14.9943L6.08155 15.0514L6.10807 15.1082L6.13511 15.1646L6.16275 15.2207L6.19087 15.2765L6.21955 15.3319L6.24871 15.3869L6.27844 15.4416L6.30864 15.4959L6.33939 15.5499L6.37058 15.6034L6.40238 15.6567L6.43458 15.7095L6.46735 15.762L6.50056 15.814L6.53427 15.8657L6.56845 15.9169L6.60316 15.9678L6.63831 16.0183L6.67386 16.0682L6.70997 16.1179L6.74651 16.1671L6.78345 16.2158L6.8209 16.2642L6.85872 16.312L6.89709 16.3595L6.93579 16.4065L6.975 16.4531L7.01458 16.4992L7.05456 16.5448L7.09503 16.5901L7.13583 16.6348L7.17707 16.6791L7.21872 16.7229L7.2607 16.7662L7.30315 16.8091L7.3459 16.8515L7.38908 16.8934L7.43263 16.9348L7.47654 16.9757L7.52077 17.0161L7.56542 17.0561L7.61038 17.0955L7.65571 17.1345L7.70135 17.1729L7.7473 17.2108L7.79364 17.2482L7.84025 17.2851L7.88724 17.3215L7.9345 17.3574L7.98203 17.3927L8.02989 17.4275L8.07802 17.4618L8.12655 17.4956L8.17518 17.5288L8.22427 17.5615L8.27349 17.5937L8.32304 17.6253L8.37279 17.6563L8.42292 17.6869L8.47316 17.7169L8.52376 17.7464L8.57444 17.7752L8.62552 17.8036L8.67678 17.8315L8.72818 17.8587L8.77984 17.8854L8.83167 17.9115L8.88379 17.9371L8.93605 17.9621L8.9908 17.9877L9.0388 18.0095L9.04343 18.0116L9.09163 18.0329L9.09625 18.0349L9.14459 18.0557L9.14927 18.0576L9.19772 18.0779L9.20241 18.0798L9.25101 18.0996L9.25572 18.1015L9.30448 18.1207L9.30919 18.1225L9.35806 18.1412L9.36282 18.143L9.41181 18.1612L9.41657 18.1629L9.46569 18.1806L9.47047 18.1823L9.51969 18.1994L9.5245 18.2011L9.57381 18.2177L9.57864 18.2193L9.62808 18.2354L9.63289 18.2369L9.68242 18.2525L9.68729 18.254L9.73689 18.269L9.74175 18.2705L9.79147 18.285L9.79633 18.2864L9.84611 18.3004L9.85102 18.3018L9.90087 18.3152L9.90576 18.3165L9.95568 18.3295L9.96061 18.3307L10.0106 18.3432L10.0155 18.3444L10.0656 18.3563L10.0705 18.3574L10.1206 18.3688L10.1256 18.3699L10.1757 18.3808L10.1807 18.3818L10.2309 18.3921L10.2358 18.3931L10.2861 18.403L10.291 18.4039L10.3413 18.4132L10.3463 18.4141L10.3966 18.4228L10.4016 18.4237L10.4519 18.4319L10.4569 18.4327L10.5072 18.4405L10.5122 18.4412L10.5625 18.4484L10.5676 18.4491L10.6179 18.4558L10.6229 18.4564L10.6732 18.4626L10.6783 18.4632L10.7286 18.4688L10.7336 18.4694L10.784 18.4745L10.789 18.475L10.8393 18.4796L10.8444 18.48L10.8946 18.4841L10.8997 18.4845L10.9499 18.4881L10.955 18.4884L11.0052 18.4915L11.0103 18.4918L11.0604 18.4943L11.0655 18.4945L11.1156 18.4966L11.1207 18.4968L11.1708 18.4983L11.1758 18.4984L11.2259 18.4994L11.2309 18.4995L11.2809 18.5L11.341 18.5L11.3908 18.4995L11.3959 18.4994L11.4456 18.4984L11.4507 18.4983L11.5003 18.4967L11.5055 18.4966L11.555 18.4945L11.5601 18.4943L11.6096 18.4918L11.6147 18.4915L11.6641 18.4885L11.6692 18.4882L11.7185 18.4846L11.7235 18.4842L11.7727 18.4802L11.7778 18.4798L11.8269 18.4753L11.8319 18.4748L11.8809 18.4698L11.886 18.4693L11.9348 18.4638L11.9399 18.4632L11.9886 18.4572L11.9937 18.4566L12.0423 18.4501L12.0473 18.4494L12.0958 18.4424L12.1008 18.4417L12.1491 18.4343L12.1542 18.4335L12.2024 18.4256L12.2074 18.4247L12.2554 18.4163L12.2604 18.4154L12.3083 18.4066L12.3133 18.4056L12.361 18.3963L12.366 18.3953L12.4136 18.3855L12.4186 18.3844L12.466 18.3741L12.471 18.373L12.5182 18.3623L12.5232 18.3611L12.5702 18.3499L12.5752 18.3487L12.622 18.337L12.627 18.3358L12.6737 18.3237L12.6786 18.3224L12.7251 18.3098L12.73 18.3084L12.7763 18.2954L12.7812 18.294L12.8273 18.2805L12.8322 18.279L12.8781 18.2651L12.883 18.2636L12.9287 18.2492L12.9335 18.2476L12.979 18.2328L12.9839 18.2312L13.0292 18.2159L13.034 18.2143L13.079 18.1986L13.0838 18.1969L13.1287 18.1807L13.1334 18.179L13.1781 18.1624L13.1828 18.1606L13.2272 18.1436L13.232 18.1417L13.2761 18.1243L13.2808 18.1224L13.3247 18.1045L13.3295 18.1026L13.3731 18.0843L13.3778 18.0823L13.4212 18.0636L13.4259 18.0616L13.4691 18.0425L13.4737 18.0404L13.5166 18.0209L13.5212 18.0187L13.5639 17.9988L13.6132 17.9752L13.6599 17.9522L13.7063 17.9288L13.7523 17.9049L13.7982 17.8806L13.8436 17.8559L13.8888 17.8307L13.9337 17.8051L13.9783 17.779L14.0225 17.7526L14.0665 17.7257L14.11 17.6985L14.1532 17.6708L14.1961 17.6428L14.2387 17.6143L14.2809 17.5855L14.3229 17.5562L14.3643 17.5266L14.4055 17.4965L14.4463 17.4661L14.4868 17.4353L14.5269 17.4042L14.5666 17.3727L14.6059 17.3408L14.6449 17.3086L14.6834 17.2761L14.7217 17.2431L14.7595 17.2098L14.7969 17.1762L14.834 17.1423L14.8707 17.1079L14.9069 17.0733L14.9428 17.0385L14.9783 17.0031L15.0133 16.9676L15.0479 16.9318L15.0822 16.8956L15.116 16.8591L15.1494 16.8224L15.1825 16.7853L15.215 16.7479L15.2471 16.7104L15.2789 16.6725L15.3102 16.6343L15.3411 16.5959L15.3715 16.5572L15.4016 16.5182L15.4311 16.4791L15.4603 16.4396L15.489 16.3999L15.5172 16.36L15.545 16.3198L15.5724 16.2794L15.5993 16.2389L15.6258 16.198L15.6518 16.157L15.6774 16.1158L15.7025 16.0743L15.7272 16.0327L15.7514 15.9909L15.7752 15.9489L15.7985 15.9066L15.8213 15.8643L15.8437 15.8217L15.8656 15.779L15.8871 15.7362L15.9081 15.693L15.9286 15.6499L15.9487 15.6065L15.9683 15.5631L15.9874 15.5195L16.006 15.4757L16.0243 15.4318L16.0419 15.3879L16.0592 15.3437L16.076 15.2995L16.0923 15.2552L16.1081 15.2107L16.1235 15.1663L16.1384 15.1216L16.1528 15.0769L16.1667 15.0321L16.1802 14.9872L16.1932 14.9423L16.2057 14.8974L16.2178 14.8522L16.2294 14.8071L16.2411 14.7595C16.307 14.4913 16.5778 14.3274 16.846 14.3933C17.1141 14.4592 17.2781 14.73 17.2122 14.9982L17.1986 15.0532L17.1845 15.1081L17.1698 15.163L17.1546 15.2177L17.1387 15.2724L17.1223 15.327L17.1053 15.3814L17.0878 15.4358L17.0697 15.49L17.051 15.5441L17.0317 15.5981L17.0119 15.6519L16.9915 15.7056L16.9705 15.7591L16.949 15.8125L16.9269 15.8657L16.9042 15.9188L16.881 15.9717L16.8572 16.0244L16.8329 16.0769L16.808 16.1292L16.7825 16.1814L16.7565 16.2333L16.7299 16.285L16.7028 16.3365L16.6752 16.3878L16.6469 16.4389L16.6182 16.4897L16.5888 16.5403L16.559 16.5906L16.5286 16.6407L16.4976 16.6906L16.4662 16.7401L16.4341 16.7895L16.4016 16.8385L16.3685 16.8873L16.3349 16.9357L16.3008 16.9839L16.2661 17.0318L16.2309 17.0794L16.1952 17.1267L16.159 17.1736L16.1222 17.2203L16.085 17.2666L16.0472 17.3126L16.009 17.3582L15.9702 17.4035L15.9309 17.4485L15.8912 17.4931L15.8509 17.5374L15.8102 17.5812L15.7689 17.6248L15.7272 17.6679L15.685 17.7107L15.6423 17.7531L15.5992 17.795L15.5556 17.8366L15.5115 17.8778L15.4669 17.9186L15.4219 17.959L15.3765 17.9989L15.3305 18.0385L15.2842 18.0776L15.2374 18.1163L15.1901 18.1545L15.1424 18.1923L15.0943 18.2297L15.0458 18.2666L14.9968 18.303L14.9474 18.339L14.8976 18.3745L14.8474 18.4096L14.7968 18.4442L14.7457 18.4782L14.6943 18.5119L14.6425 18.545L14.5903 18.5776L14.5377 18.6097L14.4847 18.6414L14.4314 18.6725L14.3777 18.7031L14.3236 18.7332L14.2692 18.7627L14.2144 18.7918L14.1593 18.8203L14.1038 18.8483L14.048 18.8757L13.9918 18.9026L13.9353 18.929L13.8785 18.9548L13.8214 18.9801L13.764 19.0048L13.7062 19.0289L13.6482 19.0525L13.5898 19.0755L13.5312 19.098L13.4723 19.1198L13.413 19.1411L13.3536 19.1618L13.2938 19.182L13.2338 19.2015L13.1736 19.2204L13.113 19.2388L13.0523 19.2566L12.9913 19.2737L12.93 19.2903L12.8686 19.3062L12.8069 19.3215L12.745 19.3362L12.6829 19.3503L12.6205 19.3638L12.558 19.3767L12.4953 19.3889L12.4324 19.4006L12.3694 19.4115L12.3061 19.4219L12.2427 19.4316L12.1791 19.4407L12.1154 19.4491L12.0515 19.457L11.9875 19.4641L11.9234 19.4706L11.8591 19.4765L11.7947 19.4817L11.7302 19.4863L11.6706 19.4899L11.6655 19.4902L11.6059 19.4932L11.6008 19.4935L11.5411 19.4959L11.536 19.4961L11.4711 19.4981L11.4061 19.4994L11.3461 19.5L11.341 19.5L11.2759 19.5L11.2107 19.4993L11.1454 19.498L11.0801 19.496L11.0148 19.4933L10.9494 19.4899L10.884 19.4859L10.8185 19.4812L10.7531 19.4759L10.6876 19.4699L10.6222 19.4632L10.5567 19.4558L10.4913 19.4478L10.4259 19.439L10.3605 19.4297L10.2951 19.4196L10.2298 19.4089L10.1645 19.3974L10.0993 19.3854L10.0341 19.3726L9.96902 19.3592L9.90401 19.3451L9.83906 19.3303L9.77422 19.3148L9.70945 19.2987L9.64481 19.2819L9.58024 19.2644L9.51583 19.2463L9.45153 19.2275L9.38733 19.208L9.32332 19.1878L9.25941 19.167L9.19566 19.1455L9.13208 19.1233L9.06866 19.1005L9.0054 19.077L8.94234 19.0528L8.87946 19.028L8.81676 19.0025L8.75425 18.9763L8.69199 18.9496L8.62991 18.9221L8.56803 18.894L8.50643 18.8652L8.44501 18.8358L8.38387 18.8057L8.32296 18.7749L8.26232 18.7436L8.20192 18.7116L8.1418 18.6789L8.08196 18.6456L8.02237 18.6116L7.96311 18.5771L7.90412 18.5419L7.84544 18.506L7.78706 18.4696L7.72901 18.4325L7.67127 18.3947L7.61386 18.3564L7.55678 18.3174L7.50005 18.2779L7.44367 18.2377L7.38764 18.1969L7.33196 18.1555L7.27667 18.1135L7.22172 18.0709L7.16719 18.0277L7.11302 17.9839L7.05925 17.9396L7.00588 17.8946L6.95292 17.8491L6.90036 17.8029L6.84823 17.7562L6.79652 17.709L6.74524 17.6611L6.6944 17.6127L6.64399 17.5638L6.59404 17.5143L6.54455 17.4642L6.49551 17.4136L6.44693 17.3624L6.39884 17.3108L6.35122 17.2585L6.30409 17.2058L6.25744 17.1525L6.21129 17.0987L6.16564 17.0444L6.1205 16.9896L6.07588 16.9343L6.03177 16.8784L5.98818 16.8221L5.94512 16.7653L5.9026 16.708L5.86062 16.6502L5.81918 16.5919L5.77829 16.5332L5.73796 16.474L5.6982 16.4143L5.659 16.3542L5.62036 16.2936L5.58231 16.2326L5.54484 16.1712L5.50795 16.1093L5.47165 16.047L5.43595 15.9843L5.40086 15.9211L5.36636 15.8576L5.33248 15.7936L5.29921 15.7292L5.26656 15.6645L5.23454 15.5993L5.20314 15.5338L5.17238 15.4679L5.14226 15.4017L5.11277 15.335L5.08393 15.268L5.05574 15.2007L5.0282 15.133L5.00132 15.065L4.97511 14.9967L4.94956 14.928L4.92467 14.859L4.90047 14.7897L4.87694 14.7201L4.85408 14.6502L4.83192 14.58L4.81044 14.5096L4.78965 14.4388L4.76956 14.3678L4.75016 14.2965L4.73147 14.225L4.71347 14.1532L4.69619 14.0811L4.67962 14.0089L4.66376 13.9364L4.64862 13.8636L4.63419 13.7907L4.62049 13.7176L4.60751 13.6442L4.59526 13.5707L4.58374 13.497L4.57295 13.4231L4.56289 13.349L4.55358 13.2747L4.545 13.2003L4.53716 13.1258L4.53006 13.0511L4.52372 12.9763L4.51811 12.9014L4.51326 12.8263L4.50916 12.7511L4.50581 12.6758L4.50322 12.6005L4.50138 12.525L4.5003 12.4494L4.49998 12.3738L4.50042 12.2981L4.50162 12.2224L4.50359 12.1466L4.50632 12.0708L4.50981 11.9949L4.51407 11.919L4.51909 11.8431L4.52489 11.7671L4.53145 11.6912L4.53878 11.6153L4.54688 11.5394L4.55575 11.4635L4.56539 11.3876L4.57581 11.3118L4.58699 11.236L4.59895 11.1602L4.61167 11.0845L4.62517 11.0089L4.63944 10.9334L4.65448 10.8579L4.67029 10.7826L4.68687 10.7073L4.70423 10.6321L4.72235 10.5571L4.74124 10.4822L4.7609 10.4074L4.78133 10.3327L4.80253 10.2582L4.82449 10.1839L4.84722 10.1097L4.87071 10.0357L4.89496 9.96182L4.91998 9.88816L4.94576 9.8147L4.97229 9.74144L4.99959 9.66839L5.02764 9.59555L5.05645 9.52294L5.086 9.45057L5.11631 9.37844L5.14737 9.30655L5.17918 9.23493L5.21173 9.16356L5.24503 9.09247L5.27907 9.02166L5.31384 8.95114L5.34936 8.88092L5.38561 8.81099L5.42258 8.74138L5.46029 8.67209L5.49873 8.60313L5.53789 8.53449L5.57777 8.46621L5.61837 8.39827L5.65968 8.33069L5.7017 8.26347L5.74444 8.19662L5.78788 8.13016L5.83202 8.06408L5.87686 7.9984L5.92239 7.93312L5.96862 7.86824L6.01554 7.80379L6.06314 7.73976L6.11142 7.67616L6.16038 7.613L6.21001 7.55029L6.26032 7.48803L6.31128 7.42623L6.36291 7.36489L6.41519 7.30404L6.46813 7.24366L6.52172 7.18377L6.57595 7.12438L6.63082 7.06549L6.68632 7.00711L6.74245 6.94925L6.79921 6.89191L6.85659 6.8351L6.91458 6.77882L6.97318 6.7231L7.03239 6.66791L7.0922 6.61329L7.15261 6.55923L7.2136 6.50574L7.27518 6.45283L7.33734 6.40049L7.40007 6.34875L7.46337 6.2976L7.52724 6.24706L7.59165 6.19712L7.65663 6.14779L7.72214 6.09909L7.7882 6.05101L7.85479 6.00356L7.92191 5.95675L7.98954 5.91058L8.0577 5.86506L8.12636 5.8202L8.19553 5.776L8.2652 5.73246L8.33535 5.6896L8.40599 5.64741L8.47274 5.60845C8.7112 5.46919 9.0174 5.5496 9.15666 5.78805ZM12.6275 8.67018L12.6724 8.67037L12.7174 8.67106L12.7624 8.67221L12.8074 8.67382L12.8526 8.67591L12.8977 8.67846L12.9429 8.68149L12.9881 8.68498L13.0334 8.68895L13.0787 8.69339L13.124 8.6983L13.1693 8.70369L13.2146 8.70955L13.2599 8.71589L13.3052 8.7227L13.3505 8.72999L13.3958 8.73776L13.441 8.74601L13.4863 8.75473L13.5315 8.76394L13.5767 8.77362L13.6218 8.78378L13.6669 8.79443L13.712 8.80554L13.757 8.81715L13.802 8.82923L13.8468 8.84179L13.8917 8.85483L13.9364 8.86835L13.9811 8.88235L14.0256 8.89682L14.0701 8.91178L14.1145 8.92722L14.1588 8.94313L14.203 8.95952L14.2471 8.97639L14.2911 8.99373L14.3349 9.01155L14.3786 9.02984L14.4223 9.04862L14.4657 9.06786L14.509 9.08758L14.5522 9.10777L14.5953 9.12843L14.6381 9.14956L14.6808 9.17116L14.7234 9.19322L14.7658 9.21576L14.808 9.23876L14.85 9.26222L14.8918 9.28615L14.9335 9.31054L14.975 9.33539L15.0162 9.36069L15.0573 9.38646L15.0981 9.41267L15.1387 9.43935L15.1791 9.46648L15.2193 9.49405L15.2593 9.52208L15.299 9.55055L15.3384 9.57947L15.3777 9.60882L15.4166 9.63862L15.4554 9.66887L15.4938 9.69953L15.532 9.73065L15.57 9.76219L15.6076 9.79416L15.645 9.82655L15.6821 9.85939L15.7189 9.89262L15.7554 9.9263L15.7917 9.96038L15.8276 9.99488L15.8632 10.0298L15.8985 10.0651L15.9335 10.1008L15.9681 10.137L16.0025 10.1735L16.0365 10.2104L16.0702 10.2478L16.1035 10.2855L16.1365 10.3236L16.1691 10.3621L16.2014 10.401L16.2333 10.4402L16.2649 10.4799L16.2961 10.5199L16.327 10.5602L16.3575 10.601L16.3875 10.6421L16.4173 10.6835L16.4466 10.7254L16.4755 10.7675L16.5041 10.81L16.5322 10.8529L16.5599 10.8961L16.5873 10.9396L16.6142 10.9835L16.6407 11.0277L16.6668 11.0723L16.6925 11.1171L16.7177 11.1623L16.7425 11.2078L16.7669 11.2536L16.7909 11.2997L16.8144 11.3461L16.8374 11.3928L16.8601 11.4398L16.8822 11.487L16.9039 11.5346L16.9252 11.5824L16.946 11.6306L16.9663 11.6789L16.9862 11.7276L17.0055 11.7765L17.0245 11.8257L17.0429 11.8751L17.0608 11.9248L17.0783 11.9747L17.0953 12.0248L17.1118 12.0752L17.1278 12.1258L17.1433 12.1767L17.1583 12.2277L17.1728 12.279L17.1868 12.3305L17.2003 12.3822L17.2133 12.4341L17.2258 12.4861L17.2377 12.5384L17.2492 12.5909L17.2601 12.6435L17.2705 12.6963L17.2804 12.7493L17.2897 12.8024L17.2986 12.8557L17.3069 12.9091L17.3146 12.9627L17.3218 13.0165L17.3285 13.0703L17.3341 13.1193C17.3654 13.3937 17.1685 13.6415 16.8941 13.6728C16.6197 13.7042 16.3719 13.5072 16.3406 13.2328L16.3353 13.1864L16.3298 13.1426L16.3239 13.0989L16.3176 13.0554L16.3108 13.012L16.3036 12.9687L16.296 12.9256L16.288 12.8826L16.2795 12.8397L16.2707 12.7971L16.2613 12.7545L16.2516 12.7122L16.2415 12.6699L16.231 12.628L16.22 12.586L16.2087 12.5445L16.1969 12.5029L16.1847 12.4616L16.1722 12.4205L16.1592 12.3795L16.1458 12.3388L16.1321 12.2983L16.118 12.2581L16.1035 12.2179L16.0886 12.178L16.0733 12.1384L16.0576 12.0989L16.0415 12.0596L16.0252 12.0207L16.0084 11.9819L15.9913 11.9434L15.9737 11.905L15.9559 11.867L15.9376 11.8292L15.9191 11.7917L15.9002 11.7543L15.8809 11.7173L15.8613 11.6804L15.8414 11.644L15.821 11.6076L15.8004 11.5716L15.7794 11.536L15.7581 11.5004L15.7365 11.4653L15.7146 11.4304L15.6924 11.3958L15.6698 11.3614L15.6469 11.3274L15.6237 11.2937L15.6002 11.2602L15.5764 11.227L15.5524 11.1942L15.528 11.1616L15.5033 11.1293L15.4784 11.0974L15.4531 11.0658L15.4276 11.0344L15.4018 11.0034L15.3758 10.9727L15.3495 10.9424L15.3229 10.9123L15.296 10.8826L15.2689 10.8532L15.2415 10.8241L15.214 10.7954L15.1861 10.767L15.158 10.7388L15.1297 10.7111L15.1011 10.6837L15.0723 10.6567L15.0433 10.6299L15.0141 10.6036L14.9846 10.5775L14.955 10.5518L14.9251 10.5265L14.8951 10.5016L14.8648 10.4769L14.8343 10.4526L14.8036 10.4287L14.7728 10.4052L14.7417 10.382L14.7105 10.3591L14.6791 10.3366L14.6476 10.3145L14.6158 10.2927L14.5839 10.2714L14.5518 10.2503L14.5196 10.2296L14.4872 10.2094L14.4547 10.1894L14.422 10.1699L14.3892 10.1507L14.3562 10.1318L14.3232 10.1134L14.29 10.0954L14.2567 10.0777L14.2232 10.0603L14.1897 10.0434L14.156 10.0268L14.1222 10.0106L14.0883 9.9948L14.0543 9.97935L14.0203 9.96429L13.9861 9.9496L13.9518 9.93529L13.9175 9.92136L13.8831 9.90781L13.8486 9.89463L13.814 9.88183L13.7794 9.86942L13.7447 9.85738L13.71 9.84572L13.6751 9.83443L13.6403 9.82354L13.6054 9.81301L13.5705 9.80288L13.5355 9.7931L13.5005 9.78371L13.4654 9.7747L13.4304 9.76607L13.3953 9.75781L13.3602 9.74994L13.325 9.74242L13.2899 9.7353L13.2548 9.72854L13.2196 9.72216L13.1845 9.71616L13.1493 9.71051L13.1143 9.70526L13.0792 9.70037L13.0441 9.69585L13.009 9.6917L12.9739 9.68792L12.9389 9.68451L12.904 9.68146L12.869 9.67878L12.8341 9.67647L12.7992 9.67452L12.7644 9.67293L12.7297 9.6717L12.695 9.67084L12.6603 9.67033L12.6258 9.67018L12.5912 9.67039L12.5568 9.67095L12.5224 9.67187L12.4881 9.67314L12.4539 9.67476L12.4198 9.67672L12.3858 9.67904L12.3518 9.6817L12.3179 9.68471L12.2842 9.68806L12.2505 9.69176L12.217 9.69579L12.1835 9.70015L12.1502 9.70486L12.117 9.70991L12.0839 9.71527L12.0509 9.72097L12.0181 9.72701L11.9853 9.73337L11.9528 9.74005L11.9203 9.74705L11.8879 9.75439L11.8558 9.76203L11.8238 9.76998L11.7919 9.77826L11.7601 9.78687L11.7286 9.79575L11.6972 9.80495L11.6659 9.81447L11.6348 9.82429L11.6038 9.83441L11.5731 9.84482L11.5425 9.85553L11.5121 9.86653L11.4818 9.87785L11.4517 9.88941L11.4218 9.90129L11.3921 9.91345L11.3626 9.92589L11.3333 9.93859L11.3041 9.95161L11.2752 9.96485L11.2465 9.9784L11.2179 9.99222L11.1896 10.0063L11.1614 10.0206L11.1336 10.0352L11.1058 10.0501L11.0783 10.0652L11.051 10.0806L11.0239 10.0962L10.9971 10.112L10.9704 10.1281L10.944 10.1445L10.9178 10.1611L10.8918 10.1779L10.8661 10.1949L10.8406 10.2122L10.8153 10.2297L10.7903 10.2474L10.7655 10.2654L10.7409 10.2836L10.7166 10.3019L10.6925 10.3206L10.6687 10.3393L10.6452 10.3583L10.6217 10.3776L10.5987 10.3969L10.5759 10.4166L10.5533 10.4364L10.5309 10.4564L10.5089 10.4765L10.4871 10.4969L10.4654 10.5175L10.4442 10.5381L10.4232 10.5591L10.4024 10.5801L10.3819 10.6013L10.3616 10.6228L10.3417 10.6443L10.322 10.666L10.3025 10.6879L10.2834 10.7099L10.2645 10.732L10.2458 10.7545L10.2275 10.7768L10.2094 10.7995L10.1916 10.8222L10.1741 10.8451L10.1568 10.8681L10.1399 10.8912L10.1232 10.9144L10.1067 10.9378L10.0906 10.9612L10.0748 10.9849L10.0592 11.0085L10.0439 11.0324L10.0289 11.0563L10.0142 11.0803L9.99972 11.1044L9.98555 11.1286L9.97168 11.1529L9.95811 11.1772L9.94482 11.2017L9.93177 11.2263L9.91905 11.2509L9.9066 11.2755L9.89441 11.3004L9.88256 11.3251L9.87096 11.35L9.85965 11.375L9.84865 11.3999L9.83789 11.4251L9.82746 11.4501L9.81731 11.4753L9.80742 11.5005L9.79783 11.5257L9.78852 11.551L9.77951 11.5763L9.77077 11.6016L9.76232 11.627L9.75416 11.6524L9.74628 11.6778L9.73868 11.7033L9.73137 11.7287L9.72434 11.7541L9.71758 11.7796L9.71112 11.8051L9.70493 11.8306L9.69902 11.856L9.6934 11.8815L9.68806 11.9069L9.68298 11.9324L9.67819 11.9579L9.67369 11.9833L9.66944 12.0087L9.66548 12.0341L9.66179 12.0594L9.65838 12.0847L9.65524 12.1101L9.65236 12.1354L9.64977 12.1606L9.64744 12.1857L9.64538 12.2109L9.64358 12.236L9.64206 12.261L9.64079 12.2861L9.6398 12.3109L9.63906 12.3359L9.63858 12.3607L9.63837 12.3855L9.63841 12.4102L9.63871 12.4348L9.63927 12.4594L9.64009 12.4839L9.64115 12.5083L9.64247 12.5326L9.64404 12.5568L9.64585 12.581L9.64792 12.6051L9.65023 12.6291L9.65279 12.653L9.65558 12.6768L9.65862 12.7005L9.6619 12.7241L9.66542 12.7477L9.66916 12.771L9.67315 12.7943L9.67737 12.8175L9.68182 12.8406L9.68649 12.8635L9.6914 12.8864L9.69653 12.9091L9.70188 12.9318L9.70745 12.9542L9.71325 12.9766L9.71925 12.9988L9.72548 13.0209L9.73193 13.0429L9.73857 13.0647L9.74543 13.0864L9.75252 13.1081L9.75978 13.1295L9.76725 13.1507L9.77493 13.1719L9.78281 13.1929L9.79088 13.2138L9.79915 13.2345L9.80762 13.255L9.81626 13.2754L9.82511 13.2957L9.83414 13.3158L9.84334 13.3357L9.85274 13.3555L9.86229 13.3751L9.87206 13.3946L9.88198 13.4139L9.89206 13.433L9.90232 13.4519L9.91276 13.4707L9.92335 13.4893L9.93413 13.5078L9.94503 13.526L9.95611 13.5441L9.96735 13.5621L9.97874 13.5798L9.99026 13.5973L10.002 13.6148L10.0138 13.632L10.0257 13.6489L10.0379 13.6659L10.0501 13.6825L10.0625 13.6989L10.0751 13.7152L10.0877 13.7313L10.1005 13.7472L10.1134 13.7629L10.1264 13.7785L10.1396 13.7938L10.1529 13.809L10.1662 13.8239L10.1798 13.8387L10.1933 13.8532L10.2071 13.8676L10.2209 13.8818L10.2348 13.8957L10.2489 13.9095L10.263 13.9231L10.2772 13.9364L10.2916 13.9497L10.3059 13.9626L10.3204 13.9754L10.335 13.988L10.3497 14.0004L10.3644 14.0125L10.3792 14.0245L10.3942 14.0363L10.4091 14.0478L10.4242 14.0592L10.4392 14.0704L10.4544 14.0814L10.4696 14.0921L10.485 14.1027L10.5002 14.113L10.5157 14.1232L10.5312 14.1331L10.5467 14.1429L10.5622 14.1524L10.5778 14.1618L10.5934 14.1709L10.6091 14.1798L10.6248 14.1886L10.6406 14.1971L10.6564 14.2054L10.6722 14.2135L10.688 14.2214L10.7039 14.2292L10.7197 14.2367L10.7357 14.244L10.7516 14.2511L10.7675 14.258L10.7835 14.2647L10.7994 14.2712L10.8154 14.2776L10.8314 14.2837L10.8473 14.2896L10.8633 14.2953L10.8794 14.3009L10.8952 14.3061L10.9113 14.3113L10.9271 14.3162L10.9431 14.321L10.9591 14.3255L10.9749 14.3299L10.9909 14.3341L11.0068 14.338L11.0226 14.3418L11.0384 14.3454L11.0542 14.3488L11.0699 14.352L11.0858 14.3551L11.1014 14.3579L11.1171 14.3606L11.1328 14.3631L11.1484 14.3654L11.1639 14.3675L11.1794 14.3694L11.1949 14.3712L11.2103 14.3728L11.2257 14.3742L11.2411 14.3754L11.2562 14.3765L11.2715 14.3774L11.2866 14.3781L11.3017 14.3786L11.3168 14.379L11.3317 14.3792L11.3467 14.3792L11.3614 14.3791L11.3762 14.3788L11.391 14.3784L11.4055 14.3778L11.4201 14.377L11.4346 14.3761L11.449 14.375L11.4633 14.3738L11.4776 14.3723L11.4916 14.3708L11.5058 14.3691L11.5197 14.3673L11.5336 14.3653L11.5475 14.3631L11.5613 14.3609L11.5748 14.3584L11.5884 14.3559L11.6018 14.3532L11.6152 14.3503L11.6284 14.3474L11.6416 14.3443L11.6546 14.341L11.6676 14.3376L11.6804 14.3342L11.6932 14.3305L11.7059 14.3268L11.7184 14.3229L11.7308 14.3189L11.7431 14.3148L11.7554 14.3106L11.7674 14.3062L11.7794 14.3018L11.7913 14.2972L11.8031 14.2925L11.8147 14.2877L11.8262 14.2828L11.8377 14.2778L11.849 14.2727L11.8602 14.2675L11.8712 14.2622L11.8822 14.2568L11.893 14.2513L11.9037 14.2457L11.9143 14.24L11.9247 14.2343L11.935 14.2284L11.9453 14.2225L11.9554 14.2164L11.9653 14.2103L11.9751 14.2042L11.9848 14.1979L11.9944 14.1915L12.0039 14.1851L12.0132 14.1787L12.0224 14.1721L12.0314 14.1655L12.0404 14.1588L12.0492 14.1521L12.0578 14.1453L12.0663 14.1384L12.0748 14.1315L12.0831 14.1244L12.0912 14.1175L12.0992 14.1104L12.1071 14.1033L12.1149 14.0961L12.1225 14.0889L12.13 14.0816L12.1373 14.0743L12.1446 14.0669L12.1516 14.0596L12.1586 14.0522L12.1654 14.0447L12.1721 14.0373L12.1787 14.0297L12.1851 14.0222L12.1914 14.0147L12.1976 14.0071L12.2036 13.9995L12.2095 13.9919L12.2153 13.9843L12.221 13.9765L12.2264 13.9689L12.2318 13.9613L12.2371 13.9535L12.2422 13.9459L12.2472 13.9382L12.2521 13.9305L12.2569 13.9228L12.2615 13.9151L12.2659 13.9074L12.2703 13.8997L12.2745 13.8921L12.2787 13.8844L12.2827 13.8767L12.2865 13.8691L12.2903 13.8615L12.2939 13.8538L12.2974 13.8462L12.3008 13.8386L12.3041 13.8311L12.3072 13.8236L12.3103 13.816L12.3132 13.8086L12.316 13.8011L12.3187 13.7936L12.3212 13.7863L12.3237 13.7789L12.3261 13.7715L12.3283 13.7643L12.3304 13.757L12.3325 13.7498L12.3344 13.7426L12.3362 13.7354L12.3379 13.7284L12.3395 13.7213L12.341 13.7144L12.3424 13.7074L12.3437 13.7005L12.3449 13.6937L12.346 13.6868L12.347 13.6801L12.3479 13.6735L12.3488 13.6667L12.3495 13.6602L12.3501 13.6538L12.3507 13.6472L12.3512 13.6408L12.3515 13.6346L12.3518 13.6283L12.3521 13.6221L12.3522 13.6159L12.3523 13.6099L12.3522 13.6039L12.3521 13.5981L12.352 13.5922L12.3517 13.5864L12.3514 13.5807L12.351 13.575L12.3506 13.5695L12.3501 13.5641L12.3495 13.5586L12.3488 13.5533L12.3481 13.5481L12.3474 13.5429L12.3465 13.5378L12.3457 13.5328L12.3447 13.5279L12.3438 13.5231L12.3427 13.5183L12.3417 13.5136L12.3405 13.509L12.3394 13.5046L12.3382 13.5001L12.3369 13.4957L12.3357 13.4916L12.3343 13.4873L12.333 13.4833L12.3316 13.4793L12.3302 13.4753L12.3287 13.4716L12.3273 13.4678L12.3258 13.4642L12.3242 13.4606L12.3227 13.4571L12.3212 13.4538L12.3196 13.4505L12.318 13.4473L12.3164 13.4442L12.3148 13.4411L12.3132 13.4382L12.3116 13.4353L12.31 13.4325L12.3083 13.4298L12.3067 13.4272L12.3051 13.4247L12.3035 13.4223L12.3019 13.4199L12.3003 13.4176L12.2987 13.4155L12.2971 13.4134L12.2955 13.4113L12.294 13.4094L12.2924 13.4075L12.2909 13.4057L12.2895 13.404L12.288 13.4024L12.2866 13.4008L12.2851 13.3994L12.2811 13.3953C12.0877 13.1982 12.0907 12.8816 12.2878 12.6882C12.4849 12.4948 12.8015 12.4978 12.9949 12.6949L13.0067 12.7069L13.0184 12.7193L13.0299 12.7318L13.0412 12.7445L13.0523 12.7574L13.0633 12.7704L13.0741 12.7836L13.0847 12.797L13.0951 12.8106L13.1054 12.8244L13.1155 12.8384L13.1253 12.8524L13.135 12.8667L13.1445 12.8811L13.1538 12.8957L13.1629 12.9104L13.1718 12.9253L13.1805 12.9403L13.1891 12.9555L13.1974 12.9708L13.2055 12.9863L13.2134 13.0019L13.2211 13.0177L13.2286 13.0335L13.2359 13.0495L13.243 13.0657L13.2499 13.082L13.2565 13.0983L13.263 13.1149L13.2692 13.1315L13.2753 13.1482L13.2811 13.1652L13.2866 13.1821L13.292 13.1992L13.2972 13.2164L13.3021 13.2337L13.3068 13.2511L13.3113 13.2686L13.3155 13.2862L13.3195 13.3039L13.3233 13.3216L13.3269 13.3395L13.3302 13.3574L13.3333 13.3755L13.3362 13.3936L13.3388 13.4117L13.3412 13.43L13.3434 13.4483L13.3454 13.4667L13.3471 13.4852L13.3485 13.5037L13.3497 13.5223L13.3507 13.5409L13.3515 13.5596L13.352 13.5783L13.3523 13.5972L13.3523 13.616L13.3521 13.6348L13.3516 13.6538L13.3509 13.6727L13.35 13.6917L13.3488 13.7107L13.3473 13.7297L13.3457 13.7488L13.3437 13.7679L13.3416 13.787L13.3391 13.8061L13.3365 13.8253L13.3336 13.8444L13.3304 13.8636L13.327 13.8827L13.3234 13.9019L13.3194 13.9211L13.3153 13.9402L13.3109 13.9594L13.3063 13.9785L13.3013 13.9977L13.2962 14.0167L13.2908 14.0358L13.2852 14.0549L13.2793 14.074L13.2732 14.0929L13.2668 14.112L13.2601 14.1309L13.2533 14.1498L13.2461 14.1687L13.2387 14.1876L13.2311 14.2063L13.2232 14.2251L13.2151 14.2438L13.2067 14.2624L13.1981 14.281L13.1893 14.2995L13.1802 14.318L13.1708 14.3364L13.1612 14.3547L13.1514 14.3729L13.1413 14.3911L13.131 14.4092L13.1204 14.4273L13.1096 14.4452L13.0985 14.4631L13.0873 14.4808L13.0757 14.4985L13.064 14.516L13.052 14.5335L13.0397 14.5509L13.0272 14.5682L13.0145 14.5853L13.0016 14.6024L12.9884 14.6193L12.975 14.6362L12.9613 14.6528L12.9475 14.6694L12.9334 14.6859L12.919 14.7022L12.9045 14.7184L12.8897 14.7345L12.8746 14.7505L12.8594 14.7663L12.844 14.7819L12.8283 14.7974L12.8124 14.8128L12.7963 14.828L12.78 14.8431L12.7634 14.858L12.7466 14.8728L12.7297 14.8873L12.7125 14.9018L12.6951 14.916L12.6775 14.9301L12.6597 14.9441L12.6417 14.9578L12.6235 14.9714L12.6051 14.9848L12.5865 14.998L12.5677 15.0111L12.5487 15.0239L12.5295 15.0366L12.5101 15.049L12.4905 15.0613L12.4708 15.0734L12.4508 15.0853L12.4307 15.097L12.4104 15.1084L12.3899 15.1197L12.3692 15.1308L12.3484 15.1416L12.3274 15.1523L12.3062 15.1627L12.2848 15.1729L12.2633 15.1829L12.2416 15.1926L12.2198 15.2022L12.1977 15.2115L12.1756 15.2206L12.1533 15.2294L12.1308 15.238L12.1082 15.2464L12.0854 15.2546L12.0625 15.2625L12.0394 15.2701L12.0162 15.2776L11.9929 15.2847L11.9694 15.2917L11.9458 15.2983L11.9221 15.3048L11.8982 15.3109L11.8742 15.3169L11.8501 15.3225L11.8259 15.3279L11.8015 15.3331L11.7771 15.338L11.7525 15.3426L11.7278 15.3469L11.7031 15.351L11.6782 15.3548L11.6532 15.3584L11.6281 15.3616L11.603 15.3646L11.5777 15.3674L11.5523 15.3698L11.5269 15.372L11.5014 15.3739L11.4758 15.3755L11.4501 15.3768L11.4243 15.3779L11.3985 15.3786L11.3727 15.3791L11.3467 15.3793L11.3207 15.3792L11.2946 15.3788L11.2685 15.3781L11.2424 15.3771L11.2162 15.3759L11.1899 15.3743L11.1636 15.3725L11.1373 15.3703L11.1109 15.3679L11.0845 15.3651L11.0581 15.3621L11.0316 15.3587L11.0051 15.3551L10.9786 15.3512L10.9521 15.3469L10.9256 15.3424L10.8991 15.3375L10.8725 15.3324L10.846 15.3269L10.8195 15.3212L10.7929 15.3151L10.7664 15.3088L10.7399 15.3021L10.7134 15.2951L10.687 15.2878L10.6605 15.2802L10.6341 15.2723L10.6077 15.2642L10.5813 15.2556L10.555 15.2468L10.5287 15.2377L10.5025 15.2283L10.4763 15.2185L10.4501 15.2085L10.4241 15.1982L10.398 15.1875L10.3721 15.1765L10.3462 15.1653L10.3203 15.1537L10.2946 15.1418L10.2688 15.1296L10.2433 15.1171L10.2177 15.1043L10.1923 15.0912L10.1669 15.0778L10.1416 15.0641L10.1165 15.0501L10.0914 15.0358L10.0664 15.0212L10.0416 15.0062L10.0168 14.991L9.99219 14.9755L9.96766 14.9597L9.94326 14.9436L9.91896 14.9271L9.89485 14.9105L9.87079 14.8934L9.84691 14.8761L9.82318 14.8585L9.79956 14.8407L9.77609 14.8225L9.75277 14.804L9.72962 14.7853L9.70659 14.7662L9.68375 14.7469L9.66106 14.7273L9.63853 14.7073L9.61617 14.6872L9.59398 14.6667L9.57196 14.6459L9.55014 14.6249L9.52848 14.6036L9.50701 14.582L9.48574 14.5602L9.46464 14.5381L9.44375 14.5157L9.42305 14.493L9.40257 14.4701L9.38227 14.4469L9.3622 14.4235L9.34231 14.3997L9.32265 14.3757L9.30322 14.3515L9.28399 14.327L9.265 14.3023L9.24624 14.2773L9.22768 14.252L9.20938 14.2265L9.1913 14.2008L9.17348 14.1748L9.15589 14.1486L9.13853 14.1221L9.12144 14.0954L9.10458 14.0685L9.08799 14.0413L9.07165 14.0139L9.05557 13.9863L9.03976 13.9585L9.02421 13.9304L9.00892 13.9021L8.99391 13.8736L8.97916 13.8449L8.96471 13.816L8.95052 13.7868L8.93662 13.7575L8.92299 13.728L8.90967 13.6982L8.89663 13.6683L8.88387 13.6381L8.87142 13.6078L8.85926 13.5773L8.8474 13.5466L8.83585 13.5157L8.82459 13.4846L8.81365 13.4534L8.80302 13.4219L8.79269 13.3903L8.78268 13.3586L8.77299 13.3267L8.76362 13.2946L8.75456 13.2623L8.74584 13.2299L8.73743 13.1974L8.72935 13.1647L8.7216 13.1318L8.71419 13.0988L8.70711 13.0657L8.70036 13.0324L8.69395 12.9991L8.68788 12.9655L8.68215 12.9319L8.67677 12.8981L8.67173 12.8642L8.66704 12.8302L8.66269 12.7961L8.6587 12.7619L8.65506 12.7276L8.65177 12.6931L8.64884 12.6586L8.64626 12.624L8.64405 12.5893L8.64219 12.5545L8.64069 12.5196L8.63956 12.4847L8.63879 12.4497L8.63839 12.4146L8.63835 12.3794L8.63869 12.3442L8.63939 12.3089L8.64046 12.2736L8.64191 12.2382L8.64372 12.2028L8.64591 12.1673L8.64848 12.1318L8.65142 12.0962L8.65474 12.0606L8.65844 12.025L8.66251 11.9894L8.66697 11.9538L8.6718 11.9181L8.67702 11.8824L8.68262 11.8467L8.6886 11.811L8.69496 11.7754L8.70171 11.7397L8.70884 11.704L8.71635 11.6684L8.72425 11.6327L8.73254 11.5971L8.74121 11.5615L8.75026 11.5259L8.75971 11.4904L8.76954 11.4549L8.77975 11.4195L8.79036 11.3841L8.80134 11.3487L8.81272 11.3135L8.82448 11.2782L8.83663 11.2431L8.84917 11.208L8.86209 11.1729L8.8754 11.138L8.8891 11.1031L8.90318 11.0683L8.91764 11.0336L8.9325 10.999L8.94773 10.9645L8.96335 10.9301L8.97936 10.8958L8.99574 10.8616L9.01251 10.8276L9.02966 10.7936L9.0472 10.7598L9.06511 10.7261L9.0834 10.6925L9.10208 10.6591L9.12112 10.6258L9.14055 10.5927L9.16035 10.5597L9.18053 10.5268L9.20107 10.4941L9.222 10.4616L9.24329 10.4292L9.26496 10.3971L9.287 10.365L9.30939 10.3332L9.33217 10.3015L9.35529 10.2701L9.37879 10.2388L9.40265 10.2077L9.42688 10.1768L9.45145 10.1461L9.47639 10.1157L9.50168 10.0854L9.52732 10.0554L9.55332 10.0255L9.57967 9.99591L9.60637 9.96653L9.6334 9.93739L9.66079 9.90848L9.68854 9.87979L9.71659 9.85138L9.745 9.8232L9.77376 9.79526L9.80282 9.7676L9.83224 9.74018L9.86198 9.71303L9.89206 9.68613L9.92243 9.65954L9.95316 9.63319L9.98419 9.60714L10.0155 9.58136L10.0472 9.55587L10.0792 9.53067L10.1115 9.50576L10.1441 9.48115L10.177 9.45684L10.2102 9.43284L10.2437 9.40915L10.2775 9.38576L10.3116 9.36269L10.346 9.33995L10.3807 9.31752L10.4156 9.29542L10.4508 9.27365L10.4864 9.25221L10.5221 9.23111L10.5582 9.21035L10.5945 9.18993L10.6311 9.16986L10.668 9.15014L10.7051 9.13077L10.7425 9.11176L10.7801 9.0931L10.818 9.07481L10.8561 9.05688L10.8945 9.03933L10.9331 9.02214L10.9719 9.00533L11.011 8.9889L11.0503 8.97285L11.0898 8.95718L11.1295 8.9419L11.1695 8.92701L11.2096 8.91251L11.25 8.89841L11.2906 8.8847L11.3314 8.87139L11.3724 8.85849L11.4135 8.846L11.4549 8.83391L11.4964 8.82223L11.5381 8.81097L11.58 8.80012L11.6221 8.78969L11.6644 8.77968L11.7068 8.77009L11.7493 8.76093L11.7921 8.7522L11.8349 8.74389L11.8779 8.73602L11.9211 8.72858L11.9644 8.72158L12.0078 8.71502L12.0514 8.70889L12.0951 8.70321L12.1389 8.69797L12.1828 8.69318L12.2269 8.68884L12.271 8.68494L12.3153 8.6815L12.3596 8.67851L12.4041 8.67597L12.4486 8.67389L12.4932 8.67226L12.5379 8.6711L12.5827 8.67039L12.6275 8.67018Z"
        fill="black"/>
</svg>
