<svg width="24" height="24" viewBox="0 0 24 24" fill="none" xmlns="http://www.w3.org/2000/svg">
<path fill-rule="evenodd" clip-rule="evenodd" d="M16 3.75C14.2051 3.75 12.75 5.20507 12.75 7C12.75 8.79493 14.2051 10.25 16 10.25C17.7949 10.25 19.25 8.79493 19.25 7C19.25 5.20507 17.7949 3.75 16 3.75ZM11.25 7C11.25 4.37665 13.3766 2.25 16 2.25C18.6234 2.25 20.75 4.37665 20.75 7C20.75 9.62335 18.6234 11.75 16 11.75C13.3766 11.75 11.25 9.62335 11.25 7ZM10.661 6.33899C10.9539 6.63188 10.9539 7.10675 10.661 7.39965L9.53033 8.53033C9.23744 8.82322 8.76256 8.82322 8.46967 8.53033C8.17678 8.23744 8.17678 7.76256 8.46967 7.46967L9.60035 6.33899C9.89325 6.04609 10.3681 6.04609 10.661 6.33899ZM11.0303 8.96967C11.3232 9.26256 11.3232 9.73744 11.0303 10.0303L8.53033 12.5303C8.23744 12.8232 7.76256 12.8232 7.46967 12.5303C7.17678 12.2374 7.17678 11.7626 7.46967 11.4697L9.96967 8.96967C10.2626 8.67678 10.7374 8.67678 11.0303 8.96967ZM12.0303 10.9697C12.3232 11.2626 12.3232 11.7374 12.0303 12.0303L3.53033 20.5303C3.23744 20.8232 2.76256 20.8232 2.46967 20.5303C2.17678 20.2374 2.17678 19.7626 2.46967 19.4697L10.9697 10.9697C11.2626 10.6768 11.7374 10.6768 12.0303 10.9697ZM14.0303 11.9697C14.3232 12.2626 14.3232 12.7374 14.0303 13.0303L8.03033 19.0303C7.73744 19.3232 7.26256 19.3232 6.96967 19.0303C6.67678 18.7374 6.67678 18.2626 6.96967 17.9697L12.9697 11.9697C13.2626 11.6768 13.7374 11.6768 14.0303 11.9697ZM16.5303 12.4697C16.8232 12.7626 16.8232 13.2374 16.5303 13.5303L14.0303 16.0303C13.7374 16.3232 13.2626 16.3232 12.9697 16.0303C12.6768 15.7374 12.6768 15.2626 12.9697 14.9697L15.4697 12.4697C15.7626 12.1768 16.2374 12.1768 16.5303 12.4697ZM7.03033 12.9697C7.32322 13.2626 7.32322 13.7374 7.03033 14.0303L4.03033 17.0303C3.73744 17.3232 3.26256 17.3232 2.96967 17.0303C2.67678 16.7374 2.67678 16.2626 2.96967 15.9697L5.96967 12.9697C6.26256 12.6768 6.73744 12.6768 7.03033 12.9697Z" fill="black"/>
</svg>
