<svg width="24" height="24" viewBox="0 0 24 24" fill="none" xmlns="http://www.w3.org/2000/svg">
  <path fill-rule="evenodd" clip-rule="evenodd"
        d="M16 3.5C14.067 3.5 12.5 5.067 12.5 7C12.5 8.933 14.067 10.5 16 10.5C17.933 10.5 19.5 8.933 19.5 7C19.5 5.067 17.933 3.5 16 3.5ZM11.5 7C11.5 4.51472 13.5147 2.5 16 2.5C18.4853 2.5 20.5 4.51472 20.5 7C20.5 9.48528 18.4853 11.5 16 11.5C13.5147 11.5 11.5 9.48528 11.5 7ZM10.8536 6.14645C11.0488 6.34171 11.0488 6.65829 10.8536 6.85355L9.35355 8.35355C9.15829 8.54882 8.84171 8.54882 8.64645 8.35355C8.45118 8.15829 8.45118 7.84171 8.64645 7.64645L10.1464 6.14645C10.3417 5.95118 10.6583 5.95118 10.8536 6.14645ZM11.3536 8.64645C11.5488 8.84171 11.5488 9.15829 11.3536 9.35355L8.35355 12.3536C8.15829 12.5488 7.84171 12.5488 7.64645 12.3536C7.45118 12.1583 7.45118 11.8417 7.64645 11.6464L10.6464 8.64645C10.8417 8.45118 11.1583 8.45118 11.3536 8.64645ZM12.3536 10.6464C12.5488 10.8417 12.5488 11.1583 12.3536 11.3536L3.35355 20.3536C3.15829 20.5488 2.84171 20.5488 2.64645 20.3536C2.45118 20.1583 2.45118 19.8417 2.64645 19.6464L11.6464 10.6464C11.8417 10.4512 12.1583 10.4512 12.3536 10.6464ZM14.3536 11.6464C14.5488 11.8417 14.5488 12.1583 14.3536 12.3536L7.85355 18.8536C7.65829 19.0488 7.34171 19.0488 7.14645 18.8536C6.95118 18.6583 6.95118 18.3417 7.14645 18.1464L13.6464 11.6464C13.8417 11.4512 14.1583 11.4512 14.3536 11.6464ZM16.8536 12.1464C17.0488 12.3417 17.0488 12.6583 16.8536 12.8536L13.8536 15.8536C13.6583 16.0488 13.3417 16.0488 13.1464 15.8536C12.9512 15.6583 12.9512 15.3417 13.1464 15.1464L16.1464 12.1464C16.3417 11.9512 16.6583 11.9512 16.8536 12.1464ZM6.85355 13.1464C7.04882 13.3417 7.04882 13.6583 6.85355 13.8536L3.85355 16.8536C3.65829 17.0488 3.34171 17.0488 3.14645 16.8536C2.95118 16.6583 2.95118 16.3417 3.14645 16.1464L6.14645 13.1464C6.34171 12.9512 6.65829 12.9512 6.85355 13.1464Z"
        fill="black"/>
</svg>
