<svg width="24" height="24" viewBox="0 0 24 24" fill="none" xmlns="http://www.w3.org/2000/svg">
  <path fill-rule="evenodd" clip-rule="evenodd"
        d="M12 2.5C11.1716 2.5 10.5 3.17157 10.5 4C10.5 4.82843 11.1716 5.5 12 5.5C12.8284 5.5 13.5 4.82843 13.5 4C13.5 3.17157 12.8284 2.5 12 2.5ZM9.5 4C9.5 2.61929 10.6193 1.5 12 1.5C13.3807 1.5 14.5 2.61929 14.5 4C14.5 4.07608 14.4966 4.15136 14.4899 4.22571L18.5725 6.94738C18.9772 6.66537 19.4693 6.5 20 6.5C21.3807 6.5 22.5 7.61929 22.5 9C22.5 10.3807 21.3807 11.5 20 11.5C19.7643 11.5 19.5363 11.4674 19.3202 11.4065L16.4 15.3C16.2343 15.5209 15.9209 15.5657 15.7 15.4C15.4791 15.2343 15.4343 14.9209 15.6 14.7L18.4212 10.9385C17.859 10.48 17.5 9.78194 17.5 9C17.5 8.51701 17.637 8.066 17.8742 7.68371L14.1815 5.22195C13.7534 5.98464 12.9369 6.5 12 6.5C11.0631 6.5 10.2466 5.98464 9.81847 5.22195L6.12582 7.68371C6.36303 8.066 6.5 8.51701 6.5 9C6.5 9.78194 6.14101 10.48 5.57885 10.9385L8.4 14.7C8.56569 14.9209 8.52091 15.2343 8.3 15.4C8.07909 15.5657 7.76569 15.5209 7.6 15.3L4.67984 11.4065C4.46368 11.4674 4.23565 11.5 4 11.5C2.61929 11.5 1.5 10.3807 1.5 9C1.5 7.61929 2.61929 6.5 4 6.5C4.53071 6.5 5.02279 6.66537 5.42754 6.94738L9.51005 4.22571C9.5034 4.15136 9.5 4.07608 9.5 4ZM4 7.5C3.17157 7.5 2.5 8.17157 2.5 9C2.5 9.82843 3.17157 10.5 4 10.5C4.82843 10.5 5.5 9.82843 5.5 9C5.5 8.17157 4.82843 7.5 4 7.5ZM20 7.5C19.1716 7.5 18.5 8.17157 18.5 9C18.5 9.82843 19.1716 10.5 20 10.5C20.8284 10.5 21.5 9.82843 21.5 9C21.5 8.17157 20.8284 7.5 20 7.5ZM12 10.5C10.6193 10.5 9.5 11.6193 9.5 13C9.5 14.3807 10.6193 15.5 12 15.5C13.3807 15.5 14.5 14.3807 14.5 13C14.5 11.6193 13.3807 10.5 12 10.5ZM8.5 13C8.5 11.067 10.067 9.5 12 9.5C13.933 9.5 15.5 11.067 15.5 13C15.5 14.933 13.933 16.5 12 16.5C10.067 16.5 8.5 14.933 8.5 13ZM7.36746 18.4391C7.92721 17.842 8.69356 17.5 9.5 17.5H14.5C15.3064 17.5 16.0728 17.842 16.6325 18.4391C17.1913 19.0351 17.5 19.8369 17.5 20.6667V22C17.5 22.2761 17.2761 22.5 17 22.5C16.7239 22.5 16.5 22.2761 16.5 22V20.6667C16.5 20.082 16.282 19.5272 15.903 19.123C15.5251 18.7199 15.0196 18.5 14.5 18.5H9.5C8.98036 18.5 8.47493 18.7199 8.097 19.123C7.71805 19.5272 7.5 20.082 7.5 20.6667V22C7.5 22.2761 7.27614 22.5 7 22.5C6.72386 22.5 6.5 22.2761 6.5 22V20.6667C6.5 19.8369 6.80874 19.0351 7.36746 18.4391Z"
        fill="black"/>
</svg>
