<svg width="24" height="24" viewBox="0 0 24 24" fill="none" xmlns="http://www.w3.org/2000/svg">
<path fill-rule="evenodd" clip-rule="evenodd" d="M12 4.75C11.5306 4.75 11.15 5.13056 11.15 5.6C11.15 6.06944 11.5306 6.45 12 6.45C12.4694 6.45 12.85 6.06944 12.85 5.6C12.85 5.13056 12.4694 4.75 12 4.75ZM9.65 5.59861C9.65075 4.30138 10.7026 3.25 12 3.25C13.2974 3.25 14.3493 4.30138 14.35 5.59861L17.2649 7.54185C17.6014 7.35586 17.9883 7.25 18.4 7.25C19.6979 7.25 20.75 8.30213 20.75 9.6C20.75 10.8979 19.6979 11.95 18.4 11.95C18.2638 11.95 18.1303 11.9384 18.0004 11.9162L17 13.25C16.7515 13.5814 16.2814 13.6485 15.95 13.4C15.6186 13.1515 15.5515 12.6814 15.8 12.35L16.6698 11.1903C16.285 10.7718 16.05 10.2133 16.05 9.6C16.05 9.2673 16.1191 8.95076 16.2438 8.66394L13.8403 7.06159C13.4098 7.60294 12.7454 7.95 12 7.95C11.2546 7.95 10.5902 7.60294 10.1597 7.06159L7.75618 8.66394C7.88086 8.95076 7.95 9.2673 7.95 9.6C7.95 10.2133 7.71503 10.7718 7.3302 11.1903L8.2 12.35C8.44853 12.6814 8.38137 13.1515 8.05 13.4C7.71863 13.6485 7.24853 13.5814 7 13.25L5.99962 11.9162C5.86974 11.9384 5.73622 11.95 5.6 11.95C4.30213 11.95 3.25 10.8979 3.25 9.6C3.25 8.30213 4.30213 7.25 5.6 7.25C6.01169 7.25 6.39865 7.35586 6.73514 7.54185L9.65 5.59861ZM5.6 8.75C5.13056 8.75 4.75 9.13056 4.75 9.6C4.75 10.0694 5.13056 10.45 5.6 10.45C6.06944 10.45 6.45 10.0694 6.45 9.6C6.45 9.13056 6.06944 8.75 5.6 8.75ZM18.4 8.75C17.9306 8.75 17.55 9.13056 17.55 9.6C17.55 10.0694 17.9306 10.45 18.4 10.45C18.8694 10.45 19.25 10.0694 19.25 9.6C19.25 9.13056 18.8694 8.75 18.4 8.75ZM12 11.15C11.0887 11.15 10.35 11.8887 10.35 12.8C10.35 13.7113 11.0887 14.45 12 14.45C12.9113 14.45 13.65 13.7113 13.65 12.8C13.65 11.8887 12.9113 11.15 12 11.15ZM8.85 12.8C8.85 11.0603 10.2603 9.65 12 9.65C13.7397 9.65 15.15 11.0603 15.15 12.8C15.15 14.5397 13.7397 15.95 12 15.95C10.2603 15.95 8.85 14.5397 8.85 12.8ZM8.03863 16.9119C8.55007 16.3663 9.25446 16.05 10 16.05H14C14.7455 16.05 15.4499 16.3663 15.9614 16.9119C16.4713 17.4558 16.75 18.1837 16.75 18.9333V20C16.75 20.4142 16.4142 20.75 16 20.75C15.5858 20.75 15.25 20.4142 15.25 20V18.9333C15.25 18.5514 15.1073 18.1941 14.8671 17.9378C14.6284 17.6832 14.3153 17.55 14 17.55H10C9.68467 17.55 9.37165 17.6832 9.13294 17.9378C8.89269 18.1941 8.75 18.5514 8.75 18.9333V20C8.75 20.4142 8.41421 20.75 8 20.75C7.58579 20.75 7.25 20.4142 7.25 20V18.9333C7.25 18.1837 7.52873 17.4558 8.03863 16.9119Z" fill="black"/>
</svg>
