<svg width="24" height="24" viewBox="0 0 24 24" fill="none" xmlns="http://www.w3.org/2000/svg">
  <path
    d="M19 20C19.5523 20 20 19.5523 20 19V17C20 15.9391 19.5786 14.9217 18.8284 14.1716C18.0783 13.4214 17.0609 13 16 13H8C6.93913 13 5.92172 13.4214 5.17157 14.1716C4.42143 14.9217 4 15.9391 4 17V19C4 19.5523 4.44772 20 5 20H19Z"
    fill="black"/>
  <path
    d="M16 8C16 10.2091 14.2091 12 12 12C9.79086 12 8 10.2091 8 8C8 5.79086 9.79086 4 12 4C14.2091 4 16 5.79086 16 8Z"
    fill="black"/>
</svg>
