<svg width="24" height="24" viewBox="0 0 24 24" fill="none" xmlns="http://www.w3.org/2000/svg">
  <path fill-rule="evenodd" clip-rule="evenodd"
        d="M3.00999 4.96859C2.18551 3.99363 2.87851 2.5 4.15535 2.5H19.8447C21.1216 2.5 21.8146 3.99363 20.9901 4.96859L14.6183 12.5033C14.5419 12.5935 14.5 12.7079 14.5 12.8261V20.382C14.5 21.497 13.3266 22.2223 12.3292 21.7236L10.3292 20.7236C9.82105 20.4695 9.50005 19.9501 9.50005 19.382V12.8261C9.50005 12.7079 9.45816 12.5935 9.38183 12.5033L3.00999 4.96859ZM4.15535 3.5C3.72974 3.5 3.49873 3.99788 3.77356 4.32286L10.1454 11.8576C10.3744 12.1283 10.5 12.4715 10.5 12.8261V19.382C10.5 19.5714 10.607 19.7445 10.7764 19.8292L12.7764 20.8292C13.1089 20.9954 13.5 20.7537 13.5 20.382V12.8261C13.5 12.4715 13.6257 12.1283 13.8547 11.8576L20.2265 4.32286C20.5014 3.99788 20.2704 3.5 19.8447 3.5H4.15535Z"
        fill="black"/>
</svg>
