<svg width="24" height="24" viewBox="0 0 24 24" fill="none"
     xmlns="http://www.w3.org/2000/svg">
  <path fill-rule="evenodd" clip-rule="evenodd"
        d="M3.77706 6.11561C2.83303 4.97468 3.6445 3.25 5.12536 3.25H18.8746C20.3555 3.25 21.167 4.97469 20.2229 6.11561L14.8074 12.6607C14.7703 12.7055 14.75 12.7619 14.75 12.8201V19.382C14.75 20.6829 13.381 21.529 12.2174 20.9472L10.2174 19.9472C9.6245 19.6508 9.25 19.0448 9.25 18.382V12.8201C9.25 12.7619 9.22971 12.7055 9.19261 12.6607L3.77706 6.11561ZM5.12536 4.75C4.91381 4.75 4.79788 4.99638 4.93274 5.15937L10.3483 11.7045C10.6079 12.0183 10.75 12.4128 10.75 12.8201V18.382C10.75 18.4767 10.8035 18.5632 10.8882 18.6056L12.8882 19.6056C13.0544 19.6887 13.25 19.5678 13.25 19.382V12.8201C13.25 12.4128 13.3921 12.0183 13.6517 11.7045L19.0673 5.15937C19.2021 4.99638 19.0862 4.75 18.8746 4.75H5.12536Z"
        fill="black"/>
</svg>
