<svg width="24" height="24" viewBox="0 0 24 24" fill="none" xmlns="http://www.w3.org/2000/svg">
<path fill-rule="evenodd" clip-rule="evenodd" d="M10.5303 17.5303C10.2374 17.8232 9.76256 17.8232 9.46967 17.5303L4.46965 12.5303C4.329 12.3897 4.24998 12.1989 4.24998 12C4.24998 11.8011 4.329 11.6103 4.46965 11.4697L9.46967 6.46967C9.76256 6.17678 10.2374 6.17678 10.5303 6.46967C10.8232 6.76256 10.8232 7.23744 10.5303 7.53033L6.81065 11.25L19 11.25C19.4142 11.25 19.75 11.5858 19.75 12C19.75 12.4142 19.4142 12.75 19 12.75L6.81064 12.75L10.5303 16.4697C10.8232 16.7626 10.8232 17.2374 10.5303 17.5303Z" fill="black"/>
</svg>
