<svg width="24" height="24" viewBox="0 0 24 24" fill="none" xmlns="http://www.w3.org/2000/svg">
  <path fill-rule="evenodd" clip-rule="evenodd"
        d="M10.2841 3.3915C11.3495 2.79219 12.6505 2.79219 13.7159 3.3915L19.2257 6.49073C20.0128 6.93353 20.5 7.76649 20.5 8.66967V15.3303C20.5 16.2335 20.0128 17.0664 19.2257 17.5092L13.2257 20.8842C12.4646 21.3123 11.5354 21.3123 10.7743 20.8842L4.77435 17.5092C3.98716 17.0664 3.5 16.2335 3.5 15.3303V8.66967C3.5 7.76648 3.98715 6.93353 4.77435 6.49073L10.2841 3.3915ZM13.2257 4.26308C12.4646 3.835 11.5354 3.835 10.7743 4.26308L5.26461 7.36231C4.79229 7.62798 4.5 8.12776 4.5 8.66967V15.3303C4.5 15.8722 4.79229 16.372 5.26461 16.6376L11.2646 20.0126C11.7212 20.2695 12.2788 20.2695 12.7354 20.0126L18.7354 16.6376C19.2077 16.372 19.5 15.8722 19.5 15.3303V8.66967C19.5 8.12776 19.2077 7.62798 18.7354 7.36231L13.2257 4.26308Z"
        fill="black"/>
</svg>
