<svg width="24" height="24" viewBox="0 0 24 24" fill="none"
     xmlns="http://www.w3.org/2000/svg">
  <path fill-rule="evenodd" clip-rule="evenodd"
        d="M10.1615 3.17361C11.3031 2.53149 12.6969 2.53149 13.8385 3.17361L19.3482 6.27284C20.2141 6.75991 20.75 7.67617 20.75 8.66967V15.3303C20.75 16.3238 20.2141 17.24 19.3482 17.7271L13.3482 21.1021C12.5111 21.573 11.4889 21.573 10.6518 21.1021L4.65178 17.7271C3.78587 17.24 3.25 16.3238 3.25 15.3303V8.66967C3.25 7.67617 3.78587 6.75991 4.65178 6.27284L10.1615 3.17361ZM13.1031 4.48097C12.4182 4.0957 11.5818 4.0957 10.8969 4.48097L5.38717 7.5802C4.99358 7.8016 4.75 8.21808 4.75 8.66967V15.3303C4.75 15.7819 4.99358 16.1983 5.38717 16.4197L11.3872 19.7947C11.7677 20.0088 12.2323 20.0088 12.6128 19.7947L18.6128 16.4197C19.0064 16.1983 19.25 15.7819 19.25 15.3303V8.66967C19.25 8.21808 19.0064 7.8016 18.6128 7.5802L13.1031 4.48097Z"
        fill="black"/>
</svg>
