<svg width="24" height="24" viewBox="0 0 24 24" fill="none"
     xmlns="http://www.w3.org/2000/svg">
  <path fill-rule="evenodd" clip-rule="evenodd"
        d="M10.7653 3.5836L5.555 6.61047C5.54161 6.61721 5.52837 6.62438 5.5153 6.63197C5.09355 6.87698 4.76104 7.23544 4.54332 7.6537C4.35356 8.01824 4.25 8.42992 4.25 8.85574V14.8748C4.25 15.3413 4.37431 15.7909 4.60016 16.1802C4.81707 16.5541 5.12874 16.874 5.5153 17.0986L10.7653 20.1485C11.147 20.3703 11.573 20.4821 12 20.4821C12.427 20.4821 12.853 20.3703 13.2347 20.1485L18.4847 17.0986C18.8713 16.874 19.1829 16.5541 19.3998 16.1802C19.6257 15.7909 19.75 15.3413 19.75 14.8748V8.85574C19.75 8.42992 19.6464 8.01824 19.4567 7.6537C19.239 7.23544 18.9065 6.87698 18.4847 6.63197C18.4715 6.62431 18.4582 6.61709 18.4447 6.61032L13.2347 3.5836C12.853 3.36183 12.427 3.25 12 3.25C11.573 3.25 11.147 3.36183 10.7653 3.5836ZM12.75 5.03677V5.89757L15.1406 6.42558L12.75 5.03677ZM17.821 8.55373L13.4215 7.58202L16.3366 13.0884L17.821 8.55373ZM15.2543 14.25L12 8.10294L8.74568 14.25H15.2543ZM7.66341 13.0884L10.5785 7.58202L6.17901 8.55373L7.66341 13.0884ZM8.85937 6.42558L11.25 5.89757V5.03677L8.85937 6.42558ZM5.75 12.0647V14.8285L6.56002 14.5393L5.75 12.0647ZM7.29273 15.8704L6.73194 16.0706L8.4104 17.0457L7.29273 15.8704ZM15.5896 17.0457L17.2681 16.0706L16.7073 15.8704L15.5896 17.0457ZM14.7518 15.75H9.24818L12 18.6438L14.7518 15.75ZM17.44 14.5393L18.25 14.8285V12.0647L17.44 14.5393Z"
        fill="black"/>
</svg>
