<svg width="24" height="24" viewBox="0 0 24 24" fill="none"
     xmlns="http://www.w3.org/2000/svg">
  <path fill-rule="evenodd" clip-rule="evenodd"
        d="M4.25 8C4.25 5.92893 5.92893 4.25 8 4.25H16C18.0711 4.25 19.75 5.92893 19.75 8V16C19.75 18.0711 18.0711 19.75 16 19.75H8C5.92893 19.75 4.25 18.0711 4.25 16V8ZM8 5.75C6.75736 5.75 5.75 6.75736 5.75 8V16C5.75 17.2426 6.75736 18.25 8 18.25H16C17.2426 18.25 18.25 17.2426 18.25 16V8C18.25 6.75736 17.2426 5.75 16 5.75H8Z"
        fill="black"/>
  <path
    d="M10 9C10 9.55228 9.55228 10 9 10C8.44772 10 8 9.55228 8 9C8 8.44772 8.44772 8 9 8C9.55228 8 10 8.44772 10 9Z"
    fill="black"/>
  <path
    d="M16 9C16 9.55228 15.5523 10 15 10C14.4477 10 14 9.55228 14 9C14 8.44772 14.4477 8 15 8C15.5523 8 16 8.44772 16 9Z"
    fill="black"/>
  <path
    d="M13 12C13 12.5523 12.5523 13 12 13C11.4477 13 11 12.5523 11 12C11 11.4477 11.4477 11 12 11C12.5523 11 13 11.4477 13 12Z"
    fill="black"/>
  <path
    d="M16 15C16 15.5523 15.5523 16 15 16C14.4477 16 14 15.5523 14 15C14 14.4477 14.4477 14 15 14C15.5523 14 16 14.4477 16 15Z"
    fill="black"/>
  <path
    d="M10 15C10 15.5523 9.55228 16 9 16C8.44772 16 8 15.5523 8 15C8 14.4477 8.44772 14 9 14C9.55228 14 10 14.4477 10 15Z"
    fill="black"/>
</svg>
