<svg width="24" height="24" viewBox="0 0 24 24" fill="none"
     xmlns="http://www.w3.org/2000/svg">
  <path fill-rule="evenodd" clip-rule="evenodd"
        d="M11.3661 3.78697C11.4594 3.98513 11.4129 4.22097 11.2514 4.36885C10.0658 5.45397 9.32344 7.01259 9.32344 8.74533C9.32344 12.0211 11.979 14.6766 15.2547 14.6766C16.9874 14.6766 18.5461 13.9342 19.6312 12.7487C19.7791 12.5871 20.0149 12.5406 20.2131 12.6339C20.4112 12.7272 20.5256 12.9387 20.4952 13.1556C19.9138 17.3062 16.3498 20.5 12.0391 20.5C7.32307 20.5 3.5 16.677 3.5 11.961C3.5 7.65019 6.69381 4.08624 10.8444 3.50486C11.0613 3.47447 11.2728 3.58881 11.3661 3.78697Z"
        fill="black"/>
</svg>
