<svg width="24" height="24" viewBox="0 0 24 24" fill="none"
     xmlns="http://www.w3.org/2000/svg">
  <path fill-rule="evenodd" clip-rule="evenodd"
        d="M12 2.5C7.30558 2.5 3.5 6.30558 3.5 11C3.5 12.6534 3.97157 14.1952 4.78747 15.5H19.2125C20.0284 14.1952 20.5 12.6534 20.5 11C20.5 6.30558 16.6944 2.5 12 2.5ZM19.4845 16.5H4.51555C3.95468 16.5 3.5 16.9547 3.5 17.5155V21C3.5 21.2761 3.72386 21.5 4 21.5H20C20.2761 21.5 20.5 21.2761 20.5 21V17.5155C20.5 16.9547 20.0453 16.5 19.4845 16.5ZM3.7211 15.6626C2.94364 14.2849 2.5 12.6937 2.5 11C2.5 5.75329 6.75329 1.5 12 1.5C17.2467 1.5 21.5 5.75329 21.5 11C21.5 12.6937 21.0564 14.2849 20.2789 15.6626C20.997 15.9709 21.5 16.6845 21.5 17.5155V21C21.5 21.8284 20.8284 22.5 20 22.5H4C3.17157 22.5 2.5 21.8284 2.5 21V17.5155C2.5 16.6845 3.00297 15.9709 3.7211 15.6626ZM9.5 7.5C9.5 6.11929 10.6193 5 12 5C13.3807 5 14.5 6.11929 14.5 7.5C14.5 8.88071 13.3807 10 12 10C10.6193 10 9.5 8.88071 9.5 7.5ZM13.5 7.5C13.5 6.67157 12.8284 6 12 6C11.1716 6 10.5 6.67157 10.5 7.5C10.5 8.32843 11.1716 9 12 9C12.8284 9 13.5 8.32843 13.5 7.5ZM8.49017 13.5987C8.43573 13.8691 8.17252 14.0444 7.90194 13.9903C7.63116 13.9361 7.45555 13.6727 7.50971 13.4019L8 13.5C7.50971 13.4019 7.50964 13.4023 7.50971 13.4019L7.50999 13.4005L7.51033 13.3989L7.51116 13.3949L7.51348 13.3842C7.51534 13.3759 7.51783 13.3651 7.52102 13.3522C7.52741 13.3263 7.53665 13.2914 7.54941 13.2489C7.5749 13.1639 7.61462 13.0477 7.67403 12.9106C7.79264 12.6369 7.99159 12.2758 8.31585 11.9155C8.97746 11.1804 10.1148 10.5 12 10.5C13.8852 10.5 15.0225 11.1804 15.6841 11.9155C16.0084 12.2758 16.2074 12.6369 16.326 12.9106C16.3854 13.0477 16.4251 13.1639 16.4506 13.2489C16.4634 13.2914 16.4726 13.3263 16.479 13.3522C16.4822 13.3651 16.4847 13.3759 16.4865 13.3842L16.4888 13.3949L16.4897 13.3989L16.49 13.4005C16.4901 13.4009 16.4903 13.4019 16 13.5L16.4903 13.4019C16.5444 13.6727 16.3688 13.9361 16.0981 13.9903C15.8284 14.0442 15.5661 13.8703 15.5104 13.6014L15.5081 13.5917C15.5054 13.5809 15.5005 13.5621 15.4928 13.5363C15.4772 13.4845 15.4506 13.4055 15.4084 13.3082C15.3239 13.1131 15.1791 12.8492 14.9409 12.5845C14.4775 12.0696 13.6148 11.5 12 11.5C10.3852 11.5 9.52254 12.0696 9.05915 12.5845C8.82091 12.8492 8.67611 13.1131 8.59159 13.3082C8.54944 13.4055 8.52276 13.4845 8.50723 13.5363C8.49949 13.5621 8.49457 13.5809 8.49192 13.5917L8.4896 13.6015L8.49017 13.5987ZM5.9987 17C6.13176 16.9997 6.25947 17.0524 6.35355 17.1464L7.85355 18.6464C8.04882 18.8417 8.04882 19.1583 7.85355 19.3536L6.35355 20.8536C6.25947 20.9476 6.13176 21.0003 5.9987 21C5.86564 20.9997 5.73821 20.9463 5.64461 20.8517L4.16016 19.3517C3.96735 19.1569 3.96735 18.8431 4.16016 18.6483L5.64461 17.1483C5.73821 17.0537 5.86564 17.0003 5.9987 17ZM6.00185 18.209L5.219 19L6.00185 19.791L6.79289 19L6.00185 18.209ZM9.5 18C9.5 17.7239 9.72386 17.5 10 17.5H18C18.2761 17.5 18.5 17.7239 18.5 18C18.5 18.2761 18.2761 18.5 18 18.5H10C9.72386 18.5 9.5 18.2761 9.5 18ZM9.5 20C9.5 19.7239 9.72386 19.5 10 19.5H14C14.2761 19.5 14.5 19.7239 14.5 20C14.5 20.2761 14.2761 20.5 14 20.5H10C9.72386 20.5 9.5 20.2761 9.5 20Z"
        fill="black"/>
</svg>
