<svg width="24" height="24" viewBox="0 0 24 24" fill="none"
	xmlns="http://www.w3.org/2000/svg">
	<path fill-rule="evenodd" clip-rule="evenodd" d="M3 21C3 21.5523 3.44772 22 4 22H20C20.5523 22 21 21.5523 21 21V17.5155C21 16.6785 20.3215 16 19.4845 16C20.4417 14.5699 21 12.8501 21 11C21 6.02944 16.9706 2 12 2C7.02944 2 3 6.02944 3 11C3 12.8501 3.55827 14.5699 4.51555 16C3.67853 16 3 16.6785 3 17.5155V21ZM12 10C13.1046 10 14 9.10457 14 8C14 6.89543 13.1046 6 12 6C10.8954 6 10 6.89543 10 8C10 9.10457 10.8954 10 12 10ZM7.90192 13.9903C8.17156 14.0442 8.4339 13.8703 8.48957 13.6015L8.49189 13.5917C8.49454 13.5809 8.49946 13.5621 8.50721 13.5363C8.52273 13.4845 8.54941 13.4055 8.59156 13.3082C8.67608 13.1131 8.82089 12.8492 9.05912 12.5845C9.52252 12.0696 10.3852 11.5 12 11.5C13.6148 11.5 14.4774 12.0696 14.9408 12.5845C15.1791 12.8492 15.3239 13.1131 15.4084 13.3082C15.4505 13.4055 15.4772 13.4845 15.4927 13.5363C15.5005 13.5621 15.5054 13.5809 15.5081 13.5917L15.5104 13.6015C15.566 13.8703 15.8284 14.0442 16.098 13.9903C16.3688 13.9361 16.5444 13.6727 16.4903 13.4019L16 13.5C16.4903 13.4019 16.49 13.4005 16.49 13.4005L16.4896 13.3989L16.4888 13.3949L16.4865 13.3842L16.4839 13.373L16.479 13.3522C16.4726 13.3263 16.4633 13.2914 16.4506 13.2489C16.4251 13.1639 16.3853 13.0477 16.3259 12.9106C16.2073 12.6369 16.0084 12.2758 15.6841 11.9155C15.0225 11.1804 13.8852 10.5 12 10.5C10.1148 10.5 8.97743 11.1804 8.31583 11.9155C7.99156 12.2758 7.79262 12.6369 7.67401 12.9106C7.6146 13.0477 7.57487 13.1639 7.54938 13.2489C7.53662 13.2914 7.52738 13.3263 7.52099 13.3522C7.5178 13.3651 7.51532 13.3759 7.51346 13.3842L7.51113 13.3949L7.5103 13.3989L7.50997 13.4005L7.50968 13.4019C7.45553 13.6727 7.63114 13.9361 7.90192 13.9903ZM9.5 18C9.5 17.7239 9.72386 17.5 10 17.5H18C18.2761 17.5 18.5 17.7239 18.5 18C18.5 18.2761 18.2761 18.5 18 18.5H10C9.72386 18.5 9.5 18.2761 9.5 18ZM10 19.5C9.72386 19.5 9.5 19.7239 9.5 20C9.5 20.2761 9.72386 20.5 10 20.5H14C14.2761 20.5 14.5 20.2761 14.5 20C14.5 19.7239 14.2761 19.5 14 19.5H10ZM6 21C7.10457 21 8 20.1046 8 19C8 17.8954 7.10457 17 6 17C4.89543 17 4 17.8954 4 19C4 20.1046 4.89543 21 6 21Z" fill="black"/>
</svg>
