<svg width="24" height="24" viewBox="0 0 24 24" fill="none" xmlns="http://www.w3.org/2000/svg">
<path fill-rule="evenodd" clip-rule="evenodd" d="M2.25 12C2.25 6.61509 6.61509 2.25 12 2.25C17.3849 2.25 21.75 6.61509 21.75 12C21.75 17.3849 17.3849 21.75 12 21.75C6.61509 21.75 2.25 17.3849 2.25 12ZM12 3.75C7.44351 3.75 3.75 7.44351 3.75 12C3.75 16.5565 7.44351 20.25 12 20.25C16.5565 20.25 20.25 16.5565 20.25 12C20.25 7.44351 16.5565 3.75 12 3.75ZM12 7C12.5523 7 13 7.44772 13 8V12C13 12.5523 12.5523 13 12 13C11.4477 13 11 12.5523 11 12V8C11 7.44772 11.4477 7 12 7ZM12 15C11.4477 15 11 15.4477 11 16C11 16.5523 11.4477 17 12 17H12.01C12.5623 17 13.01 16.5523 13.01 16C13.01 15.4477 12.5623 15 12.01 15H12Z" fill="black"/>
</svg>
