<svg width="24" height="24" viewBox="0 0 24 24" fill="none" xmlns="http://www.w3.org/2000/svg">
  <path fill-rule="evenodd" clip-rule="evenodd"
        d="M10.5547 4H13.4453C13.4132 3.82617 13.3631 3.62901 13.2858 3.4357C13.1805 3.17252 13.034 2.93965 12.8361 2.77474C12.6471 2.61721 12.3861 2.5 11.9999 2.5C11.6138 2.5 11.3528 2.6172 11.1638 2.77473C10.9659 2.93964 10.8195 3.17251 10.7142 3.43568C10.6369 3.629 10.5868 3.82617 10.5547 4ZM14.4584 4C14.4218 3.74433 14.3515 3.40747 14.2142 3.0643C14.0695 2.70248 13.8409 2.31035 13.4763 2.00651C13.1028 1.69529 12.6138 1.5 11.9999 1.5C11.3861 1.5 10.897 1.6953 10.5236 2.00652C10.159 2.31036 9.93042 2.70249 9.7857 3.06432C9.64845 3.40748 9.57817 3.74433 9.5416 4H6.5C4.29086 4 2.5 5.79086 2.5 8C2.5 9.48056 3.3044 10.7733 4.5 11.4649V18.8209C4.5 19.6516 4.71457 20.6663 5.60201 21.213C6.61427 21.8365 8.5102 22.5011 11.9999 22.5011C15.4897 22.5011 17.3856 21.8365 18.3979 21.213C19.2853 20.6663 19.4999 19.6516 19.4999 18.8208L19.5 11.4649C20.6956 10.7733 21.5 9.48057 21.5 8C21.5 5.79086 19.7091 4 17.5 4H14.4584ZM20.5 8C20.5 6.34315 19.1569 5 17.5 5H6.5C4.84315 5 3.5 6.34315 3.5 8C3.5 9.65685 4.84315 11 6.5 11H9.5V10C9.5 9.72386 9.72386 9.5 10 9.5C10.2761 9.5 10.5 9.72386 10.5 10V11H13.5V10C13.5 9.72386 13.7239 9.5 14 9.5C14.2761 9.5 14.5 9.72386 14.5 10V11H17.5C19.1569 11 20.5 9.65685 20.5 8ZM13.5 12V13C13.5 13.2761 13.7239 13.5 14 13.5C14.2761 13.5 14.5 13.2761 14.5 13V12H17.5C17.8453 12 18.1804 11.9562 18.5 11.874L18.4999 18.8208C18.4999 19.5424 18.3077 20.0941 17.8734 20.3616C17.0675 20.858 15.3714 21.5011 11.9999 21.5011C8.62844 21.5011 6.93239 20.858 6.12648 20.3615C5.69226 20.0941 5.5 19.5424 5.5 18.8209V11.874C5.81962 11.9562 6.1547 12 6.5 12H9.5V13C9.5 13.2761 9.72386 13.5 10 13.5C10.2761 13.5 10.5 13.2761 10.5 13V12H13.5ZM10 16.5C9.72386 16.5 9.5 16.7239 9.5 17V18C9.5 18.2761 9.72386 18.5 10 18.5H14C14.2761 18.5 14.5 18.2761 14.5 18V17C14.5 16.7239 14.2761 16.5 14 16.5H10ZM8.5 17C8.5 16.1716 9.17157 15.5 10 15.5H14C14.8284 15.5 15.5 16.1716 15.5 17V18C15.5 18.8284 14.8284 19.5 14 19.5H10C9.17157 19.5 8.5 18.8284 8.5 18V17Z"
        fill="black"/>
</svg>
