<svg width="24" height="24" viewBox="0 0 24 24" fill="none" xmlns="http://www.w3.org/2000/svg">
<path fill-rule="evenodd" clip-rule="evenodd" d="M2.25 12C2.25 6.61509 6.61509 2.25 12 2.25C17.3849 2.25 21.75 6.61509 21.75 12C21.75 17.3849 17.3849 21.75 12 21.75C6.61509 21.75 2.25 17.3849 2.25 12ZM12 3.75C7.44351 3.75 3.75 7.44351 3.75 12C3.75 16.5565 7.44351 20.25 12 20.25C16.5565 20.25 20.25 16.5565 20.25 12C20.25 7.44351 16.5565 3.75 12 3.75ZM13 15.9995C13 16.5518 12.5523 16.9995 12 16.9995C11.4477 16.9995 11 16.5518 11 15.9995C11 15.4472 11.4477 14.9995 12 14.9995C12.5523 14.9995 13 15.4472 13 15.9995ZM11 9.49951C11 9.01806 11.4809 8.49951 12 8.49951C12.5523 8.49951 13 8.94723 13 9.49951C13 9.49816 13 9.49831 12.9997 9.50004C12.9973 9.51252 12.9795 9.60771 12.8447 9.81883C12.6981 10.0483 12.4927 10.2968 12.2324 10.6086L12.2127 10.6322C11.9767 10.9148 11.6919 11.2558 11.4697 11.6038C11.2482 11.9507 11 12.4361 11 12.9995V13.4995C11 14.0518 11.4477 14.4995 12 14.4995C12.5523 14.4995 13 14.0518 13 13.4995V12.9995C13 13.0009 13 13.0007 13.0003 12.999L13.0003 12.999C13.0027 12.9865 13.0205 12.8913 13.1553 12.6802C13.3019 12.4507 13.5073 12.2022 13.7676 11.8904L13.7874 11.8668L13.7874 11.8668C14.0233 11.5842 14.3081 11.2432 14.5303 10.8953C14.7518 10.5484 15 10.0629 15 9.49951C15 7.84266 13.6569 6.49951 12 6.49951C10.31 6.49951 9 7.98096 9 9.49951C9 10.0518 9.44772 10.4995 10 10.4995C10.5523 10.4995 11 10.0518 11 9.49951Z" fill="black"/>
</svg>
