<svg width="24" height="24" viewBox="0 0 24 24" fill="none" xmlns="http://www.w3.org/2000/svg">
  <path fill-rule="evenodd" clip-rule="evenodd"
        d="M12 2.5C6.75329 2.5 2.5 6.75329 2.5 12C2.5 17.2467 6.75329 21.5 12 21.5C17.2467 21.5 21.5 17.2467 21.5 12C21.5 6.75329 17.2467 2.5 12 2.5ZM1.5 12C1.5 6.20101 6.20101 1.5 12 1.5C17.799 1.5 22.5 6.20101 22.5 12C22.5 17.799 17.799 22.5 12 22.5C6.20101 22.5 1.5 17.799 1.5 12ZM6.74275 8.57125L11.7428 5.57125C11.9011 5.47625 12.0989 5.47625 12.2572 5.57125L17.2572 8.57125C17.4079 8.66162 17.5 8.82437 17.5 9V15C17.5 15.1756 17.4079 15.3384 17.2572 15.4287L12.2572 18.4287C12.0989 18.5238 11.9011 18.5238 11.7428 18.4287L6.74275 15.4287C6.59215 15.3384 6.5 15.1756 6.5 15V9C6.5 8.82437 6.59215 8.66162 6.74275 8.57125ZM7.5 9.88309V14.7169L11.5 17.1169V12.2831L7.5 9.88309ZM12.5 12.2831V17.1169L16.5 14.7169V9.88309L12.5 12.2831ZM16.0282 9L12 11.4169L7.97183 9L12 6.5831L16.0282 9Z"
        fill="black"/>
</svg>
