<svg width="24" height="24" viewBox="0 0 24 24" fill="none"
     xmlns="http://www.w3.org/2000/svg">
  <path fill-rule="evenodd" clip-rule="evenodd"
        d="M7.5528 2.77639C7.6375 2.607 7.81063 2.5 8.00001 2.5H10C10.2762 2.5 10.5 2.72386 10.5 3V4.5H20C20.2762 4.5 20.5 4.72386 20.5 5V7C20.5 7.27614 20.2762 7.5 20 7.5H10.5V9C10.5 9.27614 10.2762 9.5 10 9.5H7.00001C6.72387 9.5 6.50001 9.27614 6.50001 9V5C6.50001 4.92238 6.51809 4.84582 6.5528 4.77639L7.5528 2.77639ZM10.5 6.5H19.5V5.5H10.5V6.5ZM8.30903 3.5L7.50001 5.11803V8.5H9.50001V3.5H8.30903ZM6.50001 12C6.50001 11.7239 6.72387 11.5 7.00001 11.5H23C23.2762 11.5 23.5 11.7239 23.5 12V14C23.5 14.2 23.3808 14.3808 23.197 14.4596L17.6722 16.8273C16.9611 17.1321 16.5 17.8313 16.5 18.605C16.5 18.8129 16.5335 19.0194 16.5993 19.2166L17.4744 21.8419C17.5252 21.9944 17.4996 22.162 17.4056 22.2924C17.3117 22.4227 17.1607 22.5 17 22.5H8.00001C7.81562 22.5 7.64619 22.3985 7.55918 22.2359C7.47217 22.0734 7.4817 21.8761 7.58399 21.7227L9.50001 18.8486V18.5H7.00001C6.72387 18.5 6.50001 18.2761 6.50001 18V17.3604L3.8419 16.4743C3.76826 16.4498 3.70135 16.4084 3.64646 16.3536L0.646461 13.3536C0.503462 13.2106 0.460684 12.9955 0.538075 12.8087C0.615465 12.6218 0.797783 12.5 1.00001 12.5H6.50001V12ZM6.50001 13.5H2.20712L4.27011 15.563L6.50001 16.3063V13.5ZM7.50001 12.5V17.5H10C10.2762 17.5 10.5 17.7239 10.5 18V19C10.5 19.0987 10.4708 19.1952 10.416 19.2773L8.93427 21.5H16.3063L15.6506 19.5328C15.5509 19.2337 15.5 18.9204 15.5 18.605C15.5 17.4313 16.1995 16.3705 17.2783 15.9082L22.5 13.6703V12.5H7.50001Z"
        fill="black"/>
</svg>
