<svg width="24" height="24" viewBox="0 0 24 24" fill="none"
	xmlns="http://www.w3.org/2000/svg">
	<path fill-rule="evenodd" clip-rule="evenodd" d="M2.5 12C2.5 6.75329 6.75329 2.5 12 2.5C17.2467 2.5 21.5 6.75329 21.5 12C21.5 14.4328 20.5849 16.6531 19.0809 18.3335C17.3421 20.2762 14.8136 21.5 12 21.5C9.18637 21.5 6.65791 20.2762 4.91911 18.3335C3.41512 16.6531 2.5 14.4328 2.5 12ZM11.6464 7.64645C11.8417 7.45118 12.1583 7.45118 12.3536 7.64645L13.3536 8.64645C13.5488 8.84171 13.5488 9.15829 13.3536 9.35355L12.3536 10.3536C12.1583 10.5488 11.8417 10.5488 11.6464 10.3536L10.6464 9.35355C10.4512 9.15829 10.4512 8.84171 10.6464 8.64645L11.6464 7.64645ZM11.5 18V11.5C11.5 11.2239 11.7239 11 12 11C12.2761 11 12.5 11.2239 12.5 11.5V18C12.5 18.2761 12.2761 18.5 12 18.5C11.7239 18.5 11.5 18.2761 11.5 18Z" fill="black"/>
</svg>
