<svg width="24" height="24" viewBox="0 0 24 24" fill="none"
     xmlns="http://www.w3.org/2000/svg">
  <path fill-rule="evenodd" clip-rule="evenodd"
        d="M5 18.8208C5 19.597 5.20342 20.3802 5.86425 20.7872C6.77334 21.3472 8.56934 22.001 12 22.001C15.4306 22.001 17.2266 21.3472 18.1357 20.7873C18.7966 20.3802 19 19.597 19 18.8208L18.9999 12.4988C18.4116 12.8392 17.7285 13.034 16.9999 13.034H14.5V14C14.5 14.2761 14.2761 14.5 14 14.5C13.7239 14.5 13.5 14.2761 13.5 14V13.034H10.5V14C10.5 14.2761 10.2761 14.5 10 14.5C9.72386 14.5 9.5 14.2761 9.5 14V13.034H6.99995C6.2722 13.034 5.58985 12.8396 5.00195 12.5L5 18.8208ZM8.5 17C8.5 16.1716 9.17157 15.5 10 15.5H14C14.8284 15.5 15.5 16.1716 15.5 17V18C15.5 18.8284 14.8284 19.5 14 19.5H10C9.17157 19.5 8.5 18.8284 8.5 18V17ZM9.5 17C9.5 16.7239 9.72386 16.5 10 16.5H14C14.2761 16.5 14.5 16.7239 14.5 17V18C14.5 18.2761 14.2761 18.5 14 18.5H10C9.72386 18.5 9.5 18.2761 9.5 18V17Z"
        fill="black"/>
  <path fill-rule="evenodd" clip-rule="evenodd"
        d="M7 4C4.79086 4 3 5.79086 3 8C3 9.48139 3.8053 10.7747 5.00201 11.466C5.5899 11.8057 6.27225 12 7 12H9.5V11C9.5 10.7239 9.72386 10.5 10 10.5C10.2761 10.5 10.5 10.7239 10.5 11V12H13.5V11C13.5 10.7239 13.7239 10.5 14 10.5C14.2761 10.5 14.5 10.7239 14.5 11V12H17C17.7286 12 18.4117 11.8052 19 11.4649C20.1956 10.7733 21 9.48056 21 8C21 5.79086 19.2091 4 17 4H14.4584C14.4218 3.74433 14.3515 3.40747 14.2142 3.0643C14.0695 2.70248 13.8409 2.31035 13.4763 2.00651C13.1028 1.69529 12.6138 1.5 11.9999 1.5C11.3861 1.5 10.897 1.6953 10.5236 2.00652C10.159 2.31036 9.93042 2.70249 9.7857 3.06432C9.64845 3.40748 9.57817 3.74433 9.5416 4H7ZM10.7142 3.43568C10.6369 3.629 10.5868 3.82617 10.5547 4H13.4453C13.4132 3.82617 13.3631 3.62901 13.2858 3.4357C13.1805 3.17252 13.034 2.93965 12.8361 2.77474C12.6471 2.61721 12.3861 2.5 11.9999 2.5C11.6138 2.5 11.3528 2.6172 11.1638 2.77473C10.9659 2.93964 10.8195 3.17251 10.7142 3.43568Z"
        fill="black"/>
</svg>
