<svg width="24" height="24" viewBox="0 0 24 24" fill="none"
     xmlns="http://www.w3.org/2000/svg">
  <path fill-rule="evenodd" clip-rule="evenodd"
        d="M2.5 12C2.5 6.75329 6.75329 2.5 12 2.5C17.2467 2.5 21.5 6.75329 21.5 12C21.5 14.4328 20.5849 16.6531 19.0809 18.3335C17.3421 20.2762 14.8136 21.5 12 21.5C9.18637 21.5 6.65791 20.2762 4.91911 18.3335C3.41512 16.6531 2.5 14.4328 2.5 12ZM12 7C10.8954 7 10 7.89543 10 9C10 9.27614 9.77614 9.5 9.5 9.5C9.22386 9.5 9 9.27614 9 9C9 7.34315 10.3431 6 12 6C13.6569 6 15 7.34315 15 9C15 9.77713 14.4574 10.4107 13.9649 10.8393C13.1145 11.5791 12.5 12.476 12.5 13.4438V14C12.5 14.2761 12.2761 14.5 12 14.5C11.7239 14.5 11.5 14.2761 11.5 14V13.4438C11.5 12.0464 12.3745 10.8974 13.3085 10.0848C13.761 9.6911 14 9.31463 14 9C14 7.89543 13.1046 7 12 7ZM11.6464 15.6464L10.6464 16.6464C10.4512 16.8417 10.4512 17.1583 10.6464 17.3536L11.6464 18.3536C11.8417 18.5488 12.1583 18.5488 12.3536 18.3536L13.3536 17.3536C13.5488 17.1583 13.5488 16.8417 13.3536 16.6464L12.3536 15.6464C12.1583 15.4512 11.8417 15.4512 11.6464 15.6464Z"
        fill="black"/>
</svg>
