<svg width="24" height="24" viewBox="0 0 24 24" fill="none"
     xmlns="http://www.w3.org/2000/svg">
  <path fill-rule="evenodd" clip-rule="evenodd"
        d="M19.5 18.5V3.5C19.5 2.94772 19.0523 2.5 18.5 2.5H7.5V14C7.5 14.2761 7.27614 14.5 7 14.5C6.72386 14.5 6.5 14.2761 6.5 14V2.5H5.5C4.94772 2.5 4.5 2.94772 4.5 3.5V17.5C4.5 18.0523 4.94772 18.5 5.5 18.5H6.5V16C6.5 15.7239 6.72386 15.5 7 15.5C7.27614 15.5 7.5 15.7239 7.5 16V18.5H19.5ZM11 4.5C10.1716 4.5 9.5 5.17157 9.5 6V7C9.5 7.82843 10.1716 8.5 11 8.5H16C16.8284 8.5 17.5 7.82843 17.5 7V6C17.5 5.17157 16.8284 4.5 16 4.5H11ZM12 15.5C11.7239 15.5 11.5 15.7239 11.5 16C11.5 16.2761 11.7239 16.5 12 16.5H15C15.2761 16.5 15.5 16.2761 15.5 16C15.5 15.7239 15.2761 15.5 15 15.5H12Z"
        fill="black"/>
  <path
    d="M11 5.5C10.7239 5.5 10.5 5.72386 10.5 6V7C10.5 7.27614 10.7239 7.5 11 7.5H16C16.2761 7.5 16.5 7.27614 16.5 7V6C16.5 5.72386 16.2761 5.5 16 5.5H11Z"
    fill="black"/>
  <path
    d="M5.5 1.5C4.39543 1.5 3.5 2.39543 3.5 3.5V15.5V17.5C3.5 18.2403 3.9022 18.8866 4.5 19.2324C4.79417 19.4026 5.13571 19.5 5.5 19.5H19.5V18.5H7.5H6.5H5.5C4.94772 18.5 4.5 18.0523 4.5 17.5V15.5V3.5C4.5 2.94772 4.94772 2.5 5.5 2.5H6.5H7.5H18.5C19.0523 2.5 19.5 2.94772 19.5 3.5V18.5V19.5V21.5C19.5 22.0523 19.0523 22.5 18.5 22.5H5.5C4.94772 22.5 4.5 22.0523 4.5 21.5V19.2324C3.9022 18.8866 3.5 18.2403 3.5 17.5V21.5C3.5 22.6046 4.39543 23.5 5.5 23.5H18.5C19.6046 23.5 20.5 22.6046 20.5 21.5V3.5C20.5 2.39543 19.6046 1.5 18.5 1.5H5.5Z"
    fill="black"/>
</svg>
