<svg width="24" height="24" viewBox="0 0 24 24" fill="none" xmlns="http://www.w3.org/2000/svg">
<path fill-rule="evenodd" clip-rule="evenodd" d="M8 4.75C7.30964 4.75 6.75 5.30964 6.75 6V18.4857L10.3334 15.7555C11.3179 15.0054 12.6821 15.0054 13.6666 15.7555L17.25 18.4857V6C17.25 5.30964 16.6904 4.75 16 4.75H8ZM5.25 6C5.25 4.48122 6.48122 3.25 8 3.25H16C17.5188 3.25 18.75 4.48122 18.75 6V20C18.75 20.2851 18.5884 20.5456 18.3329 20.6721C18.0774 20.7986 17.7722 20.7694 17.5455 20.5966L12.7576 16.9486C12.3101 16.6077 11.6899 16.6077 11.2424 16.9486L6.45453 20.5966C6.22775 20.7694 5.92262 20.7986 5.66713 20.6721C5.41165 20.5456 5.25 20.2851 5.25 20V6Z" fill="black"/>
</svg>
