<svg width="24" height="24" viewBox="0 0 24 24" fill="none" xmlns="http://www.w3.org/2000/svg">
  <path fill-rule="evenodd" clip-rule="evenodd"
        d="M9 5.5C8.17157 5.5 7.5 6.17157 7.5 7V17.9597L10.4383 15.6091C11.3513 14.8786 12.6487 14.8786 13.5617 15.6091L16.5 17.9597V7C16.5 6.17157 15.8284 5.5 15 5.5H9ZM6.5 7C6.5 5.61929 7.61929 4.5 9 4.5H15C16.3807 4.5 17.5 5.61929 17.5 7V19C17.5 19.1922 17.3898 19.3674 17.2166 19.4507C17.0434 19.5339 16.8377 19.5105 16.6877 19.3904L12.937 16.3899C12.3892 15.9517 11.6108 15.9517 11.063 16.3899L7.31235 19.3904C7.16226 19.5105 6.95664 19.5339 6.78341 19.4507C6.61017 19.3674 6.5 19.1922 6.5 19V7Z"
        fill="black"/>
</svg>
