<svg width="24" height="24" viewBox="0 0 24 24" fill="none" xmlns="http://www.w3.org/2000/svg">
<path fill-rule="evenodd" clip-rule="evenodd" d="M9 4.75C8.30964 4.75 7.75 5.30964 7.75 6V18.2981L10.1444 16.1089C11.195 15.1484 12.805 15.1484 13.8556 16.1089L16.25 18.2981V6C16.25 5.30964 15.6904 4.75 15 4.75H9ZM6.25 6C6.25 4.48122 7.48122 3.25 9 3.25H15C16.5188 3.25 17.75 4.48122 17.75 6V20C17.75 20.2972 17.5745 20.5664 17.3024 20.6863C17.0304 20.8062 16.7133 20.7541 16.4939 20.5535L12.8435 17.216C12.3659 16.7793 11.6341 16.7793 11.1565 17.216L7.50608 20.5535C7.2867 20.7541 6.96957 20.8062 6.69756 20.6863C6.42555 20.5664 6.25 20.2972 6.25 20V6Z" fill="black"/>
</svg>
