<svg width="24" height="24" viewBox="0 0 24 24" fill="none"
     xmlns="http://www.w3.org/2000/svg">
  <path fill-rule="evenodd" clip-rule="evenodd"
        d="M12.3642 17.6556C12.1377 17.7815 11.8623 17.7815 11.6358 17.6556L7.13577 15.1556C6.89767 15.0233 6.75 14.7724 6.75 14.5L6.75 12C6.75 11.5858 7.08579 11.25 7.5 11.25C7.91421 11.25 8.25 11.5858 8.25 12L8.25 14.0587L12 16.142L15.75 14.0587L15.75 12C15.75 11.5858 16.0858 11.25 16.5 11.25C16.9142 11.25 17.25 11.5858 17.25 12L17.25 14.5C17.25 14.7724 17.1023 15.0233 16.8642 15.1556L12.3642 17.6556ZM12 13.75C11.5858 13.75 11.25 13.4142 11.25 13L11.25 8.27463L10.1142 8.90562C9.75215 9.10678 9.29554 8.97632 9.09438 8.61423C8.89322 8.25214 9.02368 7.79554 9.38577 7.59438L11.6358 6.34438C11.8623 6.21854 12.1377 6.21854 12.3642 6.34438L14.6142 7.59438C14.9763 7.79554 15.1068 8.25214 14.9056 8.61423C14.7045 8.97632 14.2479 9.10678 13.8858 8.90562L12.75 8.27463L12.75 13C12.75 13.4142 12.4142 13.75 12 13.75Z"
        fill="black"/>
</svg>
