<svg width="24" height="24" viewBox="0 0 24 24" fill="none"
     xmlns="http://www.w3.org/2000/svg">
  <path fill-rule="evenodd" clip-rule="evenodd"
        d="M12.3642 17.6556C12.1377 17.7815 11.8623 17.7815 11.6358 17.6556L7.13577 15.1556C6.89767 15.0233 6.75 14.7724 6.75 14.5L6.75 9.5C6.75 9.22762 6.89767 8.97666 7.13577 8.84438L11.6358 6.34438C11.8623 6.21854 12.1377 6.21854 12.3642 6.34438L16.8642 8.84438C17.1023 8.97666 17.25 9.22762 17.25 9.5L17.25 14.5C17.25 14.7724 17.1023 15.0233 16.8642 15.1556L12.3642 17.6556ZM12 16.142L15.75 14.0587L15.75 9.9413L12 7.85797L8.25 9.9413L8.25 14.0587L12 16.142Z"
        fill="black"/>
</svg>
