<svg width="24" height="24" viewBox="0 0 24 24" fill="none" xmlns="http://www.w3.org/2000/svg">
  <path fill-rule="evenodd" clip-rule="evenodd"
        d="M11.6358 6.34438C11.8623 6.21854 12.1377 6.21854 12.3642 6.34438L16.8642 8.84438C17.1023 8.97666 17.25 9.22762 17.25 9.5V12C17.25 12.4142 16.9142 12.75 16.5 12.75C16.0858 12.75 15.75 12.4142 15.75 12V9.9413L12 7.85797L8.25002 9.9413L8.25002 12C8.25002 12.4142 7.91423 12.75 7.50002 12.75C7.0858 12.75 6.75002 12.4142 6.75002 12L6.75002 9.5C6.75002 9.22762 6.89768 8.97666 7.13578 8.84438L11.6358 6.34438ZM12 10.25C12.4142 10.25 12.75 10.5858 12.75 11L12.75 15.7254L13.8858 15.0944C14.2479 14.8932 14.7045 15.0237 14.9056 15.3858C15.1068 15.7479 14.9763 16.2045 14.6142 16.4056L12.3642 17.6556C12.1377 17.7815 11.8623 17.7815 11.6358 17.6556L9.38578 16.4056C9.0237 16.2045 8.89324 15.7479 9.0944 15.3858C9.29556 15.0237 9.75216 14.8932 10.1142 15.0944L11.25 15.7254L11.25 11C11.25 10.5858 11.5858 10.25 12 10.25Z"
        fill="black"/>
</svg>
