<svg width="24" height="24" viewBox="0 0 24 24" fill="none"
     xmlns="http://www.w3.org/2000/svg">
  <path fill-rule="evenodd" clip-rule="evenodd"
        d="M12.4122 17.6266C12.162 17.7911 11.838 17.7911 11.5878 17.6266L10.2901 16.7728C8.39246 15.5244 7.25 13.4052 7.25 11.1337L7.25 8C7.25 7.0335 8.0335 6.25 9 6.25L15 6.25C15.9665 6.25 16.75 7.0335 16.75 8L16.75 11.1337C16.75 13.4052 15.6075 15.5244 13.7099 16.7728L12.4122 17.6266ZM12 16.1022L12.8855 15.5197C14.3614 14.5487 15.25 12.9004 15.25 11.1337L15.25 8C15.25 7.86193 15.1381 7.75 15 7.75L9 7.75C8.86193 7.75 8.75 7.86193 8.75 8L8.75 11.1337C8.75 12.9004 9.63858 14.5487 11.1145 15.5197L12 16.1022Z"
        fill="black"/>
</svg>
