<svg width="24" height="24" viewBox="0 0 24 24" fill="none" xmlns="http://www.w3.org/2000/svg">
<path d="M8.29297 5.29289C8.68349 4.90237 9.31651 4.90237 9.70703 5.29289C10.0974 5.68343 10.0975 6.31647 9.70703 6.70696L7.41406 8.99992H16C17.3261 8.99992 18.5975 9.52709 19.5352 10.4648C20.4728 11.4024 21 12.6739 21 13.9999C21 15.326 20.4728 16.5974 19.5352 17.5351C18.5975 18.4727 17.3261 18.9999 16 18.9999H15C14.4477 18.9999 14 18.5522 14 17.9999C14 17.4476 14.4477 16.9999 15 16.9999H16C16.7956 16.9999 17.5585 16.6836 18.1211 16.121C18.6837 15.5584 19 14.7955 19 13.9999C19 13.2043 18.6837 12.4414 18.1211 11.8788C17.5585 11.3162 16.7956 10.9999 16 10.9999H7.41406L9.70703 13.2929C10.0974 13.6834 10.0975 14.3165 9.70703 14.707C9.31654 15.0974 8.68349 15.0974 8.29297 14.707L4.29297 10.707C4.24631 10.6603 4.20472 10.6087 4.16797 10.5536C4.14195 10.5146 4.11956 10.474 4.09961 10.4325C4.07767 10.387 4.05788 10.34 4.04297 10.2909C4.03789 10.2742 4.03445 10.2571 4.03027 10.2402C4.01125 10.1631 4.00001 10.0828 4 9.99992C4 9.92025 4.00974 9.84277 4.02734 9.76848C4.03221 9.74793 4.03678 9.72723 4.04297 9.70696C4.05787 9.65821 4.07777 9.6116 4.09961 9.56633C4.1197 9.52461 4.14175 9.48343 4.16797 9.44426C4.2045 9.38966 4.24669 9.33918 4.29297 9.29289L8.29297 5.29289Z" fill="black"/>
</svg>
