<svg width="24" height="24" viewBox="0 0 24 24" fill="none" xmlns="http://www.w3.org/2000/svg">
<path fill-rule="evenodd" clip-rule="evenodd" d="M12 4C13.0609 4 14.078 4.42173 14.8281 5.17188C15.5783 5.92202 16 6.93913 16 8C16.1504 8 16.2958 8.03506 16.4277 8.09766L19.4609 6.1582C19.926 5.86054 20.544 5.99594 20.8418 6.46094C21.1393 6.92602 21.004 7.54407 20.5391 7.8418L17.5234 9.77148C17.7951 10.4634 17.9568 11.1968 17.998 11.9453C17.999 11.9635 18 11.9818 18 12H21C21.5523 12 22 12.4477 22 13C22 13.5523 21.5523 14 21 14H18V15C18 15.5185 17.9312 16.0295 17.8018 16.5225L20.5127 18.1416C20.9867 18.4247 21.1423 19.0386 20.8594 19.5127C20.5763 19.9868 19.9615 20.1413 19.4873 19.8584L16.9707 18.3555C16.7576 18.671 16.5153 18.969 16.2422 19.2422C15.117 20.3674 13.5913 21 12 21C10.4087 21 8.88303 20.3674 7.75781 19.2422C7.48453 18.9689 7.24148 18.6712 7.02832 18.3555L4.5127 19.8584C4.03855 20.1415 3.42475 19.9868 3.1416 19.5127C2.85853 19.0385 3.01323 18.4248 3.4873 18.1416L6.19727 16.5225C6.06785 16.0296 6 15.5184 6 15V14H3C2.44772 14 2 13.5523 2 13C2 12.4477 2.44772 12 3 12H6C6 11.9818 6.00095 11.9635 6.00195 11.9453C6.04321 11.1969 6.20405 10.4633 6.47559 9.77148L3.46094 7.8418C2.996 7.54407 2.86069 6.92602 3.1582 6.46094C3.45597 5.99594 4.07396 5.86054 4.53906 6.1582L7.57129 8.09766C7.70346 8.03482 7.84931 8 8 8C8 6.93913 8.42173 5.92202 9.17188 5.17188C9.92202 4.42173 10.9391 4 12 4ZM8.57031 10C8.23911 10.6283 8.04243 11.3204 8 12.0332V15C8 16.0609 8.42173 17.078 9.17188 17.8281C9.68129 18.3375 10.3143 18.6938 11 18.8711V14C11 13.4477 11.4477 13 12 13C12.5523 13 13 13.4477 13 14V18.8711C13.6857 18.6938 14.3187 18.3375 14.8281 17.8281C15.5783 17.078 16 16.0609 16 15V12.0332C15.9576 11.3204 15.7609 10.6283 15.4297 10H8.57031ZM12 6C11.4696 6 10.961 6.21086 10.5859 6.58594C10.2109 6.96101 10 7.46957 10 8H14C14 7.46957 13.7891 6.96101 13.4141 6.58594C13.039 6.21087 12.5304 6 12 6Z" fill="black"/>
</svg>
