<svg width="24" height="24" viewBox="0 0 24 24" fill="none" xmlns="http://www.w3.org/2000/svg">
<path fill-rule="evenodd" clip-rule="evenodd" d="M6.2356 5.87027C4.8425 7.13442 3.8705 8.74895 3.57912 10.3743L7.90195 9.50971C8.17273 9.45555 8.43614 9.63116 8.4903 9.90194C8.54445 10.1727 8.36884 10.4361 8.09807 10.4903L3.09806 11.4903C2.94572 11.5208 2.78787 11.4787 2.67091 11.3764C2.55394 11.2742 2.49116 11.1233 2.50101 10.9683C2.63819 8.80914 3.83858 6.69507 5.5636 5.12973C7.29144 3.56181 9.5935 2.5 12.0001 2.5C16.7529 2.5 20.7244 5.80799 21.4925 10.1863C21.5402 10.4583 21.3584 10.7175 21.0864 10.7652C20.8144 10.8129 20.5552 10.6311 20.5075 10.3591C19.8274 6.4823 16.2912 3.5 12.0001 3.5C9.88469 3.5 7.81377 4.43819 6.2356 5.87027ZM17.7644 18.1297C19.1575 16.8656 20.1295 15.251 20.4209 13.6257L16.0981 14.4903C15.8273 14.5444 15.5639 14.3688 15.5097 14.0981C15.4556 13.8273 15.6312 13.5639 15.9019 13.5097L20.9019 12.5097C21.0543 12.4792 21.2121 12.5213 21.3291 12.6236C21.4461 12.7258 21.5089 12.8767 21.499 13.0317C21.3618 15.1909 20.1614 17.3049 18.4364 18.8703C16.7086 20.4382 14.4065 21.5 11.9999 21.5C7.2471 21.5 3.27564 18.192 2.50753 13.8137C2.45981 13.5417 2.64162 13.2825 2.91361 13.2348C3.1856 13.1871 3.44477 13.3689 3.49249 13.6409C4.17262 17.5177 7.70879 20.5 11.9999 20.5C14.1153 20.5 16.1862 19.5618 17.7644 18.1297Z" fill="#F8F8F8"/>
</svg>
