<svg width="24" height="24" viewBox="0 0 24 24" fill="none" xmlns="http://www.w3.org/2000/svg">
<path fill-rule="evenodd" clip-rule="evenodd" d="M3.90225 10.0547C4.25323 8.6166 5.14779 7.19498 6.4036 6.05541C7.94435 4.65728 9.95749 3.75 12.0001 3.75C16.1758 3.75 19.6031 6.65087 20.2613 10.4023C20.3329 10.8103 20.7216 11.083 21.1296 11.0114C21.5376 10.9399 21.8103 10.5511 21.7387 10.1431C20.9486 5.63942 16.8683 2.25 12.0001 2.25C9.52069 2.25 7.16086 3.34272 5.39559 4.94459C3.63457 6.5426 2.39374 8.71371 2.25151 10.9524C2.23674 11.185 2.33091 11.4112 2.50635 11.5646C2.6818 11.718 2.91857 11.7811 3.14709 11.7354L8.14709 10.7354C8.55326 10.6542 8.81667 10.2591 8.73544 9.85291C8.6542 9.44674 8.25909 9.18333 7.85292 9.26456L3.90225 10.0547Z" fill="black"/>
<path fill-rule="evenodd" clip-rule="evenodd" d="M20.0977 13.9453C19.7468 15.3834 18.8522 16.805 17.5964 17.9446C16.0557 19.3427 14.0425 20.25 11.9999 20.25C7.82421 20.25 4.39685 17.3491 3.73872 13.5977C3.66714 13.1897 3.27838 12.917 2.8704 12.9886C2.46242 13.0601 2.18971 13.4489 2.26128 13.8569C3.05139 18.3606 7.13167 21.75 11.9999 21.75C14.4793 21.75 16.8391 20.6573 18.6044 19.0554C20.3654 17.4574 21.6063 15.2863 21.7485 13.0476C21.7633 12.815 21.6691 12.5888 21.4936 12.4354C21.3182 12.282 21.0814 12.2189 20.8529 12.2646L15.8529 13.2646C15.4467 13.3458 15.1833 13.7409 15.2646 14.1471C15.3458 14.5533 15.7409 14.8167 16.1471 14.7354L20.0977 13.9453Z" fill="black"/>
</svg>
