<svg width="24" height="24" viewBox="0 0 24 24" fill="none"
     xmlns="http://www.w3.org/2000/svg">
  <path fill-rule="evenodd" clip-rule="evenodd"
        d="M18.7479 9.70197C18.8014 9.32603 18.6835 8.93042 18.3943 8.64124L14.8588 5.10571C14.5696 4.81654 14.174 4.69866 13.7981 4.75209L18.7479 9.70197ZM17.864 10.9393L12.5607 5.63604L12.2071 5.98959L17.5104 11.2929L17.864 10.9393ZM16.4498 12.3536L11.1465 7.05025L10.7929 7.40381L16.0962 12.7071L16.4498 12.3536ZM15.0356 13.7678L9.73226 8.46447L9.37871 8.81802L14.682 14.1213L15.0356 13.7678ZM13.6213 15.182L8.31805 9.87868L4.60574 13.591C4.11758 14.0791 4.11758 14.8706 4.60574 15.3588L8.14127 18.8943C8.62943 19.3824 9.42088 19.3824 9.90904 18.8943L13.6213 15.182ZM19.455 7.58058C20.5289 8.65453 20.5289 10.3957 19.455 11.4697L10.9697 19.955C9.89576 21.0289 8.15455 21.0289 7.08061 19.955L3.54508 16.4194C2.47114 15.3455 2.47114 13.6043 3.54508 12.5303L12.0304 4.04505C13.1043 2.97111 14.8455 2.97111 15.9194 4.04505L19.455 7.58058Z"
        fill="black"/>
</svg>
