<svg width="24" height="24" viewBox="0 0 24 24" fill="none" xmlns="http://www.w3.org/2000/svg">
  <path fill-rule="evenodd" clip-rule="evenodd"
        d="M18.8643 10.1719C19.1306 9.61432 19.0329 8.92629 18.5711 8.46447L15.0356 4.92893C14.5737 4.46711 13.8857 4.36938 13.3281 4.63573L18.8643 10.1719ZM18.2175 10.9393L12.5607 5.28249L11.8536 5.98959L17.5104 11.6464L18.2175 10.9393ZM16.8033 12.3536L11.1465 6.6967L10.4394 7.40381L16.0962 13.0607L16.8033 12.3536ZM15.3891 13.7678L9.73226 8.11092L9.02515 8.81802L14.682 14.4749L15.3891 13.7678ZM13.9749 15.182L8.31805 9.52513L4.42896 13.4142C3.84317 14 3.84317 14.9497 4.42896 15.5355L7.96449 19.0711C8.55028 19.6569 9.50003 19.6569 10.0858 19.0711L13.9749 15.182ZM19.2782 7.75736C20.2545 8.73367 20.2545 10.3166 19.2782 11.2929L10.7929 19.7782C9.81661 20.7545 8.2337 20.7545 7.25739 19.7782L3.72185 16.2426C2.74554 15.2663 2.74554 13.6834 3.72185 12.7071L12.2071 4.22183C13.1834 3.24552 14.7664 3.24552 15.7427 4.22183L19.2782 7.75736Z"
        fill="black"/>
</svg>

