<svg width="24" height="24" viewBox="0 0 24 24" fill="none" xmlns="http://www.w3.org/2000/svg">
<path fill-rule="evenodd" clip-rule="evenodd" d="M18.5303 5.46961C18.8232 5.7625 18.8232 6.23738 18.5303 6.53027L13.0606 11.9999L18.5303 17.4696C18.8232 17.7625 18.8232 18.2374 18.5303 18.5303C18.2374 18.8232 17.7626 18.8232 17.4697 18.5303L12 13.0606L6.53033 18.5302C6.23743 18.8231 5.76256 18.8231 5.46967 18.5302C5.17678 18.2373 5.17678 17.7624 5.46967 17.4695L10.9393 11.9999L5.46967 6.53034C5.17678 6.23744 5.17678 5.76257 5.46967 5.46968C5.76256 5.17678 6.23744 5.17678 6.53033 5.46967L12 10.9393L17.4697 5.46961C17.7626 5.17672 18.2374 5.17672 18.5303 5.46961Z" fill="black"/>
</svg>
