<svg width="24" height="24" viewBox="0 0 24 24" fill="none" xmlns="http://www.w3.org/2000/svg">
<path fill-rule="evenodd" clip-rule="evenodd" d="M19.5303 4.46967C19.8232 4.76257 19.8232 5.23744 19.5303 5.53033L13.0606 12L19.5303 18.4697C19.8232 18.7626 19.8232 19.2374 19.5303 19.5303C19.2374 19.8232 18.7626 19.8232 18.4697 19.5303L12 13.0607L5.53033 19.5303C5.23743 19.8232 4.76256 19.8232 4.46967 19.5303C4.17678 19.2374 4.17678 18.7625 4.46967 18.4696L10.9393 12L4.46967 5.5304C4.17678 5.2375 4.17678 4.76263 4.46967 4.46974C4.76256 4.17684 5.23744 4.17684 5.53033 4.46973L12 10.9393L18.4697 4.46967C18.7626 4.17678 19.2374 4.17678 19.5303 4.46967Z" fill="black"/>
</svg>
