<svg width="24" height="24" viewBox="0 0 24 24" fill="none" xmlns="http://www.w3.org/2000/svg">
  <path fill-rule="evenodd" clip-rule="evenodd"
        d="M13.2322 5.06067C14.2085 4.08436 15.7915 4.08436 16.7678 5.06067L17.7727 6.06557C18.749 7.04188 18.749 8.6248 17.7727 9.60111L14.2122 13.1616C13.2359 14.1379 11.653 14.1379 10.6767 13.1616L10.1742 12.6591C9.97896 12.4639 9.97896 12.1473 10.1742 11.952C10.3695 11.7567 10.6861 11.7567 10.8813 11.952L11.3838 12.4545C11.9696 13.0402 12.9193 13.0402 13.5051 12.4545L17.0656 8.894C17.6514 8.30821 17.6514 7.35847 17.0656 6.77268L16.0607 5.76777C15.4749 5.18199 14.5251 5.18199 13.9393 5.76777L10.8813 8.82578C10.6861 9.02104 10.3695 9.02104 10.1742 8.82578C9.97896 8.63052 9.97896 8.31394 10.1742 8.11868L13.2322 5.06067ZM10.9495 10.8789C10.3638 10.2931 9.41402 10.2931 8.82823 10.8789L5.26777 14.4393C4.68198 15.0251 4.68198 15.9749 5.26777 16.5607L6.27267 17.5656C6.85846 18.1514 7.80821 18.1514 8.39399 17.5656L11.452 14.5076C11.6473 14.3123 11.9638 14.3123 12.1591 14.5076C12.3544 14.7028 12.3544 15.0194 12.1591 15.2147L9.1011 18.2727C8.12479 19.249 6.54188 19.249 5.56557 18.2727L4.56066 17.2678C3.58435 16.2915 3.58435 14.7085 4.56066 13.7322L8.12112 10.1718C9.09743 9.19547 10.6803 9.19547 11.6567 10.1718L12.1591 10.6742C12.3544 10.8695 12.3544 11.1861 12.1591 11.3813C11.9638 11.5766 11.6473 11.5766 11.452 11.3813L10.9495 10.8789Z"
        fill="black"/>
</svg>
