<svg width="24" height="24" viewBox="0 0 24 24" fill="none"
     xmlns="http://www.w3.org/2000/svg">
  <path fill-rule="evenodd" clip-rule="evenodd"
        d="M14.0555 4.88387C15.1294 3.80993 16.8706 3.80993 17.9445 4.88387L19.9494 6.88878C21.0234 7.96272 21.0234 9.70393 19.9494 10.7779L15.8334 14.8939C14.7595 15.9678 13.0183 15.9678 11.9443 14.8939L10.9419 13.8914C10.649 13.5985 10.649 13.1237 10.9419 12.8308C11.2348 12.5379 11.7097 12.5379 12.0026 12.8308L13.005 13.8332C13.4932 14.3214 14.2846 14.3214 14.7728 13.8332L18.8888 9.71721C19.3769 9.22905 19.3769 8.4376 18.8888 7.94944L16.8839 5.94453C16.3957 5.45638 15.6043 5.45638 15.1161 5.94453L12.5303 8.53032C12.2374 8.82321 11.7626 8.82321 11.4697 8.53032C11.1768 8.23743 11.1768 7.76255 11.4697 7.46966L14.0555 4.88387Z"
        fill="black"/>
  <path fill-rule="evenodd" clip-rule="evenodd"
        d="M10.7779 19.8939C9.70394 20.9678 7.96274 20.9678 6.88879 19.8939L4.88389 17.889C3.80994 16.815 3.80994 15.0738 4.88389 13.9999L8.9999 9.88389C10.0738 8.80994 11.815 8.80994 12.889 9.88388L13.8914 10.8863C14.1843 11.1792 14.1843 11.6541 13.8914 11.947C13.5985 12.2399 13.1237 12.2399 12.8308 11.947L11.8283 10.9445C11.3402 10.4564 10.5487 10.4564 10.0606 10.9445L5.94455 15.0606C5.45639 15.5487 5.45639 16.3402 5.94455 16.8283L7.94945 18.8332C8.43761 19.3214 9.22906 19.3214 9.71722 18.8332L12.303 16.2474C12.5959 15.9546 13.0708 15.9546 13.3637 16.2474C13.6566 16.5403 13.6566 17.0152 13.3637 17.3081L10.7779 19.8939Z"
        fill="black"/>
</svg>
