<svg width="24" height="24" viewBox="0 0 24 24" fill="none" xmlns="http://www.w3.org/2000/svg">
  <path fill-rule="evenodd" clip-rule="evenodd"
        d="M4.5 8C4.5 6.067 6.067 4.5 8 4.5H16C17.933 4.5 19.5 6.067 19.5 8V16C19.5 17.933 17.933 19.5 16 19.5H8C6.067 19.5 4.5 17.933 4.5 16V8ZM8 5.5C6.61929 5.5 5.5 6.61929 5.5 8V16C5.5 17.3807 6.61929 18.5 8 18.5H16C17.3807 18.5 18.5 17.3807 18.5 16V8C18.5 6.61929 17.3807 5.5 16 5.5H8Z"
        fill="white"/>
  <path d="M9 8C9 8.55228 8.55228 9 8 9C7.44772 9 7 8.55228 7 8C7 7.44772 7.44772 7 8 7C8.55228 7 9 7.44772 9 8Z"
        fill="white"/>
  <path
    d="M17 8C17 8.55228 16.5523 9 16 9C15.4477 9 15 8.55228 15 8C15 7.44772 15.4477 7 16 7C16.5523 7 17 7.44772 17 8Z"
    fill="white"/>
  <path
    d="M13 12C13 12.5523 12.5523 13 12 13C11.4477 13 11 12.5523 11 12C11 11.4477 11.4477 11 12 11C12.5523 11 13 11.4477 13 12Z"
    fill="white"/>
  <path
    d="M17 16C17 16.5523 16.5523 17 16 17C15.4477 17 15 16.5523 15 16C15 15.4477 15.4477 15 16 15C16.5523 15 17 15.4477 17 16Z"
    fill="white"/>
  <path
    d="M9 16C9 16.5523 8.55228 17 8 17C7.44772 17 7 16.5523 7 16C7 15.4477 7.44772 15 8 15C8.55228 15 9 15.4477 9 16Z"
    fill="white"/>
</svg>
