<svg width="24" height="24" viewBox="0 0 24 24" fill="none" xmlns="http://www.w3.org/2000/svg">
  <path fill-rule="evenodd" clip-rule="evenodd"
        d="M11.5 4.60918C11.4638 4.62571 11.4282 4.64413 11.3932 4.66445L7.34537 7.016L11.5 6.09838V4.60918ZM12.5 4.60918V6.09838L16.6546 7.016L12.6068 4.66445C12.5718 4.64413 12.5362 4.62571 12.5 4.60918ZM18.1445 8.36915L12.9476 7.22135L16.3911 13.7256L18.1445 8.36915ZM15.6695 14.5L12 7.56863L8.33045 14.5H15.6695ZM7.60894 13.7256L11.0524 7.22135L5.85554 8.36915L7.60894 13.7256ZM5.67341 6.83081L10.8909 3.79977C11.2342 3.60034 11.6167 3.5 12 3.5C12.3833 3.5 12.7658 3.60034 13.1091 3.79977L18.3264 6.83069C18.3374 6.83606 18.3483 6.84188 18.3591 6.84814C18.7384 7.0685 19.0383 7.39134 19.2349 7.76913C19.4063 8.09838 19.5 8.47052 19.5 8.85574V14.8748C19.5 15.2969 19.3875 15.7032 19.1836 16.0548C18.9878 16.3923 18.7068 16.6804 18.3591 16.8824L13.1091 19.9324C12.7658 20.1318 12.3833 20.2321 12 20.2321C11.6167 20.2321 11.2342 20.1318 10.8909 19.9324L5.64088 16.8824C5.29321 16.6804 5.01225 16.3923 4.8164 16.0548C4.61246 15.7032 4.5 15.2969 4.5 14.8748V8.85574C4.5 8.47052 4.59369 8.09838 4.76507 7.76913C4.96173 7.39134 5.26156 7.0685 5.64088 6.84814C5.65156 6.84194 5.66241 6.83616 5.67341 6.83081ZM5.5 10.4974V14.8748C5.5 14.9761 5.5112 15.0756 5.5326 15.1716L6.87335 14.6928L5.5 10.4974ZM7.36182 15.5803L6.14072 16.0163C6.14155 16.0168 6.14238 16.0173 6.14321 16.0177L9.79555 18.1395L7.36182 15.5803ZM14.2044 18.1395L17.8568 16.0177C17.8576 16.0173 17.8585 16.0168 17.8593 16.0163L16.6382 15.5803L14.2044 18.1395ZM15.3345 15.5H8.66545L12 19.0066L15.3345 15.5ZM17.1267 14.6928L18.4674 15.1716C18.4888 15.0756 18.5 14.9761 18.5 14.8748V10.4974L17.1267 14.6928Z"
        fill="#4D4DAA"/>
</svg>
