<svg width="100" height="100" viewBox="0 0 100 100" fill="none"
     xmlns="http://www.w3.org/2000/svg">
  <path
    d="M77.7234 24.9737C72.6245 22.6716 67.1566 20.9755 61.4397 20.0041C61.3355 19.9853 61.2315 20.0322 61.1779 20.1259C60.4747 21.3566 59.6958 22.9621 59.1503 24.224C53.0014 23.3182 46.8839 23.3182 40.8611 24.224C40.3155 22.934 39.5083 21.3566 38.8019 20.1259C38.7483 20.0353 38.6443 19.9885 38.5402 20.0041C32.8264 20.9724 27.3585 22.6685 22.2565 24.9737C22.2123 24.9924 22.1744 25.0237 22.1493 25.0643C11.778 40.3104 8.93683 55.1818 10.3306 69.8688C10.3369 69.9406 10.3779 70.0094 10.4347 70.053C17.2774 74.9976 23.9057 77.9994 30.4109 79.9891C30.515 80.0203 30.6254 79.9829 30.6916 79.8985C32.2304 77.8308 33.6021 75.6505 34.7783 73.3577C34.8477 73.2235 34.7814 73.0641 34.6395 73.011C32.4638 72.1989 30.392 71.2087 28.3991 70.0843C28.2415 69.9937 28.2288 69.7719 28.3739 69.6657C28.7932 69.3564 29.2127 69.0347 29.6132 68.7099C29.6856 68.6505 29.7866 68.638 29.8718 68.6755C42.9643 74.5572 57.1385 74.5572 70.0765 68.6755C70.1617 68.6349 70.2627 68.6474 70.3383 68.7067C70.7388 69.0316 71.1582 69.3564 71.5807 69.6657C71.7257 69.7719 71.7163 69.9937 71.5587 70.0843C69.5657 71.2306 67.494 72.1989 65.315 73.0079C65.1732 73.061 65.1101 73.2235 65.1795 73.3577C66.3808 75.6473 67.7526 77.8275 69.263 79.8954C69.3261 79.9829 69.4396 80.0203 69.5437 79.9891C76.0805 77.9994 82.7087 74.9976 89.5514 70.053C89.6114 70.0094 89.6492 69.9437 89.6555 69.8719C91.3236 52.8921 86.8616 38.1427 77.8274 25.0674C77.8053 25.0237 77.7676 24.9924 77.7234 24.9737ZM36.7334 60.9259C32.7917 60.9259 29.5438 57.3651 29.5438 52.9921C29.5438 48.6191 32.7287 45.0583 36.7334 45.0583C40.7696 45.0583 43.986 48.6503 43.9229 52.9921C43.9229 57.3651 40.738 60.9259 36.7334 60.9259ZM63.3158 60.9259C59.3742 60.9259 56.1263 57.3651 56.1263 52.9921C56.1263 48.6191 59.3111 45.0583 63.3158 45.0583C67.3521 45.0583 70.5685 48.6503 70.5055 52.9921C70.5055 57.3651 67.3521 60.9259 63.3158 60.9259Z"
    fill="black"/>
</svg>
