<svg width="24" height="24" viewBox="0 0 24 24" fill="none" xmlns="http://www.w3.org/2000/svg">
<path fill-rule="evenodd" clip-rule="evenodd" d="M12.1453 3.03088C13.1211 1.87762 14.8445 1.72748 16.0051 2.69461L18.9321 5.1338C20.1051 6.11128 20.2572 7.85717 19.2709 9.02275L10.0466 19.9242C9.62576 20.4216 9.04202 20.7533 8.39938 20.8604L4.2877 21.5457C3.22102 21.7235 2.25 20.9009 2.25 19.8195V15.7326C2.25 15.0822 2.48055 14.4528 2.90069 13.9563L12.1453 3.03088ZM15.0448 3.84694C14.5173 3.40734 13.7339 3.47559 13.2903 3.99979L11.4216 6.20835L16.2692 10.248L18.1258 8.05384C18.5741 7.52403 18.505 6.73044 17.9718 6.28614L15.0448 3.84694ZM15.3002 11.3932L10.4526 7.35346L4.04577 14.9252C3.85479 15.1509 3.75 15.437 3.75 15.7326V19.8195C3.75 19.974 3.88872 20.0915 4.0411 20.0661L8.15278 19.3809C8.44489 19.3322 8.71023 19.1814 8.90152 18.9553L15.3002 11.3932ZM13.25 21C13.25 20.5858 13.5858 20.25 14 20.25H21C21.4142 20.25 21.75 20.5858 21.75 21C21.75 21.4142 21.4142 21.75 21 21.75H14C13.5858 21.75 13.25 21.4142 13.25 21Z" fill="black"/>
</svg>
