<svg width="24" height="24" viewBox="0 0 24 24" fill="none" xmlns="http://www.w3.org/2000/svg">
<path fill-rule="evenodd" clip-rule="evenodd" d="M18.1254 5.04624C17.9301 4.85098 17.6135 4.85098 17.4183 5.04624L11.4624 11.0021L12.8766 12.4163L18.8325 6.46045C19.0277 6.26519 19.0277 5.94861 18.8325 5.75335L18.1254 5.04624ZM16.7112 4.33913C17.2969 3.75335 18.2467 3.75335 18.8325 4.33913L19.5396 5.04624C20.1254 5.63203 20.1254 6.58177 19.5396 7.16756L13.2301 13.477C13.0349 13.6723 12.7183 13.6723 12.523 13.477L10.4017 11.3557C10.2064 11.1604 10.2064 10.8438 10.4017 10.6486L16.7112 4.33913ZM18.0001 14.5C18.2762 14.5 18.5001 14.7238 18.5001 15L18.5001 17C18.5001 18.3807 17.3808 19.5 16.0001 19.5L7.00009 19.5C5.61938 19.5 4.50009 18.3807 4.50009 17L4.50009 7.99998C4.50009 6.61927 5.61938 5.49998 7.00009 5.49998L9.00003 5.49998C9.27617 5.49998 9.50003 5.72384 9.50003 5.99998C9.50003 6.27612 9.27617 6.49998 9.00003 6.49998L7.00009 6.49998C6.17166 6.49998 5.50009 7.17156 5.50009 7.99998L5.50009 17C5.50009 17.8284 6.17166 18.5 7.00009 18.5L16.0001 18.5C16.8285 18.5 17.5001 17.8284 17.5001 17L17.5001 15C17.5001 14.7238 17.7239 14.5 18.0001 14.5ZM9.42774 11.6972C9.60741 11.6373 9.80549 11.6841 9.93941 11.818L12.0607 13.9393C12.1946 14.0732 12.2414 14.2713 12.1815 14.451C12.1216 14.6306 11.9654 14.7611 11.7779 14.7878L9.30301 15.1414C9.14722 15.1636 8.99003 15.1113 8.87875 15C8.76747 14.8887 8.71507 14.7315 8.73733 14.5757L9.09088 12.1008C9.11766 11.9133 9.24807 11.7571 9.42774 11.6972ZM10.6465 13.9393L9.93941 13.2322L9.82156 14.0572L10.6465 13.9393Z" fill="black"/>
</svg>