<svg width="24" height="24" viewBox="0 0 24 24" fill="none" xmlns="http://www.w3.org/2000/svg">
  <path fill-rule="evenodd" clip-rule="evenodd"
        d="M16.616 3.93298C16.3768 3.79491 16.0711 3.87685 15.933 4.116L8.68298 16.6734L10.415 17.6734L17.665 5.116C17.8031 4.87685 17.7212 4.57105 17.482 4.43298L16.616 3.93298ZM15.067 3.616C15.4812 2.89856 16.3986 2.65274 17.116 3.06696L17.982 3.56696C18.6995 3.98117 18.9453 4.89856 18.5311 5.616L11.0311 18.6064C10.893 18.8455 10.5872 18.9275 10.348 18.7894L7.74997 17.2894C7.51082 17.1513 7.42889 16.8455 7.56696 16.6064L15.067 3.616ZM6.72448 18.1712C6.88252 18.0668 7.08596 18.0607 7.24997 18.1554L9.84805 19.6554C10.0121 19.7501 10.1085 19.9293 10.0971 20.1184C10.0858 20.3074 9.96862 20.4738 9.79446 20.5482L7.49542 21.5303C7.35069 21.5921 7.1853 21.5822 7.04901 21.5035C6.91271 21.4248 6.82142 21.2865 6.8026 21.1303L6.50356 18.6482C6.48091 18.4602 6.56643 18.2755 6.72448 18.1712ZM8.48202 20.0214L7.616 19.5214L7.71567 20.3488L8.48202 20.0214Z"
        fill="black"/>
</svg>
