<svg width="24" height="24" viewBox="0 0 24 24" fill="none" xmlns="http://www.w3.org/2000/svg">
  <path fill-rule="evenodd" clip-rule="evenodd"
        d="M14 4.5C14.2761 4.5 14.5 4.72386 14.5 5V8.79289L18.6464 4.64645C18.8417 4.45118 19.1583 4.45118 19.3536 4.64645C19.5488 4.84171 19.5488 5.15829 19.3536 5.35355L15.2071 9.5L19 9.5C19.2761 9.5 19.5 9.72386 19.5 10C19.5 10.2761 19.2761 10.5 19 10.5L14 10.5C13.7239 10.5 13.5 10.2761 13.5 10V5C13.5 4.72386 13.7239 4.5 14 4.5ZM5 14.5C4.72386 14.5 4.5 14.2761 4.5 14C4.5 13.7239 4.72386 13.5 5 13.5H10C10.1326 13.5 10.2598 13.5527 10.3536 13.6464C10.4473 13.7402 10.5 13.8674 10.5 14L10.5 19C10.5 19.2761 10.2761 19.5 10 19.5C9.72386 19.5 9.5 19.2761 9.5 19L9.5 15.2071L5.35355 19.3536C5.15829 19.5488 4.84171 19.5488 4.64645 19.3536C4.45118 19.1583 4.45118 18.8417 4.64645 18.6464L8.79289 14.5H5Z"
        fill="#4D4DAA"/>
</svg>
