<svg width="24" height="24" viewBox="0 0 24 24" fill="none"
     xmlns="http://www.w3.org/2000/svg">
  <path fill-rule="evenodd" clip-rule="evenodd"
        d="M8 8C8 5.79086 9.79086 4 12 4C14.2091 4 16 5.79086 16 8C16 10.2091 14.2091 12 12 12C9.79086 12 8 10.2091 8 8ZM12 10C13.1046 10 14 9.10457 14 8C14 6.89543 13.1046 6 12 6C10.8954 6 10 6.89543 10 8C10 9.10457 10.8954 10 12 10ZM5.29289 13.2929C5.68342 12.9024 6.31658 12.9024 6.70711 13.2929L12 18.5858L17.2929 13.2929C17.6834 12.9024 18.3166 12.9024 18.7071 13.2929C19.0976 13.6834 19.0976 14.3166 18.7071 14.7071L13.4142 20C12.6332 20.781 11.3668 20.781 10.5858 20L5.29289 14.7071C4.90237 14.3166 4.90237 13.6834 5.29289 13.2929Z"
        fill="black"/>
</svg>
