<svg width="24" height="24" viewBox="0 0 24 24" fill="none"
     xmlns="http://www.w3.org/2000/svg">
  <path fill-rule="evenodd" clip-rule="evenodd"
        d="M11.6323 2.34632C11.8606 2.21789 12.1394 2.21789 12.3677 2.34632L15.3677 4.03382C15.7287 4.23689 15.8568 4.69418 15.6537 5.0552C15.4506 5.41621 14.9933 5.54425 14.6323 5.34118L12.75 4.28239V13C12.75 13.4142 12.4142 13.75 12 13.75C11.5858 13.75 11.25 13.4142 11.25 13V4.28239L9.3677 5.34118C9.00668 5.54425 8.54939 5.41621 8.34632 5.0552C8.14325 4.69418 8.27129 4.23689 8.6323 4.03382L11.6323 2.34632ZM6.65368 6.0073C6.85675 6.36832 6.72871 6.82561 6.3677 7.02868L5.38717 7.58023C4.99358 7.80162 4.75 8.2181 4.75 8.66969V15.3303C4.75 15.7819 4.99358 16.1984 5.38717 16.4198L11.3872 19.7948C11.7677 20.0088 12.2323 20.0088 12.6128 19.7948L18.6128 16.4198C19.0064 16.1984 19.25 15.7819 19.25 15.3303V8.6697C19.25 8.2181 19.0064 7.80163 18.6128 7.58023L17.6323 7.02868C17.2713 6.82561 17.1432 6.36832 17.3463 6.0073C17.5494 5.64629 18.0067 5.51825 18.3677 5.72132L19.3482 6.27286C20.2141 6.75994 20.75 7.67619 20.75 8.6697V15.3303C20.75 16.3238 20.2141 17.2401 19.3482 17.7271L13.3482 21.1021C12.5111 21.573 11.4889 21.573 10.6518 21.1021L4.65178 17.7271C3.78587 17.2401 3.25 16.3238 3.25 15.3303V8.66969C3.25 7.67619 3.78587 6.75994 4.65178 6.27286L5.6323 5.72132C5.99332 5.51825 6.45061 5.64629 6.65368 6.0073Z"
        fill="black"/>
</svg>
