<svg width="24" height="24" viewBox="0 0 24 24" fill="none" xmlns="http://www.w3.org/2000/svg">
  <path fill-rule="evenodd" clip-rule="evenodd"
        d="M11.7549 2.56421C11.9071 2.4786 12.0929 2.4786 12.2451 2.56421L15.2451 4.25171C15.4858 4.38709 15.5712 4.69195 15.4358 4.93263C15.3004 5.17331 14.9955 5.25867 14.7549 5.12329L12.5 3.85492V13C12.5 13.2761 12.2761 13.5 12 13.5C11.7239 13.5 11.5 13.2761 11.5 13V3.85492L9.24513 5.12329C9.00445 5.25867 8.69959 5.17331 8.56421 4.93263C8.42883 4.69195 8.51419 4.38709 8.75487 4.25171L11.7549 2.56421ZM6.43579 6.12987C6.57117 6.37055 6.48581 6.67541 6.24513 6.81079L5.26461 7.36233C4.79229 7.62801 4.5 8.12778 4.5 8.66969V15.3303C4.5 15.8722 4.79229 16.372 5.26461 16.6377L11.2646 20.0127C11.7212 20.2695 12.2788 20.2695 12.7354 20.0127L18.7354 16.6377C19.2077 16.372 19.5 15.8722 19.5 15.3303V8.6697C19.5 8.12779 19.2077 7.62801 18.7354 7.36233L17.7549 6.81079C17.5142 6.67541 17.4288 6.37055 17.5642 6.12987C17.6996 5.88919 18.0045 5.80383 18.2451 5.93921L19.2257 6.49076C20.0128 6.93355 20.5 7.76651 20.5 8.6697V15.3303C20.5 16.2335 20.0128 17.0664 19.2257 17.5092L13.2257 20.8842C12.4646 21.3123 11.5354 21.3123 10.7743 20.8842L4.77435 17.5092C3.98716 17.0664 3.5 16.2335 3.5 15.3303V8.66969C3.5 7.76651 3.98715 6.93355 4.77435 6.49076L5.75487 5.93921C5.99555 5.80383 6.30041 5.88919 6.43579 6.12987Z"
        fill="black"/>
</svg>
