<svg width="24" height="24" viewBox="0 0 24 24" fill="none" xmlns="http://www.w3.org/2000/svg">
<path fill-rule="evenodd" clip-rule="evenodd" d="M14 5.5C13.7239 5.5 13.5 5.27614 13.5 5C13.5 4.72386 13.7239 4.5 14 4.5L19 4.5C19.2761 4.5 19.5 4.72386 19.5 5V10C19.5 10.2761 19.2761 10.5 19 10.5C18.7239 10.5 18.5 10.2761 18.5 10V6.20711L14.3536 10.3536C14.1583 10.5488 13.8417 10.5488 13.6464 10.3536C13.4512 10.1583 13.4512 9.84171 13.6464 9.64645L17.7929 5.5H14ZM4.5 14C4.5 13.7239 4.72386 13.5 5 13.5C5.27614 13.5 5.5 13.7239 5.5 14V17.7929L9.64645 13.6464C9.84171 13.4512 10.1583 13.4512 10.3536 13.6464C10.5488 13.8417 10.5488 14.1583 10.3536 14.3536L6.20711 18.5H10C10.2761 18.5 10.5 18.7239 10.5 19C10.5 19.2761 10.2761 19.5 10 19.5H5C4.72386 19.5 4.5 19.2761 4.5 19L4.5 14Z" fill="#4D4DAA"/>
</svg>
