<svg width="24" height="24" viewBox="0 0 24 24" fill="none" xmlns="http://www.w3.org/2000/svg">
<path d="M5.33789 10.251C5.75176 9.88532 6.38432 9.92403 6.75 10.3379C7.11519 10.7517 7.07571 11.3835 6.66211 11.749L6.16699 12.1855C5.79908 12.5524 5.5069 12.9882 5.30664 13.4678C5.1043 13.9524 5.00006 14.4729 5 14.998C5.00003 15.5234 5.10425 16.0445 5.30664 16.5293C5.50906 17.0139 5.80626 17.454 6.17969 17.8232C6.94118 18.576 7.9693 18.998 9.04004 18.998C10.0887 18.9979 11.0952 18.5921 11.8516 17.8682L12.1973 17.4033C12.5267 16.9602 13.1535 16.8679 13.5967 17.1973C14.0397 17.5268 14.1322 18.1535 13.8027 18.5967L13.4053 19.1309C13.3752 19.1713 13.3424 19.2097 13.3066 19.2451C12.1708 20.3683 10.6374 20.9979 9.04004 20.998C7.4427 20.998 5.90935 20.3681 4.77344 19.2451C4.21188 18.6899 3.76528 18.0285 3.46094 17.2998C3.15662 16.5709 3.00003 15.7879 3 14.998C3.00006 14.2083 3.15667 13.426 3.46094 12.6973C3.76528 11.9684 4.2118 11.3073 4.77344 10.752L4.81445 10.7139L5.33789 10.251Z" fill="black"/>
<path d="M14.293 8.29297C14.6835 7.90244 15.3165 7.90244 15.707 8.29297C16.0975 8.6835 16.0975 9.31653 15.707 9.70703L9.70703 15.707C9.31653 16.0975 8.6835 16.0975 8.29297 15.707C7.90244 15.3165 7.90244 14.6835 8.29297 14.293L14.293 8.29297Z" fill="black"/>
<path d="M14.999 3C16.5903 3.00014 18.1161 3.63263 19.2412 4.75781C20.3664 5.88317 20.9991 7.4096 20.999 9.00098C20.9988 10.5922 20.3664 12.118 19.2412 13.2432C19.2247 13.2596 19.207 13.2757 19.1895 13.291L18.6562 13.7549C18.2394 14.1171 17.6073 14.0731 17.2451 13.6562C16.883 13.2394 16.927 12.6074 17.3438 12.2451L17.8477 11.8066C18.5843 11.0587 18.9988 10.0516 18.999 9.00098C18.9991 7.94003 18.5773 6.92213 17.8271 6.17188C17.0771 5.42177 16.0598 5.00014 14.999 5C13.9467 4.99995 12.9369 5.4146 12.1885 6.15332L11.7568 6.6543C11.3958 7.07204 10.7646 7.11771 10.3467 6.75684C9.92883 6.39584 9.88228 5.76461 10.2432 5.34668L10.7061 4.81055L10.7559 4.75684C11.8812 3.63174 13.4077 2.99992 14.999 3Z" fill="black"/>
</svg>
