<svg width="24" height="24" viewBox="0 0 24 24" fill="none" xmlns="http://www.w3.org/2000/svg">
  <path fill-rule="evenodd" clip-rule="evenodd"
        d="M7 4.5C5.61929 4.5 4.5 5.61929 4.5 7V17C4.5 18.3807 5.61929 19.5 7 19.5H14C14.2761 19.5 14.5 19.7239 14.5 20C14.5 20.2761 14.2761 20.5 14 20.5H7C5.067 20.5 3.5 18.933 3.5 17V7C3.5 5.067 5.067 3.5 7 3.5H14C14.2761 3.5 14.5 3.72386 14.5 4C14.5 4.27614 14.2761 4.5 14 4.5H7ZM16.6464 8.64645C16.8417 8.45118 17.1583 8.45118 17.3536 8.64645L20.3536 11.6464C20.5488 11.8417 20.5488 12.1583 20.3536 12.3536L17.3536 15.3536C17.1583 15.5488 16.8417 15.5488 16.6464 15.3536C16.4512 15.1583 16.4512 14.8417 16.6464 14.6464L18.7929 12.5H11C10.7239 12.5 10.5 12.2761 10.5 12C10.5 11.7239 10.7239 11.5 11 11.5H18.7929L16.6464 9.35355C16.4512 9.15829 16.4512 8.84171 16.6464 8.64645Z"
        fill="black"/>
</svg>
