<svg width="24" height="24" viewBox="0 0 24 24" fill="none"
     xmlns="http://www.w3.org/2000/svg">
  <path fill-rule="evenodd" clip-rule="evenodd"
        d="M3.75 5C3.75 4.30964 4.30964 3.75 5 3.75H12C12.6904 3.75 13.25 4.30964 13.25 5V6C13.25 6.41421 13.5858 6.75 14 6.75C14.4142 6.75 14.75 6.41421 14.75 6V5C14.75 3.48122 13.5188 2.25 12 2.25H5C3.48122 2.25 2.25 3.48122 2.25 5V19C2.25 20.5188 3.48122 21.75 5 21.75H12C13.5188 21.75 14.75 20.5188 14.75 19V18C14.75 17.5858 14.4142 17.25 14 17.25C13.5858 17.25 13.25 17.5858 13.25 18V19C13.25 19.6904 12.6904 20.25 12 20.25H5C4.30964 20.25 3.75 19.6904 3.75 19V5ZM18.5303 8.46967C18.2374 8.17678 17.7626 8.17678 17.4697 8.46967C17.1768 8.76256 17.1768 9.23744 17.4697 9.53033L19.1893 11.25H12C11.5858 11.25 11.25 11.5858 11.25 12C11.25 12.4142 11.5858 12.75 12 12.75H19.1893L17.4697 14.4697C17.1768 14.7626 17.1768 15.2374 17.4697 15.5303C17.7626 15.8232 18.2374 15.8232 18.5303 15.5303L21.5303 12.5303C21.8232 12.2374 21.8232 11.7626 21.5303 11.4697L18.5303 8.46967Z"
        fill="black"/>
</svg>
