<svg width="24" height="24" viewBox="0 0 24 24" fill="none" xmlns="http://www.w3.org/2000/svg">
<path fill-rule="evenodd" clip-rule="evenodd" d="M6 3.75C5.30964 3.75 4.75 4.30964 4.75 5V19C4.75 19.6904 5.30964 20.25 6 20.25H14C14.6904 20.25 15.25 19.6904 15.25 19V18C15.25 17.5858 15.5858 17.25 16 17.25C16.4142 17.25 16.75 17.5858 16.75 18V19C16.75 20.5188 15.5188 21.75 14 21.75H6C4.48122 21.75 3.25 20.5188 3.25 19V5C3.25 3.48122 4.48122 2.25 6 2.25H14C15.5188 2.25 16.75 3.48122 16.75 5V6C16.75 6.41421 16.4142 6.75 16 6.75C15.5858 6.75 15.25 6.41421 15.25 6V5C15.25 4.30964 14.6904 3.75 14 3.75H6Z" fill="black"/>
<path fill-rule="evenodd" clip-rule="evenodd" d="M16.4697 8.46967C16.7626 8.17678 17.2374 8.17678 17.5303 8.46967L20.5303 11.4697C20.8232 11.7626 20.8232 12.2374 20.5303 12.5303L17.5303 15.5303C17.2374 15.8232 16.7626 15.8232 16.4697 15.5303C16.1768 15.2374 16.1768 14.7626 16.4697 14.4697L18.1893 12.75H11C10.5858 12.75 10.25 12.4142 10.25 12C10.25 11.5858 10.5858 11.25 11 11.25H18.1893L16.4697 9.53033C16.1768 9.23744 16.1768 8.76256 16.4697 8.46967Z" fill="black"/>
</svg>
