<svg width="24" height="24" viewBox="0 0 24 24" fill="none" xmlns="http://www.w3.org/2000/svg">
  <path fill-rule="evenodd" clip-rule="evenodd"
        d="M7 4.5C5.61929 4.5 4.5 5.61929 4.5 7V17C4.5 18.3807 5.61929 19.5 7 19.5H17C18.3807 19.5 19.5 18.3807 19.5 17V7C19.5 5.61929 18.3807 4.5 17 4.5H7ZM3.5 7C3.5 5.067 5.067 3.5 7 3.5H17C18.933 3.5 20.5 5.067 20.5 7V17C20.5 18.933 18.933 20.5 17 20.5H7C5.067 20.5 3.5 18.933 3.5 17V7ZM10.7426 8.81803C10.7426 8.54189 10.9665 8.31803 11.2426 8.31803H15.4853C15.7614 8.31803 15.9853 8.54189 15.9853 8.81803V13.0607C15.9853 13.3368 15.7614 13.5607 15.4853 13.5607C15.2091 13.5607 14.9853 13.3368 14.9853 13.0607V10.0251L9.47487 15.5355C9.27961 15.7308 8.96303 15.7308 8.76777 15.5355C8.5725 15.3403 8.5725 15.0237 8.76777 14.8284L14.2782 9.31803H11.2426C10.9665 9.31803 10.7426 9.09417 10.7426 8.81803Z"
        fill="black"/>
</svg>
