<svg width="24" height="24" viewBox="0 0 24 24" fill="none"
     xmlns="http://www.w3.org/2000/svg">
  <path fill-rule="evenodd" clip-rule="evenodd"
        d="M3.25 6C3.25 4.48122 4.48122 3.25 6 3.25H10C10.4142 3.25 10.75 3.58579 10.75 4C10.75 4.41421 10.4142 4.75 10 4.75H6C5.30964 4.75 4.75 5.30964 4.75 6V18C4.75 18.6904 5.30964 19.25 6 19.25H18C18.6904 19.25 19.25 18.6904 19.25 18V14C19.25 13.5858 19.5858 13.25 20 13.25C20.4142 13.25 20.75 13.5858 20.75 14V18C20.75 19.5188 19.5188 20.75 18 20.75H6C4.48122 20.75 3.25 19.5188 3.25 18V6ZM13.25 4C13.25 3.58579 13.5858 3.25 14 3.25H20C20.4142 3.25 20.75 3.58579 20.75 4V10C20.75 10.4142 20.4142 10.75 20 10.75C19.5858 10.75 19.25 10.4142 19.25 10V5.81066L10.5303 14.5303C10.2374 14.8232 9.76256 14.8232 9.46967 14.5303C9.17678 14.2374 9.17678 13.7626 9.46967 13.4697L18.1893 4.75H14C13.5858 4.75 13.25 4.41421 13.25 4Z"
        fill="black"/>
</svg>
