<svg width="18" height="19" viewBox="0 0 18 19" fill="none" xmlns="http://www.w3.org/2000/svg">
    <path fill-rule="evenodd" clip-rule="evenodd"
          d="M5.25 3.875C4.21447 3.875 3.375 4.71447 3.375 5.75V13.25C3.375 14.2855 4.21447 15.125 5.25 15.125H12.75C13.7855 15.125 14.625 14.2855 14.625 13.25V5.75C14.625 4.71447 13.7855 3.875 12.75 3.875H5.25ZM2.625 5.75C2.625 4.30025 3.80025 3.125 5.25 3.125H12.75C14.1997 3.125 15.375 4.30025 15.375 5.75V13.25C15.375 14.6997 14.1997 15.875 12.75 15.875H5.25C3.80025 15.875 2.625 14.6997 2.625 13.25V5.75ZM8.05698 7.11352C8.05698 6.90641 8.22487 6.73852 8.43198 6.73852H11.614C11.8211 6.73852 11.989 6.90641 11.989 7.11352V10.2955C11.989 10.5026 11.8211 10.6705 11.614 10.6705C11.4069 10.6705 11.239 10.5026 11.239 10.2955V8.01885L7.10616 12.1517C6.95971 12.2981 6.72227 12.2981 6.57583 12.1517C6.42938 12.0052 6.42938 11.7678 6.57583 11.6213L10.7086 7.48852H8.43198C8.22487 7.48852 8.05698 7.32063 8.05698 7.11352Z"
          fill="#B9C0C6"/>
</svg>
