<svg width="24" height="24" viewBox="0 0 24 24" fill="none" xmlns="http://www.w3.org/2000/svg">
<path fill-rule="evenodd" clip-rule="evenodd" d="M2.25 12C2.25 6.61509 6.61509 2.25 12 2.25C17.3849 2.25 21.75 6.61509 21.75 12C21.75 17.3849 17.3849 21.75 12 21.75C6.61509 21.75 2.25 17.3849 2.25 12ZM5.66 6.72066C4.46744 8.15127 3.75 9.99182 3.75 12C3.75 16.5565 7.44351 20.25 12 20.25C14.0082 20.25 15.8487 19.5326 17.2793 18.34L5.66 6.72066ZM6.72066 5.66L18.34 17.2793C19.5326 15.8487 20.25 14.0082 20.25 12C20.25 7.44351 16.5565 3.75 12 3.75C9.99182 3.75 8.15127 4.46744 6.72066 5.66Z" fill="#A4A4A4"/>
</svg>
