<svg width="24" height="24" viewBox="0 0 24 24" fill="none" xmlns="http://www.w3.org/2000/svg">
<path d="M19 15C19.5523 15 20 15.4477 20 16V18H22C22.5523 18 23 18.4477 23 19C23 19.5523 22.5523 20 22 20H20V22C20 22.5523 19.5523 23 19 23C18.4477 23 18 22.5523 18 22V20H16C15.4477 20 15 19.5523 15 19C15 18.4477 15.4477 18 16 18H18V16C18 15.4477 18.4477 15 19 15Z" fill="black"/>
<path d="M18 2C19.0609 2 20.078 2.42173 20.8281 3.17188C21.5783 3.92202 22 4.93913 22 6V12.5C22 13.0523 21.5523 13.5 21 13.5C20.4477 13.5 20 13.0523 20 12.5V6C20 5.46957 19.7891 4.96101 19.4141 4.58594C19.039 4.21086 18.5304 4 18 4H6C5.46957 4 4.96101 4.21086 4.58594 4.58594C4.21086 4.96101 4 5.46957 4 6V13.5859L7.30664 10.2793C7.92078 9.68835 8.67729 9.33008 9.5 9.33008C10.3227 9.33011 11.0792 9.68834 11.6934 10.2793L14 12.5859L14.3066 12.2793C15.2093 11.4117 16.3911 11.0811 17.5439 11.5283C18.0586 11.7282 18.314 12.3075 18.1143 12.8223C17.9144 13.3369 17.3351 13.5922 16.8203 13.3926C16.5091 13.2719 16.1307 13.3014 15.6934 13.7217L15.4141 14L15.707 14.293C16.0974 14.6835 16.0974 15.3166 15.707 15.707C15.3165 16.0974 14.6835 16.0974 14.293 15.707L13.3018 14.7158C13.299 14.7131 13.2957 14.7108 13.293 14.708C13.2899 14.705 13.2872 14.7013 13.2842 14.6982L10.3066 11.7207L10.1904 11.6172C9.9238 11.398 9.68659 11.3301 9.5 11.3301C9.28676 11.3301 9.00719 11.4187 8.69336 11.7207L4 16.4141V18C4 18.5304 4.21086 19.039 4.58594 19.4141C4.96101 19.7891 5.46957 20 6 20H12.5C13.0523 20 13.5 20.4477 13.5 21C13.5 21.5523 13.0523 22 12.5 22H6C4.93913 22 3.92202 21.5783 3.17188 20.8281C2.42173 20.078 2 19.0609 2 18V6C2 4.93913 2.42173 3.92202 3.17188 3.17188C3.92202 2.42173 4.93913 2 6 2H18Z" fill="black"/>
<path d="M15.0098 7C15.5621 7 16.0098 7.44772 16.0098 8C16.0098 8.55228 15.5621 9 15.0098 9H15C14.4477 9 14 8.55228 14 8C14 7.44772 14.4477 7 15 7H15.0098Z" fill="black"/>
</svg>
