<svg width="24" height="24" viewBox="0 0 24 24" fill="none" xmlns="http://www.w3.org/2000/svg">
  <path fill-rule="evenodd" clip-rule="evenodd"
        d="M6.5 6C6.5 5.17157 7.17157 4.5 8 4.5H16C16.8284 4.5 17.5 5.17157 17.5 6V8.5H18C19.3807 8.5 20.5 9.61929 20.5 11V17C20.5 17.2761 20.2761 17.5 20 17.5H17.5V18C17.5 18.8284 16.8284 19.5 16 19.5H8C7.17157 19.5 6.5 18.8284 6.5 18V17.5H4C3.72386 17.5 3.5 17.2761 3.5 17V11C3.5 9.61929 4.61929 8.5 6 8.5H6.5V6ZM7.5 8.5H16.5V6C16.5 5.72386 16.2761 5.5 16 5.5H8C7.72386 5.5 7.5 5.72386 7.5 6V8.5ZM6.5 16.5V13.5C6.5 13.2239 6.72386 13 7 13H17C17.2761 13 17.5 13.2239 17.5 13.5V16.5H19.5V11C19.5 10.1716 18.8284 9.5 18 9.5H6C5.17157 9.5 4.5 10.1716 4.5 11V16.5H6.5ZM7.5 14V18C7.5 18.2761 7.72386 18.5 8 18.5H16C16.2761 18.5 16.5 18.2761 16.5 18V14H7.5Z"
        fill="black"/>
</svg>
