<svg width="24" height="24" viewBox="0 0 24 24" fill="none"
     xmlns="http://www.w3.org/2000/svg">
  <path fill-rule="evenodd" clip-rule="evenodd"
        d="M9 2.25C7.48122 2.25 6.25 3.48122 6.25 5V9.25H5C3.48122 9.25 2.25 10.4812 2.25 12V16C2.25 17.5188 3.48122 18.75 5 18.75H6V19C6 20.1046 6.89543 21 8 21H16C17.1046 21 18 20.1046 18 19V18.75H19C20.5188 18.75 21.75 17.5188 21.75 16V12C21.75 10.4812 20.5188 9.25 19 9.25H17.75V5C17.75 3.48122 16.5188 2.25 15 2.25H9ZM16.25 9.25V5C16.25 4.30964 15.6904 3.75 15 3.75H9C8.30964 3.75 7.75 4.30964 7.75 5V9.25H16.25ZM19 17.25H18V15C18 13.8954 17.1046 13 16 13H8C6.89543 13 6 13.8954 6 15V17.25H5C4.30964 17.25 3.75 16.6904 3.75 16V12C3.75 11.3096 4.30964 10.75 5 10.75H19C19.6904 10.75 20.25 11.3096 20.25 12V16C20.25 16.6904 19.6904 17.25 19 17.25ZM7.5 19V18.75V17.25V15C7.5 14.7239 7.72386 14.5 8 14.5H16C16.2761 14.5 16.5 14.7239 16.5 15V17.25V18.75V19C16.5 19.2761 16.2761 19.5 16 19.5H8C7.72386 19.5 7.5 19.2761 7.5 19Z"
        fill="black"/>
</svg>
