<svg width="24" height="24" viewBox="0 0 24 24" fill="none" xmlns="http://www.w3.org/2000/svg">
<path fill-rule="evenodd" clip-rule="evenodd" d="M12 3.5C12.2761 3.5 12.5 3.72386 12.5 4V7C12.5 7.27614 12.2761 7.5 12 7.5C11.7239 7.5 11.5 7.27614 11.5 7V4C11.5 3.72386 11.7239 3.5 12 3.5ZM8.09456 6.50902C8.32992 6.55435 8.5 6.76032 8.5 7V17C8.5 17.2761 8.27614 17.5 8 17.5H4C3.83409 17.5 3.67898 17.4177 3.58597 17.2803C3.49295 17.1429 3.47415 16.9684 3.53576 16.8143L7.53576 6.8143C7.62478 6.59176 7.8592 6.4637 8.09456 6.50902ZM15.9054 6.50902C16.1408 6.4637 16.3752 6.59176 16.4642 6.8143L20.4642 16.8143C20.5259 16.9684 20.5071 17.1429 20.414 17.2803C20.321 17.4177 20.1659 17.5 20 17.5H16C15.7239 17.5 15.5 17.2761 15.5 17V7C15.5 6.76032 15.6701 6.55435 15.9054 6.50902ZM4.73852 16.5H7.5V9.59629L4.73852 16.5ZM16.5 9.59629V16.5H19.2615L16.5 9.59629ZM12 10C12.2761 10 12.5 10.2239 12.5 10.5V13.5C12.5 13.7761 12.2761 14 12 14C11.7239 14 11.5 13.7761 11.5 13.5V10.5C11.5 10.2239 11.7239 10 12 10ZM12 16.5C12.2761 16.5 12.5 16.7239 12.5 17V20C12.5 20.2761 12.2761 20.5 12 20.5C11.7239 20.5 11.5 20.2761 11.5 20V17C11.5 16.7239 11.7239 16.5 12 16.5Z" fill="#F8F8F8"/>
</svg>
