<svg width="24" height="24" viewBox="0 0 24 24" fill="none"
     xmlns="http://www.w3.org/2000/svg">
  <path fill-rule="evenodd" clip-rule="evenodd"
        d="M12 3.25C12.4142 3.25 12.75 3.58579 12.75 4V7C12.75 7.41421 12.4142 7.75 12 7.75C11.5858 7.75 11.25 7.41421 11.25 7V4C11.25 3.58579 11.5858 3.25 12 3.25ZM8.14183 6.26353C8.49487 6.33152 8.75 6.64047 8.75 7V17C8.75 17.4142 8.41422 17.75 8 17.75H4C3.75114 17.75 3.51848 17.6266 3.37895 17.4205C3.23943 17.2144 3.21122 16.9525 3.30365 16.7215L7.30365 6.72146C7.43717 6.38765 7.7888 6.19554 8.14183 6.26353ZM15.8582 6.26353C16.2112 6.19554 16.5628 6.38765 16.6964 6.72146L20.6964 16.7215C20.7888 16.9525 20.7606 17.2144 20.6211 17.4205C20.4815 17.6266 20.2489 17.75 20 17.75H16C15.5858 17.75 15.25 17.4142 15.25 17V7C15.25 6.64047 15.5051 6.33152 15.8582 6.26353ZM5.10778 16.25H7.25V10.8944L5.10778 16.25ZM16.75 10.8944V16.25H18.8922L16.75 10.8944ZM12 9.75C12.4142 9.75 12.75 10.0858 12.75 10.5V13.5C12.75 13.9142 12.4142 14.25 12 14.25C11.5858 14.25 11.25 13.9142 11.25 13.5V10.5C11.25 10.0858 11.5858 9.75 12 9.75ZM12 16.25C12.4142 16.25 12.75 16.5858 12.75 17V20C12.75 20.4142 12.4142 20.75 12 20.75C11.5858 20.75 11.25 20.4142 11.25 20V17C11.25 16.5858 11.5858 16.25 12 16.25Z"
        fill="black"/>
</svg>
