<svg width="24" height="24" viewBox="0 0 24 24" fill="none" xmlns="http://www.w3.org/2000/svg">
  <path fill-rule="evenodd" clip-rule="evenodd"
        d="M14.118 5.5L13.118 5C12.4142 4.64809 11.5858 4.64809 10.882 5L9.88197 5.5L7 5.5C6.72386 5.5 6.5 5.72386 6.5 6C6.5 6.27614 6.72386 6.5 7 6.5L17 6.5C17.2761 6.5 17.5 6.27614 17.5 6C17.5 5.72386 17.2761 5.5 17 5.5L14.118 5.5ZM8.19917 8.5C7.88655 8.5 7.6506 8.78319 7.70628 9.08944L9.19335 17.2683C9.32303 17.9816 9.94422 18.5 10.6692 18.5H13.3308C14.0558 18.5 14.677 17.9816 14.8067 17.2683L16.2937 9.08945C16.3494 8.78319 16.1135 8.5 15.8008 8.5L8.19917 8.5ZM6.72241 9.26833C6.55488 8.3469 7.26399 7.5 8.19917 7.5L15.8008 7.5C16.736 7.5 17.4451 8.34691 17.2776 9.26833L15.7905 17.4472C15.5744 18.6359 14.5391 19.5 13.3308 19.5H10.6692C9.46094 19.5 8.42561 18.6359 8.20948 17.4472L6.72241 9.26833Z"
        fill="black"/>
</svg>
