<svg width="24" height="24" viewBox="0 0 24 24" fill="none" xmlns="http://www.w3.org/2000/svg">
<path fill-rule="evenodd" clip-rule="evenodd" d="M9.29812 3.75C9.19638 3.75 9.10479 3.81165 9.0665 3.90591L8.11421 6.25H15.8858L14.9335 3.90591C14.8952 3.81165 14.8036 3.75 14.7019 3.75H9.29812ZM17.5048 6.25L16.3232 3.34134C16.0552 2.68155 15.414 2.25 14.7019 2.25H9.29812C8.58597 2.25 7.94484 2.68155 7.6768 3.34134L6.49516 6.25H3C2.58579 6.25 2.25 6.58579 2.25 7C2.25 7.41421 2.58579 7.75 3 7.75H3.34953L4.88958 18.5303C5.15349 20.3778 6.7357 21.75 8.60189 21.75H15.3981C17.2643 21.75 18.8465 20.3778 19.1104 18.5303L20.6505 7.75H21C21.4142 7.75 21.75 7.41421 21.75 7C21.75 6.58579 21.4142 6.25 21 6.25H17.5048ZM19.1352 7.75H4.86476L6.3745 18.3182C6.53285 19.4267 7.48217 20.25 8.60189 20.25H15.3981C16.5178 20.25 17.4671 19.4267 17.6255 18.3182L19.1352 7.75ZM9.3767 10.2602C9.78528 10.1921 10.1717 10.4681 10.2398 10.8767L11.2398 16.8767C11.3079 17.2853 11.0319 17.6717 10.6233 17.7398C10.2147 17.8079 9.8283 17.5319 9.7602 17.1233L8.7602 11.1233C8.69211 10.7147 8.96812 10.3283 9.3767 10.2602ZM14.6233 10.2602C15.0319 10.3283 15.3079 10.7147 15.2398 11.1233L14.2398 17.1233C14.1717 17.5319 13.7853 17.8079 13.3767 17.7398C12.9681 17.6717 12.6921 17.2853 12.7602 16.8767L13.7602 10.8767C13.8283 10.4681 14.2147 10.1921 14.6233 10.2602Z" fill="black"/>
</svg>
