<svg width="24" height="24" viewBox="0 0 24 24" fill="none" xmlns="http://www.w3.org/2000/svg">
<path fill-rule="evenodd" clip-rule="evenodd" d="M15.1111 12.75C13.8071 12.75 12.75 13.8071 12.75 15.1111C12.75 16.4151 13.8071 17.4722 15.1111 17.4722C15.7394 17.4722 16.3104 17.2268 16.7334 16.8266C16.7474 16.8099 16.7623 16.7937 16.778 16.778C16.7937 16.7623 16.8099 16.7474 16.8266 16.7334C17.2268 16.3104 17.4722 15.7394 17.4722 15.1111C17.4722 13.8071 16.4151 12.75 15.1111 12.75ZM18.3199 17.2593C18.7319 16.6451 18.9722 15.9062 18.9722 15.1111C18.9722 12.9787 17.2435 11.25 15.1111 11.25C12.9787 11.25 11.25 12.9787 11.25 15.1111C11.25 17.2435 12.9787 18.9722 15.1111 18.9722C15.9062 18.9722 16.6451 18.7319 17.2593 18.3199L18.4697 19.5303C18.7626 19.8232 19.2374 19.8232 19.5303 19.5303C19.8232 19.2374 19.8232 18.7626 19.5303 18.4697L18.3199 17.2593Z" fill="black"/>
<path fill-rule="evenodd" clip-rule="evenodd" d="M8 4.75C7.30964 4.75 6.75 5.30964 6.75 6V18C6.75 18.6904 7.30964 19.25 8 19.25H11.5C11.9142 19.25 12.25 19.5858 12.25 20C12.25 20.4142 11.9142 20.75 11.5 20.75H8C6.48122 20.75 5.25 19.5188 5.25 18V6C5.25 4.48122 6.48122 3.25 8 3.25H14C15.5188 3.25 16.75 4.48122 16.75 6V9C16.75 9.41421 16.4142 9.75 16 9.75C15.5858 9.75 15.25 9.41421 15.25 9V6C15.25 5.30964 14.6904 4.75 14 4.75H8Z" fill="black"/>
</svg>
