<svg width="24" height="24" viewBox="0 0 24 24" fill="none" xmlns="http://www.w3.org/2000/svg">
    <path fill-rule="evenodd" clip-rule="evenodd"
          d="M8 5.5C7.17157 5.5 6.5 6.17157 6.5 7V17C6.5 17.8284 7.17157 18.5 8 18.5H10.5C10.7761 18.5 11 18.7239 11 19C11 19.2761 10.7761 19.5 10.5 19.5H8C6.61929 19.5 5.5 18.3807 5.5 17V7C5.5 5.61929 6.61929 4.5 8 4.5H13C14.3807 4.5 15.5 5.61929 15.5 7V10C15.5 10.2761 15.2761 10.5 15 10.5C14.7239 10.5 14.5 10.2761 14.5 10V7C14.5 6.17157 13.8284 5.5 13 5.5H8ZM14.1111 12.5C12.669 12.5 11.5 13.669 11.5 15.1111C11.5 16.5532 12.669 17.7222 14.1111 17.7222C15.5532 17.7222 16.7222 16.5532 16.7222 15.1111C16.7222 13.669 15.5532 12.5 14.1111 12.5ZM10.5 15.1111C10.5 13.1167 12.1167 11.5 14.1111 11.5C16.1055 11.5 17.7222 13.1167 17.7222 15.1111C17.7222 15.928 17.451 16.6815 16.9937 17.2865L18.3536 18.6464L17.6464 19.3536L16.2865 17.9937C15.6815 18.451 14.928 18.7222 14.1111 18.7222C12.1167 18.7222 10.5 17.1055 10.5 15.1111Z"
          fill="#4D4DAA"/>
</svg>
