<svg width="24" height="24" viewBox="0 0 24 24" fill="none" xmlns="http://www.w3.org/2000/svg">
<path fill-rule="evenodd" clip-rule="evenodd" d="M12 3.8541L10.7998 7.54803C10.4249 8.70169 9.34986 9.48278 8.13683 9.48278H4.25281L7.39505 11.7658C8.37641 12.4788 8.78705 13.7426 8.4122 14.8962L7.21198 18.5902L10.3542 16.3072C11.3356 15.5942 12.6645 15.5942 13.6458 16.3072L16.7881 18.5902L15.5878 14.8962C15.213 13.7426 15.6236 12.4788 16.605 11.7658L19.7472 9.48278H15.8632C14.6502 9.48278 13.5751 8.70169 13.2002 7.54803L12 3.8541ZM13.2364 2.80517C12.8472 1.60746 11.1528 1.60747 10.7636 2.80517L9.3732 7.0845C9.19916 7.62013 8.70002 7.98278 8.13683 7.98278H3.63727C2.37793 7.98278 1.85432 9.59428 2.87315 10.3345L6.51337 12.9793C6.969 13.3103 7.15966 13.8971 6.98562 14.4327L5.59518 18.7121C5.20602 19.9098 6.57685 20.9057 7.59568 20.1655L11.2359 17.5207C11.6915 17.1897 12.3085 17.1897 12.7641 17.5207L16.4044 20.1655C17.4232 20.9057 18.794 19.9098 18.4049 18.7121L17.0144 14.4327C16.8404 13.8971 17.031 13.3103 17.4867 12.9793L21.1269 10.3345C22.1457 9.59428 21.6221 7.98278 20.3628 7.98278H15.8632C15.3 7.98278 14.8009 7.62013 14.6268 7.0845L13.2364 2.80517Z" fill="black"/>
</svg>
