<svg width="24" height="24" viewBox="0 0 24 24" fill="none" xmlns="http://www.w3.org/2000/svg">
  <path fill-rule="evenodd" clip-rule="evenodd"
        d="M19.4661 9.81906C19.5408 10.0114 19.4896 10.2298 19.3373 10.369L15.5483 13.8328L17.4667 18.8205C17.5448 19.0238 17.4824 19.2543 17.3124 19.3904C17.1424 19.5264 16.9038 19.5368 16.7226 19.416L12 16.2676L7.27733 19.416C7.09612 19.5368 6.85757 19.5264 6.68754 19.3904C6.51751 19.2543 6.45513 19.0238 6.53331 18.8205L8.45167 13.8328L4.66262 10.369C4.51035 10.2298 4.45921 10.0114 4.53387 9.81906C4.60853 9.62672 4.79366 9.5 4.99998 9.5L9.7335 9.5L11.5333 4.82051C11.6076 4.62741 11.7931 4.5 12 4.5C12.2069 4.5 12.3924 4.62741 12.4667 4.82051L14.2665 9.5L19 9.5C19.2063 9.5 19.3914 9.62672 19.4661 9.81906ZM17.712 10.5L13.9231 10.5C13.7162 10.5 13.5307 10.3726 13.4564 10.1795L12 6.39284L10.5436 10.1795C10.4693 10.3726 10.2838 10.5 10.0769 10.5L6.288 10.5L9.37815 13.3248C9.53001 13.4637 9.58133 13.6813 9.50747 13.8734L8.03124 17.7116L11.7226 15.2506C11.8906 15.1387 12.1094 15.1387 12.2773 15.2506L15.9687 17.7116L14.4925 13.8734C14.4186 13.6813 14.4699 13.4637 14.6218 13.3248L17.712 10.5Z"
        fill="black"/>
</svg>
