<svg width="24" height="24" viewBox="0 0 24 24" fill="none" xmlns="http://www.w3.org/2000/svg">
  <path fill-rule="evenodd" clip-rule="evenodd"
        d="M6.64645 2.64645C6.84171 2.45118 7.15829 2.45118 7.35355 2.64645L8.35355 3.64645C8.54882 3.84171 8.54882 4.15829 8.35355 4.35355L7.5 5.20711V7.03598L10.2419 5.44312C11.3289 4.81162 12.6711 4.81162 13.7581 5.44312L16.5 7.03598L16.5 5.20711L15.6464 4.35355C15.4512 4.15829 15.4512 3.84171 15.6464 3.64645L16.6464 2.64645C16.8417 2.45118 17.1583 2.45118 17.3536 2.64645L18.3536 3.64645C18.5488 3.84171 18.5488 4.15829 18.3536 4.35355L17.5 5.20711L17.5 7.61692L18.3591 8.11602C19.0688 8.52831 19.5 9.29792 19.5 10.1236V16.1427C19.5 16.9684 19.0688 17.738 18.3591 18.1503L13.1091 21.2002C12.4211 21.5999 11.5789 21.5999 10.8909 21.2002L5.64088 18.1503C4.93118 17.738 4.5 16.9684 4.5 16.1427V10.1236C4.5 9.29792 4.93118 8.52831 5.64088 8.11602L6.5 7.61692V5.20711L5.64645 4.35355C5.45118 4.15829 5.45118 3.84171 5.64645 3.64645L6.64645 2.64645ZM7 4.29289L7.29289 4L7 3.70711L6.70711 4L7 4.29289ZM17 4.29289L17.2929 4L17 3.70711L16.7071 4L17 4.29289ZM13.2558 6.3078C12.4794 5.85673 11.5206 5.85673 10.7442 6.3078L6.14321 8.98069C5.75084 9.20863 5.5 9.6434 5.5 10.1236V16.1427C5.5 16.6229 5.75084 17.0577 6.14321 17.2856L11.3932 20.3356C11.7706 20.5548 12.2294 20.5548 12.6068 20.3356L17.8568 17.2856C18.2492 17.0577 18.5 16.6229 18.5 16.1427V10.1236C18.5 9.6434 18.2492 9.20864 17.8568 8.9807L13.2558 6.3078ZM16.5 12.0124C16.5 11.1836 15.8227 10.5146 14.994 10.5248L8.93225 10.5998C8.13839 10.6096 7.5 11.2559 7.5 12.0498C7.5 12.8507 8.14926 13.5 8.95017 13.5H15.0124C15.834 13.5 16.5 12.834 16.5 12.0124ZM17.5 12.0124C17.5 13.3862 16.3862 14.5 15.0124 14.5H8.95017C7.59698 14.5 6.5 13.403 6.5 12.0498C6.5 10.7084 7.57861 9.61642 8.91989 9.59984L14.9816 9.52491C16.3674 9.50778 17.5 10.6265 17.5 12.0124ZM9.5 11C9.77614 11 10 11.2239 10 11.5V12.5C10 12.7761 9.77614 13 9.5 13C9.22386 13 9 12.7761 9 12.5V11.5C9 11.2239 9.22386 11 9.5 11ZM14.5 11C14.7761 11 15 11.2239 15 11.5V12.5C15 12.7761 14.7761 13 14.5 13C14.2239 13 14 12.7761 14 12.5V11.5C14 11.2239 14.2239 11 14.5 11Z"
        fill="black"/>
  <path
    d="M10.2292 16.0555L10.2234 16.0527C9.97656 15.9297 9.67617 16.0296 9.55278 16.2764C9.42928 16.5234 9.53028 16.8242 9.77727 16.9477L9.77852 16.9483L9.78214 16.9501L9.79368 16.9557C9.80327 16.9603 9.81662 16.9667 9.83347 16.9746C9.86715 16.9903 9.91496 17.012 9.97491 17.0377C10.0945 17.089 10.2639 17.1567 10.4669 17.2243C10.8668 17.3577 11.4244 17.5 12 17.5C12.5756 17.5 13.1331 17.3577 13.5331 17.2243C13.7361 17.1567 13.9054 17.089 14.0251 17.0377C14.085 17.012 14.1328 16.9903 14.1665 16.9746C14.1834 16.9667 14.1967 16.9603 14.2063 16.9557L14.2178 16.9501L14.2215 16.9483L14.2236 16.9472C14.4706 16.8237 14.5707 16.5234 14.4472 16.2764C14.3237 16.0295 14.0233 15.9294 13.7763 16.0528L13.7707 16.0555L13.7436 16.0684C13.7187 16.08 13.6806 16.0974 13.6312 16.1186C13.532 16.161 13.3889 16.2183 13.2169 16.2757C12.8668 16.3923 12.4244 16.5 12 16.5C11.5756 16.5 11.1331 16.3923 10.7831 16.2757C10.6111 16.2183 10.4679 16.161 10.3688 16.1186C10.3194 16.0974 10.2813 16.08 10.2564 16.0684L10.2292 16.0555Z"
    fill="black"/>
</svg>
