<svg
  width="24"
  height="24"
  viewBox="0 0 24 24"
  fill="none"
  xmlns="http://www.w3.org/2000/svg"
>
  <path
    d="M18.5507 5.1236C18.5507 5.1236 20.1233 4.5176 19.9922 5.98931C19.9486 6.59532 19.5554 8.71632 19.2496 11.0105L18.2012 17.8064C18.2012 17.8064 18.1139 18.8019 17.3275 18.9751C16.5412 19.1482 15.3618 18.3691 15.1433 18.1959C14.9686 18.0661 11.867 16.1182 10.7749 15.1659C10.4691 14.9062 10.1196 14.3868 10.8186 13.7808L15.4054 9.4522C15.9296 8.93276 16.4538 7.72076 14.2696 9.19248L8.15388 13.3046C8.15388 13.3046 7.45493 13.7375 6.14444 13.3479L3.30496 12.4822C3.30496 12.4822 2.25654 11.8329 4.04759 11.1836C8.416 9.14916 13.7891 7.07144 18.5507 5.1236Z"
    fill="currentColor"
    fill-opacity="0.88"
  />
</svg>
