<svg width="24" height="24" viewBox="0 0 24 24" fill="none" xmlns="http://www.w3.org/2000/svg">
<path d="M10 10C10.5523 10 11 10.4477 11 11V17C11 17.5523 10.5523 18 10 18C9.44772 18 9 17.5523 9 17V11C9 10.4477 9.44772 10 10 10Z" fill="black"/>
<path d="M14 10C14.5523 10 15 10.4477 15 11V17C15 17.5523 14.5523 18 14 18C13.4477 18 13 17.5523 13 17V11C13 10.4477 13.4477 10 14 10Z" fill="black"/>
<path fill-rule="evenodd" clip-rule="evenodd" d="M14 2C14.5304 2 15.039 2.21086 15.4141 2.58594C15.7891 2.96101 16 3.46957 16 4V6H20C20.5523 6 21 6.44772 21 7C21 7.55228 20.5523 8 20 8H19.9199L18.9961 19.083C18.9748 19.8484 18.664 20.5782 18.1211 21.1211C17.5585 21.6835 16.7955 22 16 22H8C7.20445 22 6.44148 21.6836 5.87891 21.1211C5.336 20.5782 5.02519 19.8484 5.00391 19.083L4.08008 8H4C3.44772 8 3 7.55228 3 7C3 6.44772 3.44772 6 4 6H8V4C8 3.46957 8.21087 2.96101 8.58594 2.58594C8.96101 2.21086 9.46957 2 10 2H14ZM6.99609 18.917C6.99838 18.9445 7 18.9724 7 19C7.0001 19.2651 7.10552 19.5196 7.29297 19.707C7.48047 19.8945 7.73489 20 8 20H16C16.2651 20 16.5195 19.8944 16.707 19.707C16.8945 19.5196 16.9999 19.2651 17 19C17 18.9724 17.0016 18.9445 17.0039 18.917L17.9141 8H6.08594L6.99609 18.917ZM10 6H14V4H10V6Z" fill="black"/>
</svg>
