<svg width="24" height="24" viewBox="0 0 24 24" fill="none" xmlns="http://www.w3.org/2000/svg">
<path d="M19 21C19.5523 21 20 21.4477 20 22V22.0098C20 22.5621 19.5523 23.0098 19 23.0098C18.4477 23.0098 18 22.5621 18 22.0098V22C18 21.4477 18.4477 21 19 21Z" fill="black"/>
<path d="M13.5 14C14.0523 14 14.5 14.4477 14.5 15C14.5 15.5523 14.0523 16 13.5 16H10C9.20435 16 8.44152 16.3163 7.87891 16.8789C7.3163 17.4415 7 18.2044 7 19V21C7 21.5523 6.55228 22 6 22C5.44772 22 5 21.5523 5 21V19C5 17.6739 5.52716 16.4025 6.46484 15.4648C7.40253 14.5272 8.67392 14 10 14H13.5Z" fill="black"/>
<path d="M18.4268 14.0576C19.0039 13.9422 19.6005 14.0008 20.1416 14.2227L20.3701 14.3281L20.373 14.3291C20.9699 14.6379 21.4465 15.1386 21.7256 15.75C22.0046 16.3614 22.0699 17.0489 21.9121 17.7021C21.7542 18.3554 21.3819 18.937 20.8545 19.3535C20.3271 19.77 19.675 19.9978 19.0029 20C18.4508 20.0016 18.0018 19.5551 18 19.0029C17.9984 18.4508 18.4449 18.0018 18.9971 18C19.2214 17.9992 19.4392 17.9232 19.6152 17.7842C19.7913 17.6451 19.916 17.4506 19.9688 17.2324C20.0214 17.0143 19.9994 16.7842 19.9062 16.5801C19.8131 16.3762 19.654 16.2096 19.4551 16.1064C19.259 16.0068 19.0351 15.9764 18.8193 16.0195C18.6026 16.0629 18.4066 16.1781 18.2637 16.3467C17.9069 16.7682 17.2751 16.8207 16.8535 16.4639C16.4324 16.107 16.3798 15.4761 16.7363 15.0547C17.171 14.5413 17.7672 14.1896 18.4268 14.0576Z" fill="black"/>
<path fill-rule="evenodd" clip-rule="evenodd" d="M12 2C13.3261 2 14.5975 2.52716 15.5352 3.46484C16.4728 4.40253 17 5.67392 17 7C17 8.32608 16.4728 9.59747 15.5352 10.5352C14.5975 11.4728 13.3261 12 12 12C10.6739 12 9.40253 11.4728 8.46484 10.5352C7.52716 9.59747 7 8.32608 7 7C7 5.67392 7.52716 4.40253 8.46484 3.46484C9.40253 2.52716 10.6739 2 12 2ZM12 4C11.2044 4 10.4415 4.3163 9.87891 4.87891C9.3163 5.44152 9 6.20435 9 7C9 7.79565 9.3163 8.55848 9.87891 9.12109C10.4415 9.6837 11.2044 10 12 10C12.7956 10 13.5585 9.6837 14.1211 9.12109C14.6837 8.55848 15 7.79565 15 7C15 6.20435 14.6837 5.44152 14.1211 4.87891C13.5585 4.3163 12.7956 4 12 4Z" fill="black"/>
</svg>
