<svg width="24" height="24" viewBox="0 0 24 24" fill="none" xmlns="http://www.w3.org/2000/svg">
<path d="M14 14C14.5523 14 15 14.4477 15 15C15 15.5523 14.5523 16 14 16H10C9.20435 16 8.44152 16.3163 7.87891 16.8789C7.3163 17.4415 7 18.2044 7 19V21C7 21.5523 6.55228 22 6 22C5.44772 22 5 21.5523 5 21V19C5 17.6739 5.52716 16.4025 6.46484 15.4648C7.40253 14.5272 8.67392 14 10 14H14Z" fill="black"/>
<path d="M20.293 16.293C20.6835 15.9024 21.3165 15.9024 21.707 16.293C22.0975 16.6835 22.0975 17.3165 21.707 17.707L17.707 21.707C17.3165 22.0975 16.6835 22.0975 16.293 21.707L14.293 19.707C13.9024 19.3165 13.9024 18.6835 14.293 18.293C14.6835 17.9024 15.3165 17.9024 15.707 18.293L17 19.5859L20.293 16.293Z" fill="black"/>
<path fill-rule="evenodd" clip-rule="evenodd" d="M12 2C13.3261 2 14.5975 2.52716 15.5352 3.46484C16.4728 4.40253 17 5.67392 17 7C17 8.32608 16.4728 9.59747 15.5352 10.5352C14.5975 11.4728 13.3261 12 12 12C10.6739 12 9.40253 11.4728 8.46484 10.5352C7.52716 9.59747 7 8.32608 7 7C7 5.67392 7.52716 4.40253 8.46484 3.46484C9.40253 2.52716 10.6739 2 12 2ZM12 4C11.2044 4 10.4415 4.3163 9.87891 4.87891C9.3163 5.44152 9 6.20435 9 7C9 7.79565 9.3163 8.55848 9.87891 9.12109C10.4415 9.6837 11.2044 10 12 10C12.7956 10 13.5585 9.6837 14.1211 9.12109C14.6837 8.55848 15 7.79565 15 7C15 6.20435 14.6837 5.44152 14.1211 4.87891C13.5585 4.3163 12.7956 4 12 4Z" fill="black"/>
</svg>
