<svg width="100" height="100" viewBox="0 0 100 100" fill="none"
     xmlns="http://www.w3.org/2000/svg">
  <path
    d="M79.6838 53.8183C78.2288 51.9983 78.6451 51.1886 79.6838 49.5617C79.7026 49.5431 91.7143 33.1037 92.9518 27.5286L92.9593 27.5249C93.5743 25.4931 92.9593 24 89.9854 24H80.1451C77.64 24 76.485 25.2814 75.8662 26.7151C75.8662 26.7151 70.856 38.5934 63.7683 46.2931C61.4807 48.518 60.4232 49.2311 59.1744 49.2311C58.5594 49.2311 57.6031 48.518 57.6031 46.4863V27.5249C57.6031 25.0883 56.9018 24 54.828 24H39.3549C37.7836 24 36.8499 25.1366 36.8499 26.1951C36.8499 28.5054 40.3937 29.0366 40.7612 35.5366V49.6397C40.7612 52.73 40.195 53.2983 38.9387 53.2983C35.5936 53.2983 27.4745 41.3717 22.6631 27.7217C21.6918 25.0734 20.743 24.0037 18.2192 24.0037H8.37512C5.56627 24.0037 5 25.2851 5 26.7189C5 29.252 8.34511 41.8471 20.5555 58.4871C28.6933 69.8454 40.1537 76 50.5791 76C56.8455 76 57.6106 74.6331 57.6106 72.282C57.6106 61.4289 57.0443 60.4037 60.1832 60.4037C61.6382 60.4037 64.1433 61.1169 69.9935 66.5954C76.68 73.0917 77.7788 76 81.5214 76H91.3617C94.1668 76 95.5881 74.6331 94.7706 71.9366C92.8993 66.2649 80.2539 54.5983 79.6838 53.8183Z"
    fill="black"/>
</svg>
