<svg width="100" height="100" viewBox="0 0 100 100" fill="none" xmlns="http://www.w3.org/2000/svg">
<path fill-rule="evenodd" clip-rule="evenodd" d="M86.0048 19.9097C89.9411 20.9634 93.0347 24.0567 94.0882 27.993C95.9923 35.1204 96 50 96 50C96 50 96 64.8796 94.0882 72.0071C93.0347 75.9433 89.9411 79.0366 86.0048 80.0901C78.8777 82.0019 50.2849 82.0019 50.2849 82.0019C50.2849 82.0019 21.6925 82.0019 14.565 80.0901C10.6288 79.0366 7.53544 75.9433 6.48176 72.0071C4.57007 64.8796 4.57007 50 4.57007 50C4.57007 50 4.57007 35.1204 6.48176 27.993C7.53544 24.0567 10.6288 20.9634 14.565 19.9097C21.6925 17.998 50.2849 17.998 50.2849 17.998C50.2849 17.998 78.8777 17.998 86.0048 19.9097ZM63.5252 50.9123L39.7721 64.6251V37.1992L63.5252 50.9123Z" fill="#FF0000"/>
</svg>
