<svg width="68" height="48" viewBox="0 0 68 48" fill="none" xmlns="http://www.w3.org/2000/svg">
    <g clip-path="url(#clip0_2150_2)">
        <path fill-rule="evenodd" clip-rule="evenodd" d="M61.1 1.55C64.03 2.33 65.74 4.81 66.52 7.74C67.94 13.05 68 24 68 24C68 24 67.94 34.95 66.52 40.26C65.74 43.19 64.03 45.67 61.1 46.45C55.79 47.87 34 48 34 48C34 48 12.21 47.87 6.9 46.45C3.97 45.67 2.26 43.19 1.48 40.26C0.0600001 34.95 0 24 0 24C0 24 0.0600001 13.05 1.48 7.74C2.27 4.81 3.97 2.33 6.9 1.55C12.21 0.13 34 0 34 0C34 0 55.79 0.13 61.1 1.55ZM27 14L45 24L27 34V14Z" fill="black"/>
    </g>
</svg>
