<svg width="24" height="24" viewBox="0 0 24 24" fill="none"
     xmlns="http://www.w3.org/2000/svg">
  <path fill-rule="evenodd" clip-rule="evenodd"
        d="M14 4.25C14.4142 4.25 14.75 4.58579 14.75 5V8.18934L18.4697 4.46967C18.7626 4.17678 19.2374 4.17678 19.5303 4.46967C19.8232 4.76256 19.8232 5.23744 19.5303 5.53033L15.8107 9.25L19 9.25C19.4142 9.25 19.75 9.58579 19.75 10C19.75 10.4142 19.4142 10.75 19 10.75L14 10.75C13.5858 10.75 13.25 10.4142 13.25 10L13.25 5C13.25 4.58579 13.5858 4.25 14 4.25ZM5 14.75C4.58579 14.75 4.25 14.4142 4.25 14C4.25 13.5858 4.58579 13.25 5 13.25L10 13.25C10.1989 13.25 10.3897 13.329 10.5303 13.4697C10.671 13.6103 10.75 13.8011 10.75 14L10.75 19C10.75 19.4142 10.4142 19.75 10 19.75C9.58579 19.75 9.25 19.4142 9.25 19L9.25 15.8107L5.53033 19.5303C5.23744 19.8232 4.76256 19.8232 4.46967 19.5303C4.17678 19.2374 4.17678 18.7626 4.46967 18.4697L8.18934 14.75H5Z"
        fill="black"/>
</svg>
