<svg width="14" height="16" viewBox="0 0 14 16" fill="none" xmlns="http://www.w3.org/2000/svg">

  <style>
    .path-1 {
      fill: #353430;
    }
    .path-2 {
      fill: #4B4336;
    }
    .path-3 {
      fill: #4B463E;
    }
    .path-4 {
      fill: #52483A;
    }
    .path-5 {
      fill: #696052;
    }
    .path-6 {
      fill: #5E5344;
    }
    .path-7 {
      fill: #696052;
    }
    .path-8 {
      fill: #948774;
    }
    .path-9 {
      fill: #BAAE9C;
    }
    .path-10 {
      fill: #BAAE9C;
    }
    .path-11 {
      fill: #353430;
    }
    .path-12 {
      fill: #CDC07C;
    }
    .path-13 {
      fill: #CDC07C;
    }
    @media (prefers-color-scheme: dark) {
		.path-1 {
		fill: #D7DEF0;
		}
		.path-2 {
		fill: #1C386B;
		}
		.path-3 {
		fill: #25498C;
		}
		.path-4 {
		fill: #173F88;
		}
		.path-5 {
		fill: #2552A5;
		}
		.path-6 {
		fill: #103579;
		}
		.path-7 {
		fill: #2552A5;
		}
		.path-8 {
		fill: #4472C7;
		}
		.path-9 {
		fill: #638FE1;
		}
		.path-10 {
		fill: #638FE1;
		}
		.path-11 {
		fill: #D7DEF0;
		}
		.path-12 {
		fill: #173F88;
		}
		.path-13 {
		fill: #173F88;
		}
    }
  </style>

<path class="path-1" fill-rule="evenodd" clip-rule="evenodd" d="M-1.21101e-06 11.0677C-1.33698e-06 11.488 0.213394 11.8796 0.566627 12.1075L6.29415 15.8024C6.70255 16.0659 7.22737 16.0659 7.63578 15.8024L13.3633 12.1075C13.7165 11.8796 13.9299 11.488 13.9299 11.0677L13.9299 5.10042C13.9299 4.68903 13.7255 4.30454 13.3844 4.07451L7.6569 0.211532C7.23872 -0.07051 6.69121 -0.0705099 6.27304 0.211532L0.54551 4.0745C0.204447 4.30453 3.78628e-07 4.68903 2.55349e-07 5.10041L-1.21101e-06 11.0677ZM12.8513 11.367C13.0685 11.3592 13.2136 11.1403 13.1364 10.9372L11.1985 5.83941C11.1249 5.64572 10.8594 5.62436 10.7557 5.80379L7.65779 11.1666C7.55798 11.3394 7.68738 11.5545 7.88679 11.5473L12.8513 11.367ZM6.80012 11.034C6.8734 11.1608 7.05653 11.1608 7.12981 11.034L10.445 5.29501C10.5183 5.1681 10.4267 5.00941 10.2802 5.00941L3.64978 5.00941C3.50321 5.00941 3.41162 5.1681 3.48493 5.29501L6.80012 11.034ZM3.6501 4.24911C3.56936 4.34144 3.63494 4.48588 3.75759 4.48588L10.1723 4.48588C10.295 4.48588 10.3606 4.34144 10.2798 4.24911L7.34116 0.888468C7.14205 0.660765 6.78789 0.660765 6.58877 0.888468L3.6501 4.24911ZM8.88977 1.67453C8.82817 1.63298 8.7576 1.71298 8.80652 1.76892L11.1756 4.4782L12.56 4.38996C12.6657 4.38322 12.7029 4.24631 12.615 4.18706L8.88977 1.67453ZM13.1455 9.48778C13.1987 9.62779 13.4064 9.58965 13.4064 9.43986L13.4064 5.29176C13.4064 5.05821 13.2092 4.87317 12.9761 4.88803L11.6596 4.97195C11.5477 4.97908 11.4747 5.09255 11.5145 5.19738L13.1455 9.48778ZM5.12341 1.76892C5.17233 1.71298 5.10177 1.63298 5.04016 1.67453L1.3149 4.18706C1.22705 4.24631 1.26419 4.38321 1.36994 4.38996L2.75431 4.4782L5.12341 1.76892ZM2.41542 5.19738C2.45528 5.09254 2.38224 4.97908 2.27031 4.97194L0.953817 4.88803C0.72074 4.87317 0.523533 5.05821 0.523533 5.29176L0.523532 9.43986C0.523532 9.58965 0.731205 9.62779 0.78443 9.48778L2.41542 5.19738ZM1.49198 11.9059C1.41143 11.903 1.37837 12.0082 1.44611 12.0519L6.15274 15.0882C6.39027 15.2414 6.7032 15.0709 6.7032 14.7882L6.7032 12.7683C6.7032 12.3926 6.40589 12.0843 6.03048 12.0707L1.49198 11.9059ZM7.89945 12.0707C7.52404 12.0843 7.22673 12.3926 7.22673 12.7683L7.22673 14.7882C7.22673 15.0709 7.53966 15.2414 7.77719 15.0882L12.4838 12.0519C12.5516 12.0082 12.5185 11.903 12.4379 11.9059L7.89945 12.0707ZM6.04313 11.5473C6.24255 11.5545 6.37195 11.3394 6.27214 11.1666L3.17422 5.80378C3.07057 5.62436 2.80507 5.64571 2.73144 5.83941L0.793512 10.9372C0.716307 11.1403 0.861459 11.3592 1.07859 11.367L6.04313 11.5473Z"/>
<path class="path-2" d="M7.77719 15.0882C7.53966 15.2414 7.22673 15.0709 7.22673 14.7882L7.22673 12.7683C7.22673 12.3926 7.52404 12.0843 7.89945 12.0707L12.4379 11.9059C12.5185 11.903 12.5516 12.0082 12.4838 12.0519L7.77719 15.0882Z"/>
<path class="path-3" d="M6.7032 14.7882C6.7032 15.0709 6.39027 15.2414 6.15274 15.0882L1.44611 12.0519C1.37837 12.0082 1.41143 11.903 1.49198 11.9059L6.03048 12.0707C6.40589 12.0843 6.7032 12.3926 6.7032 12.7683L6.7032 14.7882Z"/>
<path class="path-4" d="M10.7557 5.80379C10.8594 5.62436 11.1249 5.64572 11.1985 5.83941L13.1364 10.9372C13.2136 11.1403 13.0685 11.3592 12.8513 11.367L7.88679 11.5473C7.68738 11.5545 7.55798 11.3394 7.65779 11.1666L10.7557 5.80379Z"/>
<path class="path-5" d="M2.73144 5.83941C2.80507 5.64571 3.07057 5.62436 3.17422 5.80378L6.27214 11.1666C6.37195 11.3394 6.24255 11.5545 6.04313 11.5473L1.07859 11.367C0.861459 11.3592 0.716307 11.1403 0.793512 10.9372L2.73144 5.83941Z"/>
<path class="path-6" d="M12.9761 4.88803C13.2092 4.87317 13.4064 5.05821 13.4064 5.29176L13.4064 9.43986C13.4064 9.58965 13.1987 9.62779 13.1455 9.48778L11.5145 5.19738C11.4747 5.09255 11.5477 4.97908 11.6596 4.97195L12.9761 4.88803Z"/>
<path class="path-7" d="M11.1756 4.4782L8.80652 1.76892C8.7576 1.71298 8.82817 1.63298 8.88977 1.67453L12.615 4.18706C12.7029 4.24631 12.6657 4.38322 12.56 4.38996L11.1756 4.4782Z"/>
<path class="path-8" d="M10.2798 4.24911C10.3606 4.34144 10.295 4.48588 10.1723 4.48588L3.75759 4.48588C3.63494 4.48588 3.56936 4.34144 3.6501 4.24911L6.58877 0.888468C6.78789 0.660765 7.14205 0.660765 7.34116 0.888468L10.2798 4.24911Z"/>
<path class="path-9" d="M1.36994 4.38996C1.26419 4.38321 1.22705 4.24631 1.3149 4.18706L5.04016 1.67453C5.10177 1.63298 5.17233 1.71298 5.12341 1.76892L2.75431 4.4782L1.36994 4.38996Z"/>
<path class="path-10" d="M0.523533 5.29176C0.523533 5.05821 0.72074 4.87317 0.953817 4.88803L2.27031 4.97194C2.38224 4.97908 2.45528 5.09254 2.41542 5.19738L0.78443 9.48778C0.731205 9.62779 0.523532 9.58965 0.523532 9.43986L0.523533 5.29176Z"/>
<path class="path-11" d="M10.2802 5.00941C10.4267 5.00941 10.5183 5.1681 10.445 5.29501L7.12981 11.034C7.05653 11.1608 6.8734 11.1608 6.80012 11.034L3.48493 5.29501C3.41162 5.1681 3.50321 5.00941 3.64978 5.00941L10.2802 5.00941Z"/>
<path class="path-12" d="M6.96569 10.2156L6.82052 10.2156C6.5202 10.2156 6.24267 10.0555 6.09245 9.7954L5.7783 9.25157C5.7339 9.1747 5.8096 9.08426 5.89309 9.11444L6.13032 9.20021C6.15853 9.21041 6.18141 9.23159 6.19376 9.25892L6.31516 9.52758C6.32764 9.55519 6.3534 9.57449 6.3834 9.57871C6.44303 9.58709 6.4934 9.53471 6.48269 9.47546L6.45946 9.34697C6.44714 9.27884 6.4995 9.21617 6.56874 9.21617L6.73724 9.21617C6.79857 9.21617 6.84829 9.26589 6.84829 9.32722L6.84829 9.48467C6.84829 9.54601 6.89801 9.59573 6.95934 9.59573L6.96569 9.59573L6.97204 9.59572C7.03337 9.59572 7.08309 9.546 7.08309 9.48466L7.08309 9.32721C7.08309 9.26587 7.13281 9.21615 7.19414 9.21615L7.36264 9.21615C7.43188 9.21615 7.48424 9.27883 7.47192 9.34696L7.4487 9.47545C7.43798 9.5347 7.48836 9.58708 7.54798 9.5787C7.57799 9.57448 7.60374 9.55518 7.61622 9.52757L7.73762 9.25891C7.74997 9.23157 7.77285 9.2104 7.80106 9.2002L8.03829 9.11443C8.12178 9.08425 8.19749 9.17469 8.15308 9.25156L7.83893 9.79538C7.68871 10.0554 7.41119 10.2156 7.11086 10.2156L6.96569 10.2156Z"/>
<path class="path-13" fill-rule="evenodd" clip-rule="evenodd" d="M4.16643 5.83392L4.61109 5.30285C4.70152 5.19484 4.83514 5.13245 4.97601 5.13245L6.96569 5.13244L8.95538 5.13243C9.09624 5.13243 9.22986 5.19483 9.32029 5.30284L9.76495 5.83391C9.89331 5.98721 9.91216 6.20438 9.81215 6.37751L9.0177 7.75281C8.92727 7.90936 8.75711 8.00244 8.5765 7.99414L8.46884 7.98919C8.23175 7.9783 8.06322 8.21681 8.15267 8.43664L8.23968 8.65049C8.26903 8.72263 8.22708 8.80395 8.15128 8.82184L7.92133 8.87612C7.85261 8.89234 7.78386 8.84936 7.76835 8.78047L7.68107 8.39278C7.66259 8.31068 7.58967 8.25236 7.50552 8.25236C7.45334 8.25236 7.41379 8.29944 7.4228 8.35084L7.50175 8.80114C7.51334 8.86729 7.46403 8.92851 7.39693 8.93128L7.19236 8.93969C7.12929 8.94229 7.07674 8.89186 7.07674 8.82873L7.07674 8.36341C7.07674 8.30208 7.02702 8.25237 6.96569 8.25237C6.90436 8.25237 6.85464 8.30209 6.85464 8.36342L6.85464 8.82875C6.85464 8.89187 6.80209 8.9423 6.73902 8.9397L6.53445 8.93129C6.46735 8.92853 6.41804 8.8673 6.42964 8.80115L6.50858 8.35085C6.51759 8.29945 6.47804 8.25237 6.42587 8.25237C6.34171 8.25237 6.26879 8.3107 6.25031 8.3928L6.16303 8.78048C6.14752 8.84937 6.07877 8.89235 6.01005 8.87613L5.78011 8.82185C5.7043 8.80396 5.66235 8.72264 5.6917 8.6505L5.77871 8.43665C5.86816 8.21682 5.69963 7.97831 5.46254 7.9892L5.35488 7.99415C5.17428 8.00245 5.00411 7.90937 4.91368 7.75282L4.11923 6.37752C4.01922 6.20439 4.03808 5.98722 4.16643 5.83392ZM6.63854 6.36315C6.63854 6.75545 6.23832 7.07349 5.74462 7.07349C5.45832 7.07349 5.20345 6.96653 5.03984 6.80017L4.5988 6.31673C4.36652 6.06211 4.54716 5.65281 4.89181 5.65281L5.74462 5.65281C6.23832 5.65281 6.63854 5.97084 6.63854 6.36315ZM7.29284 6.36313C7.29284 6.75544 7.69306 7.07347 8.18677 7.07347C8.47307 7.07347 8.72793 6.96652 8.89154 6.80016L9.33258 6.31672C9.56486 6.0621 9.38422 5.6528 9.03957 5.6528L8.18677 5.6528C7.69306 5.6528 7.29284 5.97082 7.29284 6.36313ZM6.94056 7.50889L6.95159 7.48922C6.95765 7.47841 6.9732 7.47841 6.97926 7.48922L6.99029 7.50889C7.00433 7.53392 7.03079 7.54942 7.05948 7.54942L7.24774 7.54942C7.31048 7.54942 7.34839 7.48001 7.31447 7.42722L7.02549 6.97739C6.99739 6.93365 6.93346 6.93365 6.90536 6.97739L6.61638 7.42722C6.58246 7.48001 6.62037 7.54942 6.68311 7.54942L6.87137 7.54942C6.90006 7.54942 6.92652 7.53392 6.94056 7.50889Z"/>
</svg>
