<svg width="16" height="16" viewBox="0 0 16 16" fill="none" xmlns="http://www.w3.org/2000/svg">
<rect width="16" height="16" rx="4" fill="#252B32"/>
<path fill-rule="evenodd" clip-rule="evenodd" d="M1.15351 4.94046C0.912962 4.53159 0.95832 4.01869 1.26704 3.65665L2.33656 2.40243C2.55407 2.14736 2.87547 2 3.21428 2L8 2L12.7857 2C13.1245 2 13.4459 2.14736 13.6634 2.40243L14.733 3.65665C15.0417 4.01869 15.087 4.53159 14.8465 4.94046L12.9276 8.20204C12.7143 8.5646 12.3162 8.78358 11.8899 8.7728L11.6261 8.76613C11.0735 8.75215 10.6728 9.27865 10.843 9.79498L11.0236 10.3426C11.0779 10.5076 10.9789 10.6833 10.8076 10.7256L10.3506 10.8385C10.1884 10.8786 10.0234 10.783 9.9809 10.6241L9.7299 9.68666C9.67966 9.49902 9.5069 9.36823 9.3093 9.36823C9.18 9.36823 9.08366 9.48537 9.11091 9.60948L9.33251 10.6189C9.36648 10.7737 9.25412 10.9225 9.09343 10.9356L8.55625 10.9792C8.40057 10.9919 8.26711 10.8712 8.26711 10.7178L8.26711 9.63049C8.26711 9.48565 8.14752 9.36823 8 9.36823C7.85248 9.36823 7.73289 9.48565 7.73289 9.63049L7.73289 10.7178C7.73289 10.8712 7.59942 10.9919 7.44374 10.9792L6.90657 10.9356C6.74588 10.9225 6.63352 10.7737 6.6675 10.6189L6.88909 9.60948C6.91634 9.48537 6.82 9.36823 6.6907 9.36823C6.4931 9.36823 6.32034 9.49902 6.2701 9.68666L6.01911 10.6241C5.97656 10.783 5.81164 10.8786 5.64935 10.8385L5.19235 10.7256C5.02112 10.6833 4.92206 10.5076 4.97644 10.3426L5.15697 9.79498C5.32718 9.27865 4.92648 8.75215 4.37395 8.76613L4.11012 8.7728C3.68383 8.78358 3.28566 8.56459 3.07236 8.20204L1.15351 4.94046ZM7.21317 4.9065C7.21317 5.83301 6.33885 6.58409 5.26033 6.58409C4.63489 6.58409 4.07812 6.33151 3.7207 5.93861L2.72881 4.76321C2.21357 4.15265 2.65583 3.22892 3.46338 3.22892L5.26033 3.22892C6.33885 3.22892 7.21317 3.98 7.21317 4.9065ZM8.78683 4.9065C8.78683 5.83301 9.66115 6.58409 10.7397 6.58409C11.3651 6.58409 11.9219 6.33151 12.2793 5.93861L13.2712 4.76321C13.7864 4.15265 13.3442 3.22892 12.5366 3.22892L10.7397 3.22892C9.66115 3.22892 8.78683 3.98 8.78683 4.9065ZM8.05916 7.61237L8.01599 7.53677C8.0087 7.52401 7.98999 7.52401 7.9827 7.53677L7.93953 7.61237C7.90577 7.67148 7.84214 7.70808 7.77312 7.70808L7.32032 7.70808C7.1694 7.70808 7.07822 7.54416 7.1598 7.41949L7.87093 6.33261C7.93101 6.24079 8.06769 6.24079 8.12777 6.33261L8.8389 7.41949C8.92047 7.54416 8.8293 7.70808 8.67838 7.70808L8.22558 7.70808C8.15656 7.70808 8.09292 7.67148 8.05916 7.61237Z" fill="white"/>
<path d="M7.62276 14L8 14L8.37723 14C9.08448 14 9.74034 13.6372 10.1069 13.0433L10.8791 11.792C10.9854 11.6197 10.8252 11.4077 10.6265 11.4577L10.0275 11.6083C9.94888 11.6281 9.88371 11.6818 9.85031 11.7544L9.56468 12.375C9.53466 12.4402 9.47272 12.4858 9.40055 12.4958C9.25714 12.5156 9.13598 12.3919 9.16174 12.2519L9.21761 11.9485C9.24723 11.7876 9.1213 11.6396 8.95476 11.6396L8.54947 11.6396C8.40195 11.6396 8.28236 11.757 8.28236 11.9018L8.28236 12.2737C8.28236 12.4185 8.16277 12.536 8.01525 12.536L7.99999 12.536L7.98474 12.536C7.83722 12.536 7.71763 12.4185 7.71763 12.2737L7.71763 11.9018C7.71763 11.757 7.59804 11.6396 7.45052 11.6396L7.04524 11.6396C6.87869 11.6396 6.75276 11.7876 6.78239 11.9485L6.83825 12.2519C6.86401 12.3919 6.74285 12.5156 6.59944 12.4958C6.52727 12.4858 6.46533 12.4402 6.43532 12.375L6.14969 11.7544C6.11629 11.6818 6.05111 11.6281 5.97254 11.6083L5.3735 11.4577C5.17482 11.4077 5.0146 11.6197 5.12089 11.792L5.89313 13.0433C6.25965 13.6372 6.91552 14 7.62276 14Z" fill="white"/>
</svg>
