<svg width="24" height="24" viewBox="0 0 24 24" fill="none" xmlns="http://www.w3.org/2000/svg">
  <path fill-rule="evenodd" clip-rule="evenodd"
        d="M0.686411 7.61059C0.901483 7.43739 1.21624 7.47134 1.38944 7.68641C2.00868 8.45536 2.65257 9.15234 3.33533 9.76958C4.48174 10.806 5.73968 11.6194 7.17887 12.1707C8.57772 12.7065 10.1615 13.0001 12 13.0001C13.8385 13.0001 15.4223 12.7066 16.8212 12.1707C18.2603 11.6194 19.5183 10.806 20.6647 9.76963C21.3475 9.15239 21.9914 8.45541 22.6106 7.68646C22.7838 7.47139 23.0986 7.43744 23.3136 7.61064C23.5287 7.78385 23.5626 8.0986 23.3894 8.31368C22.8638 8.96635 22.3162 9.57566 21.7381 10.1347L22.8358 11.1295C23.0404 11.3149 23.0559 11.6311 22.8705 11.8357C22.6851 12.0403 22.3689 12.0559 22.1643 11.8704L20.9947 10.8105C19.9873 11.6692 18.8875 12.3791 17.6581 12.9095L18.4605 14.805C18.5681 15.0593 18.4492 15.3527 18.1949 15.4604C17.9406 15.568 17.6472 15.4492 17.5396 15.1949L16.7242 13.2688C15.4517 13.7009 14.0543 13.9494 12.5 13.9931V15.9999C12.5 16.2761 12.2762 16.4999 12 16.4999C11.7239 16.4999 11.5 16.2761 11.5 15.9999V13.9931C9.94571 13.9494 8.54837 13.7009 7.27581 13.2687L6.46046 15.1948C6.35281 15.4491 6.0594 15.568 5.8051 15.4603C5.55081 15.3527 5.43193 15.0593 5.53957 14.805L6.34197 12.9095C5.11258 12.3791 4.01272 11.6691 3.00532 10.8105L1.83578 11.8704C1.63117 12.0558 1.31497 12.0403 1.12953 11.8357C0.944091 11.631 0.959637 11.3148 1.16425 11.1294L2.26192 10.1346C1.68388 9.57561 1.1362 8.9663 0.610594 8.31362C0.437393 8.09855 0.471338 7.78379 0.686411 7.61059Z"
        fill="black"/>
</svg>
