<svg width="24" height="24" viewBox="0 0 24 24" fill="none"
     xmlns="http://www.w3.org/2000/svg">
  <path fill-rule="evenodd" clip-rule="evenodd"
        d="M4.53033 3.46967C4.23744 3.17678 3.76256 3.17678 3.46967 3.46967C3.17678 3.76256 3.17678 4.23744 3.46967 4.53033L9.23336 10.294C8.92708 10.79 8.75 11.3749 8.75 12C8.75 13.7949 10.2051 15.25 12 15.25C12.6251 15.25 13.21 15.0729 13.706 14.7666L19.4697 20.5303C19.7626 20.8232 20.2374 20.8232 20.5303 20.5303C20.8232 20.2374 20.8232 19.7626 20.5303 19.4697L4.53033 3.46967ZM12.5882 13.6489L10.3511 11.4118C10.2856 11.5954 10.25 11.7934 10.25 12C10.25 12.9665 11.0335 13.75 12 13.75C12.2067 13.75 12.4046 13.7144 12.5882 13.6489ZM12 4.75C11.1297 4.75 10.2987 4.85978 9.50474 5.07212C9.10459 5.17914 8.86696 5.59029 8.97398 5.99044C9.081 6.39058 9.49215 6.62821 9.89229 6.52119C10.5568 6.34346 11.2574 6.25 12 6.25C15.4966 6.25 18.2284 8.33897 20.6105 12C19.9278 13.049 19.2138 13.9719 18.4601 14.7538C18.1726 15.052 18.1813 15.5268 18.4795 15.8143C18.7777 16.1018 19.2525 16.0931 19.5399 15.7949C20.4765 14.8234 21.3358 13.6778 22.136 12.3975C22.288 12.1543 22.288 11.8457 22.136 11.6025C19.5778 7.50943 16.3788 4.75 12 4.75ZM5.53995 9.2462C5.82743 8.948 5.81874 8.4732 5.52054 8.18572C5.22233 7.89823 4.74754 7.90693 4.46005 8.20513C3.52351 9.1766 2.66418 10.3222 1.864 11.6025C1.712 11.8457 1.712 12.1543 1.864 12.3975C4.42217 16.4906 7.62122 19.25 12 19.25C12.9498 19.25 13.8526 19.1192 14.7111 18.8674C15.1086 18.7507 15.3363 18.334 15.2197 17.9365C15.1031 17.5391 14.6863 17.3114 14.2889 17.428C13.5705 17.6388 12.8101 17.75 12 17.75C8.50344 17.75 5.77164 15.661 3.38946 12C4.0722 10.951 4.78616 10.0281 5.53995 9.2462Z"
        fill="black"/>
</svg>
