<svg width="24" height="24" viewBox="0 0 24 24" fill="none" xmlns="http://www.w3.org/2000/svg">
<path fill-rule="evenodd" clip-rule="evenodd" d="M1.864 11.6025C4.42217 7.50943 7.62122 4.75 12 4.75C16.3788 4.75 19.5778 7.50943 22.136 11.6025C22.288 11.8457 22.288 12.1543 22.136 12.3975C19.5778 16.4906 16.3788 19.25 12 19.25C7.62122 19.25 4.42217 16.4906 1.864 12.3975C1.712 12.1543 1.712 11.8457 1.864 11.6025ZM3.38945 12C5.77163 15.661 8.50343 17.75 12 17.75C15.4966 17.75 18.2284 15.661 20.6106 12C18.2284 8.33898 15.4966 6.25 12 6.25C8.50343 6.25 5.77163 8.33898 3.38945 12ZM8.75 12C8.75 10.2051 10.2051 8.75 12 8.75C13.7949 8.75 15.25 10.2051 15.25 12C15.25 13.7949 13.7949 15.25 12 15.25C10.2051 15.25 8.75 13.7949 8.75 12ZM12 10.25C11.0335 10.25 10.25 11.0335 10.25 12C10.25 12.9665 11.0335 13.75 12 13.75C12.9665 13.75 13.75 12.9665 13.75 12C13.75 11.0335 12.9665 10.25 12 10.25Z" fill="black"/>
</svg>
