<svg width="24" height="24" viewBox="0 0 24 24" fill="none" xmlns="http://www.w3.org/2000/svg">
  <path fill-rule="evenodd" clip-rule="evenodd"
        d="M1.13879 11.0544C3.84604 7.93591 7.14475 6.00012 12 6.00012C16.8553 6.00012 20.154 7.93591 22.8612 11.0544C23.3327 11.5974 23.3327 12.4028 22.8612 12.9459C20.154 16.0643 16.8553 18.0001 12 18.0001C7.14475 18.0001 3.84604 16.0643 1.13879 12.9459C0.667359 12.4028 0.667358 11.5974 1.13879 11.0544ZM12 8.5C10.067 8.5 8.50001 10.067 8.50001 12C8.50001 13.933 10.067 15.5 12 15.5C13.933 15.5 15.5 13.933 15.5 12C15.5 10.067 13.933 8.5 12 8.5Z"
        fill="black"/>
  <path
    d="M14 12C14 13.1046 13.1046 14 12 14C10.8954 14 10 13.1046 10 12C10 10.8954 10.8954 10 12 10C13.1046 10 14 10.8954 14 12Z"
    fill="black"/>
</svg>
