<svg width="24" height="24" viewBox="0 0 24 24" fill="none"
	xmlns="http://www.w3.org/2000/svg">
	<path d="M6.22201 5.46388C7.4112 4.22603 9.27649 3 12 3C14.7235 3 16.5888 4.22603 17.778 5.46388C19.1882 6.93176 19.5 9.04581 19.5 11.0813V14V17C17.8505 17.6598 16.3523 18.6477 15.0961 19.9039L14 21V14.833C14 14.3162 14.2711 13.8373 14.7143 13.5714C15.8221 12.9067 16.5 11.7095 16.5 10.4175V10L13 10.5V12.0268C13 12.2635 12.916 12.4926 12.763 12.6732C12.3636 13.1446 11.6364 13.1446 11.237 12.6732C11.084 12.4926 11 12.2635 11 12.0268V10.5L7.5 10V10.3834C7.5 11.6946 8.19459 12.9077 9.3254 13.5714C9.77772 13.8369 10.0556 14.3222 10.0556 14.8466V21L8.92133 19.8864C7.65306 18.6412 6.15025 17.6601 4.5 17V14V11.0813C4.5 9.04581 4.81182 6.93176 6.22201 5.46388Z" fill="black"/>
</svg>
