<svg width="24" height="24" viewBox="0 0 24 24" fill="none"
	xmlns="http://www.w3.org/2000/svg">
	<path fill-rule="evenodd" clip-rule="evenodd" d="M14.5 21V13.2896C14.5 12.5819 14.874 11.9268 15.4835 11.5671L16 11.2623V8.90167L14.1767 11.007C13.7044 11.5523 13.4444 12.2496 13.4444 12.971V14.6918C13.4444 15.073 13.3355 15.4447 13.1328 15.764C13.0939 15.8251 13.0517 15.8843 13.0061 15.9413L12.5 16.5738L11.9939 15.9413C11.9483 15.8843 11.9061 15.8251 11.8672 15.764C11.6645 15.4447 11.5556 15.073 11.5556 14.6918V12.971C11.5556 12.2496 11.2956 11.5523 10.8233 11.007L9 8.90167V11.2623L9.51651 11.5671C10.126 11.9268 10.5 12.5819 10.5 13.2896V21L7.5 18.5L8 17V14L6.29289 12.2929C6.27854 12.2786 6.26468 12.2638 6.2513 12.2487C6.08985 12.0664 6 11.8307 6 11.5858V8.11762C6 7.4231 6.36031 6.7783 6.9518 6.4143L11.4518 3.64507C12.0946 3.24949 12.9054 3.24949 13.5482 3.64507L18.0482 6.4143C18.6397 6.7783 19 7.4231 19 8.11762V11.5858C19 11.8307 18.9101 12.0664 18.7487 12.2487C18.7353 12.2638 18.7215 12.2786 18.7071 12.2929L17 14V17L17.5 18.5L14.5 21ZM17.5 17L18 18L20.5 16.5L19 12.5L17.5 14V17ZM7 18.0492L4.5 16.5738L6 12.5L7.5 14V17L7 18.0492Z" fill="black"/>
</svg>
