<svg width="24" height="24" viewBox="0 0 24 24" fill="none"
     xmlns="http://www.w3.org/2000/svg">
  <path fill-rule="evenodd" clip-rule="evenodd"
        d="M5.68116 4.94428C6.9744 3.59813 9.02407 2.25 12 2.25C14.9759 2.25 17.0256 3.59813 18.3188 4.94428C19.9421 6.63394 20.25 9.00802 20.25 11.0813V16.5C20.25 16.7634 20.1118 17.0076 19.8859 17.1431L19.4197 17.4229C18.1455 18.1873 17.009 19.1607 16.0578 20.3022L15.0762 21.4801C14.874 21.7227 14.5416 21.8127 14.2447 21.7052C13.9478 21.5977 13.75 21.3158 13.75 21V15.8284C13.75 15.0991 14.0397 14.3996 14.5555 13.8839L15.0052 13.4341C15.8022 12.6371 16.25 11.5561 16.25 10.4289V10.3579L13.25 10.7622V11.9225C13.25 12.0509 13.2302 12.1786 13.1913 12.301C12.8221 13.463 11.1779 13.463 10.8087 12.301C10.7698 12.1786 10.75 12.0509 10.75 11.9225V10.7622L7.75 10.3579V10.4289C7.75 11.5561 8.19777 12.6371 8.99479 13.4341L9.44454 13.8839C9.96027 14.3996 10.25 15.0991 10.25 15.8284V21C10.25 21.3158 10.0522 21.5977 9.75532 21.7052C9.45841 21.8127 9.12598 21.7227 8.92383 21.4801L7.94221 20.3022C6.99096 19.1607 5.85449 18.1873 4.58035 17.4229L4.11413 17.1431C3.88822 17.0076 3.75 16.7634 3.75 16.5V11.0813C3.75 9.00802 4.0579 6.63394 5.68116 4.94428ZM12.4497 9.35656L16.8998 8.75672C17.1143 8.72782 17.3307 8.79294 17.4936 8.93536C17.6565 9.07778 17.75 9.28362 17.75 9.5V10.4289C17.75 11.9539 17.1442 13.4165 16.0659 14.4948L15.6161 14.9445C15.3817 15.179 15.25 15.4969 15.25 15.8284V18.9432C16.235 17.8435 17.3803 16.8972 18.6479 16.1366L18.75 16.0754V11.0813C18.75 9.0836 18.4343 7.22958 17.2371 5.98347C16.152 4.85393 14.4711 3.75 12 3.75C9.52891 3.75 7.84801 4.85393 6.76286 5.98347C5.56573 7.22958 5.25 9.0836 5.25 11.0813V16.0754L5.35209 16.1366C6.61973 16.8972 7.76497 17.8435 8.75 18.9432V15.8284C8.75 15.4969 8.6183 15.179 8.38388 14.9445L7.93413 14.4948C6.8558 13.4165 6.25 11.9539 6.25 10.4289V9.5C6.25 9.28362 6.34346 9.07778 6.50636 8.93536C6.66927 8.79294 6.88574 8.72782 7.10019 8.75672L11.5503 9.35656H12.4497Z"
        fill="black"/>
</svg>
