<svg width="24" height="24" viewBox="0 0 24 24" fill="none"
  xmlns="http://www.w3.org/2000/svg">
  <path fill-rule="evenodd" clip-rule="evenodd" d="M8.70711 13.2929C8.89464 13.4805 9 13.7348 9 14V17C9 17.1075 8.98267 17.2143 8.94868 17.3163L8.66452 18.1688L9.5 18.865V13.2896C9.5 12.9357 9.31299 12.6082 9.00825 12.4284L8.49175 12.1235C8.18701 11.9437 8 11.6162 8 11.2623V8.90167C8 8.48413 8.25942 8.11054 8.65066 7.96467C9.04189 7.81881 9.48257 7.93138 9.75592 8.247L11.5792 10.3523C12.0623 10.9102 12.3788 11.5872 12.5 12.3066C12.6212 11.5872 12.9377 10.9102 13.4208 10.3523L15.2441 8.247C15.5174 7.93138 15.9581 7.81881 16.3493 7.96467C16.7406 8.11054 17 8.48413 17 8.90167V11.2623C17 11.6162 16.813 11.9437 16.5083 12.1235L15.9917 12.4284C15.687 12.6082 15.5 12.9357 15.5 13.2896V18.865L16.3355 18.1688L16.0513 17.3163C16.0173 17.2143 16 17.1075 16 17V14C16 13.7348 16.1054 13.4805 16.2929 13.2929L18 11.5858V8.11762C18 7.77036 17.8198 7.44796 17.5241 7.26596L13.0241 4.49673C12.7027 4.29894 12.2973 4.29894 11.9759 4.49673L7.4759 7.26596C7.18016 7.44796 7 7.77036 7 8.11762V11.5858L8.70711 13.2929ZM14.5 21V13.2896C14.5 12.5819 14.874 11.9268 15.4835 11.5671L16 11.2623V8.90167L14.1767 11.007C13.7044 11.5523 13.4444 12.2496 13.4444 12.971V14.6918C13.4444 15.073 13.3355 15.4447 13.1328 15.764C13.0939 15.8251 13.0517 15.8843 13.0061 15.9413L12.5 16.5738L11.9939 15.9413C11.9483 15.8843 11.9061 15.8251 11.8672 15.764C11.6645 15.4447 11.5556 15.073 11.5556 14.6918V12.971C11.5556 12.2496 11.2956 11.5523 10.8233 11.007L9 8.90167V11.2623L9.51651 11.5671C10.126 11.9268 10.5 12.5819 10.5 13.2896V21L7.5 18.5L8 17V14L6.29289 12.2929C6.27854 12.2786 6.26468 12.2638 6.2513 12.2487C6.08985 12.0664 6 11.8307 6 11.5858V8.11762C6 7.4231 6.36031 6.7783 6.9518 6.4143L11.4518 3.64507C12.0946 3.24949 12.9054 3.24949 13.5482 3.64507L18.0482 6.4143C18.6397 6.7783 19 7.4231 19 8.11762V11.5858C19 11.8307 18.9101 12.0664 18.7487 12.2487C18.7353 12.2638 18.7215 12.2786 18.7071 12.2929L17 14V17L17.5 18.5L14.5 21ZM17.5 17L18 18L20.5 16.5L19 12.5L17.5 14V17ZM18.5 16.5338L19.2712 16.0711L18.609 14.3053L18.5 14.4142V16.5338ZM7 18.0492L4.5 16.5738L6 12.5L7.5 14V17L7 18.0492ZM6.39826 14.3125L6.5 14.4142V16.593L5.72663 16.1366L6.39826 14.3125Z" fill="black"/>
</svg>
