<svg width="24" height="24" viewBox="0 0 24 24" fill="none"
  xmlns="http://www.w3.org/2000/svg">
  <path fill-rule="evenodd" clip-rule="evenodd" d="M5.86144 5.11748C7.12 3.80743 9.10821 2.5 12 2.5C14.8918 2.5 16.88 3.80743 18.1386 5.11748C19.6908 6.73321 20 9.02062 20 11.0813V17C20 17.2045 19.8755 17.3883 19.6857 17.4642C18.0991 18.0989 16.6579 19.0492 15.4496 20.2575L14.3536 21.3536C14.2106 21.4966 13.9955 21.5393 13.8087 21.4619C13.6218 21.3846 13.5 21.2022 13.5 21V14.833C13.5 14.1406 13.8633 13.4989 14.457 13.1427C15.3685 12.5958 15.9431 11.6317 15.996 10.5771L13.5 10.9336V12.0268C13.5 12.3819 13.374 12.7255 13.1445 12.9964C12.5453 13.7036 11.4547 13.7036 10.8555 12.9964C10.626 12.7255 10.5 12.3819 10.5 12.0268V10.9336L8.00587 10.5773C8.07005 11.6359 8.65666 12.5991 9.5785 13.1402C10.1838 13.4955 10.5556 14.1448 10.5556 14.8466V21C10.5556 21.2014 10.4347 21.3831 10.249 21.4611C10.0633 21.539 9.84897 21.4979 9.70526 21.3568L8.57103 20.2432C7.34998 19.0443 5.90312 18.0998 4.3143 17.4642C4.12448 17.3883 4 17.2045 4 17V11.0813C4 9.02062 4.30921 6.73321 5.86144 5.11748ZM12 3.5C9.44477 3.5 7.70241 4.64463 6.58258 5.81028C5.31443 7.1303 5 9.071 5 11.0813V16.666C6.58834 17.3467 8.03711 18.3175 9.27162 19.5296L9.55556 19.8084V14.8466C9.55556 14.4995 9.37167 14.1784 9.0723 14.0026C7.78854 13.2491 7 11.872 7 10.3834V10C7 9.85505 7.0629 9.71724 7.1724 9.62227C7.2819 9.5273 7.42722 9.48453 7.57071 9.50503L11.0707 10.005C11.317 10.0402 11.5 10.2512 11.5 10.5V12.0268C11.5 12.1451 11.542 12.2597 11.6185 12.35C11.8182 12.5857 12.1818 12.5857 12.3815 12.35C12.458 12.2597 12.5 12.1451 12.5 12.0268V10.5C12.5 10.2512 12.683 10.0402 12.9293 10.005L16.4293 9.50503C16.5728 9.48453 16.7181 9.5273 16.8276 9.62227C16.9371 9.71724 17 9.85505 17 10V10.4175C17 11.8851 16.23 13.2451 14.9715 14.0002C14.679 14.1757 14.5 14.4918 14.5 14.833V19.7929L14.7425 19.5504C15.9663 18.3266 17.4115 17.348 19 16.6661V11.0813C19 9.071 18.6856 7.1303 17.4174 5.81028C16.2976 4.64463 14.5552 3.5 12 3.5Z" fill="black"/>
</svg>
