<svg width="24" height="24" viewBox="0 0 24 24" fill="none" xmlns="http://www.w3.org/2000/svg">
  <path fill-rule="evenodd" clip-rule="evenodd" d="M11 5.5C7.96243 5.5 5.5 7.96243 5.5 11C5.5 14.0376 7.96243 16.5 11 16.5C12.5086 16.5 13.8746 15.8933 14.8688 14.9093C15.8766 13.9119 16.5 12.5292 16.5 11C16.5 7.96243 14.0376 5.5 11 5.5ZM4.5 11C4.5 7.41015 7.41015 4.5 11 4.5C14.5899 4.5 17.5 7.41015 17.5 11C17.5 12.625 16.9031 14.1114 15.9176 15.2507L19.3515 18.6444C19.5479 18.8385 19.5497 19.1551 19.3556 19.3515C19.1615 19.5479 18.8449 19.5497 18.6485 19.3556L15.2074 15.9547C14.0738 16.9181 12.6045 17.5 11 17.5C7.41015 17.5 4.5 14.5899 4.5 11ZM11 7.5C11.2761 7.5 11.5 7.72386 11.5 8V10.5H14C14.2761 10.5 14.5 10.7239 14.5 11C14.5 11.2761 14.2761 11.5 14 11.5H11.5V14C11.5 14.2761 11.2761 14.5 11 14.5C10.7239 14.5 10.5 14.2761 10.5 14V11.5H8C7.72386 11.5 7.5 11.2761 7.5 11C7.5 10.7239 7.72386 10.5 8 10.5H10.5V8C10.5 7.72386 10.7239 7.5 11 7.5Z" fill="#C3D1DA"/>
</svg>
