<svg width="24" height="24" viewBox="0 0 24 24" fill="none" xmlns="http://www.w3.org/2000/svg">
<path fill-rule="evenodd" clip-rule="evenodd" d="M4.64124 15.6412C5.53204 14.7504 6.74022 14.25 8 14.25H16C17.2598 14.25 18.468 14.7504 19.3588 15.6412C20.2496 16.532 20.75 17.7402 20.75 19V21C20.75 21.4142 20.4142 21.75 20 21.75H4C3.58579 21.75 3.25 21.4142 3.25 21V19C3.25 17.7402 3.75044 16.532 4.64124 15.6412Z" fill="black"/>
<path fill-rule="evenodd" clip-rule="evenodd" d="M7.25 7C7.25 4.37665 9.37665 2.25 12 2.25C14.6234 2.25 16.75 4.37665 16.75 7C16.75 9.62335 14.6234 11.75 12 11.75C9.37665 11.75 7.25 9.62335 7.25 7Z" fill="black"/>
</svg>
