<svg width="24" height="24" viewBox="0 0 24 24" fill="none" xmlns="http://www.w3.org/2000/svg">
<path d="M4.992 1.992L4.992 1.992Q4.176 1.992 3.492 2.400Q2.808 2.808 2.400 3.492Q1.992 4.176 1.992 4.992L1.992 4.992Q1.992 5.424 2.292 5.712Q2.592 6.000 3 6.000Q3.408 6.000 3.708 5.712Q4.008 5.424 4.008 5.004Q4.008 4.584 4.296 4.296Q4.584 4.008 5.004 4.008Q5.424 4.008 5.712 3.708Q6 3.408 6 3Q6 2.592 5.712 2.292Q5.424 1.992 4.992 1.992ZM4.008 3L4.008 3Q4.008 3.408 4.296 3.708Q4.584 4.008 4.992 4.008L4.992 4.008L19.008 4.008Q19.416 4.008 19.704 3.708Q19.992 3.408 19.992 3Q19.992 2.592 19.704 2.292Q19.416 1.992 19.008 1.992L19.008 1.992L4.992 1.992Q4.584 1.992 4.296 2.292Q4.008 2.592 4.008 3ZM22.008 4.992L22.008 4.992Q22.008 4.176 21.600 3.492Q21.192 2.808 20.508 2.400Q19.824 1.992 19.008 1.992L19.008 1.992Q18.576 1.992 18.288 2.292Q18 2.592 18 3Q18 3.408 18.288 3.708Q18.576 4.008 18.996 4.008Q19.416 4.008 19.704 4.296Q19.992 4.584 19.992 5.004Q19.992 5.424 20.292 5.712Q20.592 6.000 21 6.000Q21.408 6.000 21.708 5.712Q22.008 5.424 22.008 4.992ZM21 4.008L21 4.008Q20.592 4.008 20.292 4.296Q19.992 4.584 19.992 4.992L19.992 4.992L19.992 19.008Q19.992 19.416 20.292 19.704Q20.592 19.992 21 19.992Q21.408 19.992 21.708 19.704Q22.008 19.416 22.008 19.008L22.008 19.008L22.008 4.992Q22.008 4.584 21.708 4.296Q21.408 4.008 21 4.008ZM19.008 22.008L19.008 22.008Q19.824 22.008 20.508 21.600Q21.192 21.192 21.600 20.508Q22.008 19.824 22.008 19.008L22.008 19.008Q22.008 18.576 21.708 18.288Q21.408 18 21 18Q20.592 18 20.292 18.288Q19.992 18.576 19.992 18.996Q19.992 19.416 19.704 19.704Q19.416 19.992 18.996 19.992Q18.576 19.992 18.288 20.292Q18 20.592 18 21Q18 21.408 18.288 21.708Q18.576 22.008 19.008 22.008ZM19.992 21L19.992 21Q19.992 20.592 19.704 20.292Q19.416 19.992 19.008 19.992L19.008 19.992L4.992 19.992Q4.584 19.992 4.296 20.292Q4.008 20.592 4.008 21Q4.008 21.408 4.296 21.708Q4.584 22.008 4.992 22.008L4.992 22.008L19.008 22.008Q19.416 22.008 19.704 21.708Q19.992 21.408 19.992 21ZM1.992 19.008L1.992 19.008Q1.992 19.824 2.400 20.508Q2.808 21.192 3.492 21.600Q4.176 22.008 4.992 22.008L4.992 22.008Q5.424 22.008 5.712 21.708Q6 21.408 6 21Q6 20.592 5.712 20.292Q5.424 19.992 5.004 19.992Q4.584 19.992 4.296 19.704Q4.008 19.416 4.008 18.996Q4.008 18.576 3.708 18.288Q3.408 18 3 18Q2.592 18 2.292 18.288Q1.992 18.576 1.992 19.008ZM3 19.992L3 19.992Q3.408 19.992 3.708 19.704Q4.008 19.416 4.008 19.008L4.008 19.008L4.008 4.992Q4.008 4.584 3.708 4.296Q3.408 4.008 3 4.008Q2.592 4.008 2.292 4.296Q1.992 4.584 1.992 4.992L1.992 4.992L1.992 19.008Q1.992 19.416 2.292 19.704Q2.592 19.992 3 19.992ZM7.008 8.496L7.008 8.496Q7.008 9.120 7.440 9.564Q7.872 10.008 8.496 10.008Q9.120 10.008 9.564 9.564Q10.008 9.120 10.008 8.496L10.008 8.496Q10.008 8.232 9.864 8.004Q9.720 7.776 9.492 7.644Q9.264 7.512 9 7.512Q8.736 7.512 8.496 7.632L8.496 7.632Q8.280 7.512 8.004 7.512Q7.728 7.512 7.500 7.644Q7.272 7.776 7.140 8.004Q7.008 8.232 7.008 8.496ZM10.008 8.496L10.008 8.496Q10.008 7.872 9.564 7.440Q9.120 7.008 8.496 7.008Q7.872 7.008 7.440 7.440Q7.008 7.872 7.008 8.496L7.008 8.496Q7.008 8.760 7.140 9.000Q7.272 9.240 7.500 9.372Q7.728 9.504 8.004 9.504Q8.280 9.504 8.496 9.360L8.496 9.360Q8.736 9.504 9 9.504Q9.264 9.504 9.492 9.372Q9.720 9.240 9.864 9.000Q10.008 8.760 10.008 8.496ZM13.992 8.496L13.992 8.496Q13.992 9.120 14.436 9.564Q14.880 10.008 15.504 10.008Q16.128 10.008 16.560 9.564Q16.992 9.120 16.992 8.496L16.992 8.496Q16.992 8.232 16.860 8.004Q16.728 7.776 16.500 7.644Q16.272 7.512 15.996 7.512Q15.720 7.512 15.504 7.632L15.504 7.632Q15.264 7.512 15 7.512Q14.736 7.512 14.508 7.644Q14.280 7.776 14.136 8.004Q13.992 8.232 13.992 8.496ZM16.992 8.496L16.992 8.496Q16.992 7.872 16.560 7.440Q16.128 7.008 15.504 7.008Q14.880 7.008 14.436 7.440Q13.992 7.872 13.992 8.496L13.992 8.496Q13.992 8.760 14.136 9.000Q14.280 9.240 14.508 9.372Q14.736 9.504 15 9.504Q15.264 9.504 15.504 9.360L15.504 9.360Q15.720 9.504 15.996 9.504Q16.272 9.504 16.500 9.372Q16.728 9.240 16.860 9.000Q16.992 8.760 16.992 8.496ZM13.992 15.504L13.992 15.504Q13.992 16.128 14.436 16.560Q14.880 16.992 15.504 16.992Q16.128 16.992 16.560 16.560Q16.992 16.128 16.992 15.504L16.992 15.504Q16.992 15.240 16.860 15Q16.728 14.760 16.500 14.628Q16.272 14.496 15.996 14.496Q15.720 14.496 15.504 14.640L15.504 14.640Q15.264 14.496 15 14.496Q14.736 14.496 14.508 14.628Q14.280 14.760 14.136 15Q13.992 15.240 13.992 15.504ZM16.992 15.504L16.992 15.504Q16.992 14.880 16.560 14.436Q16.128 13.992 15.504 13.992Q14.880 13.992 14.436 14.436Q13.992 14.880 13.992 15.504L13.992 15.504Q13.992 15.768 14.136 15.996Q14.280 16.224 14.508 16.356Q14.736 16.488 15 16.488Q15.264 16.488 15.504 16.368L15.504 16.368Q15.720 16.488 15.996 16.488Q16.272 16.488 16.500 16.356Q16.728 16.224 16.860 15.996Q16.992 15.768 16.992 15.504ZM7.008 15.504L7.008 15.504Q7.008 16.128 7.440 16.560Q7.872 16.992 8.496 16.992Q9.120 16.992 9.564 16.560Q10.008 16.128 10.008 15.504L10.008 15.504Q10.008 15.240 9.864 15Q9.720 14.760 9.492 14.628Q9.264 14.496 9 14.496Q8.736 14.496 8.496 14.640L8.496 14.640Q8.280 14.496 8.004 14.496Q7.728 14.496 7.500 14.628Q7.272 14.760 7.140 15Q7.008 15.240 7.008 15.504ZM10.008 15.504L10.008 15.504Q10.008 14.880 9.564 14.436Q9.120 13.992 8.496 13.992Q7.872 13.992 7.440 14.436Q7.008 14.880 7.008 15.504L7.008 15.504Q7.008 15.768 7.140 15.996Q7.272 16.224 7.500 16.356Q7.728 16.488 8.004 16.488Q8.280 16.488 8.496 16.368L8.496 16.368Q8.736 16.488 9 16.488Q9.264 16.488 9.492 16.356Q9.720 16.224 9.864 15.996Q10.008 15.768 10.008 15.504ZM10.512 12.000L10.512 12.000Q10.512 12.624 10.944 13.056Q11.376 13.488 12 13.488Q12.624 13.488 13.056 13.056Q13.488 12.624 13.488 12.000L13.488 12.000Q13.488 11.736 13.356 11.508Q13.224 11.280 12.996 11.136Q12.768 10.992 12.504 10.992Q12.240 10.992 12 11.136L12 11.136Q11.760 10.992 11.496 10.992Q11.232 10.992 11.004 11.136Q10.776 11.280 10.644 11.508Q10.512 11.736 10.512 12.000ZM13.488 12.000L13.488 12.000Q13.488 11.376 13.056 10.944Q12.624 10.512 12 10.512Q11.376 10.512 10.944 10.944Q10.512 11.376 10.512 12.000L10.512 12.000Q10.512 12.264 10.644 12.492Q10.776 12.720 11.004 12.864Q11.232 13.008 11.496 13.008Q11.760 13.008 12 12.864L12 12.864Q12.240 13.008 12.504 13.008Q12.768 13.008 12.996 12.864Q13.224 12.720 13.356 12.492Q13.488 12.264 13.488 12.000Z" fill="black"/>
</svg>
