<svg width="24" height="24" viewBox="0 0 24 24" fill="none" xmlns="http://www.w3.org/2000/svg">
<path d="M3.696 17.712L3.696 17.712Q5.376 16.056 6.816 14.184L6.816 14.184Q7.992 12.648 8.664 10.848L8.664 10.848L8.664 10.824Q8.976 9.936 9 9.024L9 9.024Q9 8.592 8.712 8.304Q8.424 8.016 8.016 8.004Q7.608 7.992 7.308 8.280Q7.008 8.568 7.008 8.976L7.008 8.976Q6.984 9.576 6.792 10.152L6.792 10.152Q6.240 11.664 5.232 12.960L5.232 12.960L5.232 12.960Q3.888 14.736 2.304 16.296L2.304 16.296Q2.016 16.584 2.004 16.992Q1.992 17.400 2.280 17.700Q2.568 18 2.988 18Q3.408 18 3.696 17.712ZM9 9.048L9 9.048Q9.048 7.872 8.712 6.744L8.712 6.744L8.712 6.720Q8.424 5.784 7.584 5.304Q6.744 4.824 5.784 5.016L5.784 5.016Q5.376 5.112 5.160 5.460Q4.944 5.808 5.028 6.216Q5.112 6.624 5.460 6.840Q5.808 7.056 6.216 6.984L6.216 6.984Q6.408 6.936 6.576 7.032Q6.744 7.128 6.792 7.296L6.792 7.296Q7.032 8.112 7.008 8.952L7.008 8.952Q6.984 9.384 7.260 9.684Q7.536 9.984 7.956 9.996Q8.376 10.008 8.676 9.732Q8.976 9.456 9 9.048ZM5.520 5.136L5.520 5.136Q5.328 5.232 5.136 5.352L5.136 5.352Q4.680 5.664 4.296 6.048L4.296 6.048Q3.720 6.600 3.372 7.356Q3.024 8.112 3 8.928L3 8.928L3 9.024Q3 9.432 3.300 9.720Q3.600 10.008 4.020 9.996Q4.440 9.984 4.728 9.696Q5.016 9.408 4.992 8.976L4.992 8.976L4.992 8.976Q5.040 8.088 5.688 7.512L5.688 7.512L5.712 7.488Q5.976 7.224 6.264 7.008L6.264 7.008L6.480 6.864Q6.840 6.672 6.960 6.276Q7.080 5.880 6.876 5.520Q6.672 5.160 6.276 5.040Q5.880 4.920 5.520 5.136ZM3 9.048L3 9.048Q3.072 10.272 3.480 11.424L3.480 11.424Q3.960 12.720 4.632 13.920L4.632 13.920Q5.016 14.592 5.448 15.240L5.448 15.240L5.688 15.600Q5.952 15.936 6.360 15.996Q6.768 16.056 7.104 15.804Q7.440 15.552 7.488 15.144Q7.536 14.736 7.296 14.400L7.296 14.400L7.104 14.136Q6.720 13.560 6.360 12.936L6.360 12.936L6.360 12.936Q5.784 11.880 5.376 10.752L5.376 10.752L5.376 10.728Q5.040 9.864 4.992 8.952L4.992 8.952Q4.968 8.544 4.668 8.268Q4.368 7.992 3.948 8.004Q3.528 8.016 3.252 8.328Q2.976 8.640 3 9.048ZM5.688 15.576L5.688 15.576Q6.288 16.416 7.056 17.112L7.056 17.112Q7.752 17.784 8.712 17.856L8.712 17.856L8.856 17.880Q9.384 17.832 9.828 17.580Q10.272 17.328 10.584 16.896L10.584 16.896Q10.704 16.728 10.824 16.560L10.824 16.560Q11.064 16.200 10.980 15.792Q10.896 15.384 10.548 15.156Q10.200 14.928 9.792 15.012Q9.384 15.096 9.168 15.456L9.168 15.456L8.952 15.744Q8.880 15.840 8.784 15.864L8.784 15.864Q8.592 15.816 8.448 15.672L8.448 15.672L8.400 15.648Q7.800 15.096 7.320 14.424L7.320 14.424Q7.080 14.088 6.672 14.016Q6.264 13.944 5.928 14.184Q5.592 14.424 5.520 14.832Q5.448 15.240 5.688 15.576ZM9.456 16.824L9.456 16.824Q9.792 17.064 10.200 16.980Q10.608 16.896 10.824 16.560L10.824 16.560L12.840 13.560Q13.056 13.200 12.972 12.804Q12.888 12.408 12.552 12.168Q12.216 11.928 11.808 12.012Q11.400 12.096 11.160 12.456L11.160 12.456L9.168 15.456Q8.928 15.792 9.012 16.200Q9.096 16.608 9.456 16.824ZM11.016 13.080L11.016 13.080Q11.136 14.808 12 16.296L12 16.296L12 16.296Q12.480 17.112 13.284 17.568Q14.088 18.024 15.024 18L15.024 18Q15.432 18 15.720 17.700Q16.008 17.400 15.996 16.980Q15.984 16.560 15.684 16.272Q15.384 15.984 14.988 15.996Q14.592 16.008 14.256 15.828Q13.920 15.648 13.728 15.312L13.728 15.312Q13.104 14.184 12.984 12.912L12.984 12.912Q12.984 12.648 12.828 12.432Q12.672 12.216 12.432 12.096Q12.192 11.976 11.928 12.000Q11.664 12.024 11.436 12.180Q11.208 12.336 11.100 12.576Q10.992 12.816 11.016 13.080ZM15.216 17.976L15.216 17.976Q15.744 17.856 16.200 17.532Q16.656 17.208 17.088 16.872L17.088 16.872L17.184 16.776Q17.712 16.344 18.264 15.960L18.264 15.960Q18.672 15.840 18.864 15.492Q19.056 15.144 18.960 14.760Q18.864 14.376 18.528 14.160Q18.192 13.944 17.808 14.016Q17.424 14.088 17.136 14.328L17.136 14.328Q16.512 14.760 15.936 15.216L15.936 15.216L15.840 15.288Q15.456 15.600 15.048 15.888L15.048 15.888L14.976 15.936Q14.904 16.008 14.784 16.032L14.784 16.032Q14.376 16.104 14.160 16.452Q13.944 16.800 14.028 17.208Q14.112 17.616 14.460 17.844Q14.808 18.072 15.216 17.976ZM19.920 14.832L19.920 14.832Q19.152 14.184 18.168 14.016L18.168 14.016Q17.760 13.944 17.424 14.184Q17.088 14.424 17.016 14.832Q16.944 15.240 17.184 15.576Q17.424 15.912 17.832 15.984L17.832 15.984Q18.288 16.056 18.648 16.368L18.648 16.368L18.720 16.416Q19.560 17.040 20.328 17.736L20.328 17.736Q20.640 18.024 21.048 18Q21.456 17.976 21.732 17.676Q22.008 17.376 21.996 16.956Q21.984 16.536 21.672 16.272L21.672 16.272Q20.832 15.504 19.920 14.832Z" fill="black"/>
</svg>
